<?xml version="1.0" encoding="utf-8" standalone="no"?>
<!DOCTYPE svg PUBLIC "-//W3C//DTD SVG 1.1//EN"
  "http://www.w3.org/Graphics/SVG/1.1/DTD/svg11.dtd">
<svg xmlns:xlink="http://www.w3.org/1999/xlink" width="293.431567pt" height="208.517384pt" viewBox="0 0 293.431567 208.517384" xmlns="http://www.w3.org/2000/svg" version="1.1">
 <metadata>
  <rdf:RDF xmlns:dc="http://purl.org/dc/elements/1.1/" xmlns:cc="http://creativecommons.org/ns#" xmlns:rdf="http://www.w3.org/1999/02/22-rdf-syntax-ns#">
   <cc:Work>
    <dc:type rdf:resource="http://purl.org/dc/dcmitype/StillImage"/>
    <dc:date>2023-05-18T15:21:49.966092</dc:date>
    <dc:format>image/svg+xml</dc:format>
    <dc:creator>
     <cc:Agent>
      <dc:title>Matplotlib v3.7.0, https://matplotlib.org/</dc:title>
     </cc:Agent>
    </dc:creator>
   </cc:Work>
  </rdf:RDF>
 </metadata>
 <defs>
  <style type="text/css">*{stroke-linejoin: round; stroke-linecap: butt}</style>
 </defs>
 <g id="figure_1">
  <g id="patch_1">
   <path d="M 0 208.517384 
L 293.431567 208.517384 
L 293.431567 0 
L 0 0 
L 0 208.517384 
z
" style="fill: none"/>
  </g>
  <g id="axes_1">
   <g id="patch_2">
    <path d="M 30.74 175.864572 
L 278.596567 175.864572 
L 278.596567 10.239375 
L 30.74 10.239375 
L 30.74 175.864572 
z
" style="fill: none"/>
   </g>
   <g id="matplotlib.axis_1">
    <g id="xtick_1">
     <g id="line2d_1">
      <path d="M 30.74 175.864572 
L 30.74 10.239375 
" clip-path="url(#pc322f91361)" style="fill: none; stroke-dasharray: 0.5,0.825; stroke-dashoffset: 0; stroke: #404040; stroke-opacity: 0.2; stroke-width: 0.5"/>
     </g>
     <g id="line2d_2">
      <defs>
       <path id="maf71febf1a" d="M 0 0 
L 0 -3.5 
" style="stroke: #000000; stroke-width: 0.5"/>
      </defs>
      <g>
       <use xlink:href="#maf71febf1a" x="30.74" y="175.864572" style="stroke: #000000; stroke-width: 0.5"/>
      </g>
     </g>
     <g id="text_1">
      <!-- 72 -->
      <g transform="translate(25.65 186.943322) scale(0.08 -0.08)">
       <defs>
        <path id="DejaVuSans-37" d="M 525 4666 
L 3525 4666 
L 3525 4397 
L 1831 0 
L 1172 0 
L 2766 4134 
L 525 4134 
L 525 4666 
z
" transform="scale(0.015625)"/>
        <path id="DejaVuSans-32" d="M 1228 531 
L 3431 531 
L 3431 0 
L 469 0 
L 469 531 
Q 828 903 1448 1529 
Q 2069 2156 2228 2338 
Q 2531 2678 2651 2914 
Q 2772 3150 2772 3378 
Q 2772 3750 2511 3984 
Q 2250 4219 1831 4219 
Q 1534 4219 1204 4116 
Q 875 4013 500 3803 
L 500 4441 
Q 881 4594 1212 4672 
Q 1544 4750 1819 4750 
Q 2544 4750 2975 4387 
Q 3406 4025 3406 3419 
Q 3406 3131 3298 2873 
Q 3191 2616 2906 2266 
Q 2828 2175 2409 1742 
Q 1991 1309 1228 531 
z
" transform="scale(0.015625)"/>
       </defs>
       <use xlink:href="#DejaVuSans-37"/>
       <use xlink:href="#DejaVuSans-32" x="63.623047"/>
      </g>
     </g>
    </g>
    <g id="xtick_2">
     <g id="line2d_3">
      <path d="M 92.704142 175.864572 
L 92.704142 10.239375 
" clip-path="url(#pc322f91361)" style="fill: none; stroke-dasharray: 0.5,0.825; stroke-dashoffset: 0; stroke: #404040; stroke-opacity: 0.2; stroke-width: 0.5"/>
     </g>
     <g id="line2d_4">
      <g>
       <use xlink:href="#maf71febf1a" x="92.704142" y="175.864572" style="stroke: #000000; stroke-width: 0.5"/>
      </g>
     </g>
     <g id="text_2">
      <!-- 84 -->
      <g transform="translate(87.614142 186.943322) scale(0.08 -0.08)">
       <defs>
        <path id="DejaVuSans-38" d="M 2034 2216 
Q 1584 2216 1326 1975 
Q 1069 1734 1069 1313 
Q 1069 891 1326 650 
Q 1584 409 2034 409 
Q 2484 409 2743 651 
Q 3003 894 3003 1313 
Q 3003 1734 2745 1975 
Q 2488 2216 2034 2216 
z
M 1403 2484 
Q 997 2584 770 2862 
Q 544 3141 544 3541 
Q 544 4100 942 4425 
Q 1341 4750 2034 4750 
Q 2731 4750 3128 4425 
Q 3525 4100 3525 3541 
Q 3525 3141 3298 2862 
Q 3072 2584 2669 2484 
Q 3125 2378 3379 2068 
Q 3634 1759 3634 1313 
Q 3634 634 3220 271 
Q 2806 -91 2034 -91 
Q 1263 -91 848 271 
Q 434 634 434 1313 
Q 434 1759 690 2068 
Q 947 2378 1403 2484 
z
M 1172 3481 
Q 1172 3119 1398 2916 
Q 1625 2713 2034 2713 
Q 2441 2713 2670 2916 
Q 2900 3119 2900 3481 
Q 2900 3844 2670 4047 
Q 2441 4250 2034 4250 
Q 1625 4250 1398 4047 
Q 1172 3844 1172 3481 
z
" transform="scale(0.015625)"/>
        <path id="DejaVuSans-34" d="M 2419 4116 
L 825 1625 
L 2419 1625 
L 2419 4116 
z
M 2253 4666 
L 3047 4666 
L 3047 1625 
L 3713 1625 
L 3713 1100 
L 3047 1100 
L 3047 0 
L 2419 0 
L 2419 1100 
L 313 1100 
L 313 1709 
L 2253 4666 
z
" transform="scale(0.015625)"/>
       </defs>
       <use xlink:href="#DejaVuSans-38"/>
       <use xlink:href="#DejaVuSans-34" x="63.623047"/>
      </g>
     </g>
    </g>
    <g id="xtick_3">
     <g id="line2d_5">
      <path d="M 154.668283 175.864572 
L 154.668283 10.239375 
" clip-path="url(#pc322f91361)" style="fill: none; stroke-dasharray: 0.5,0.825; stroke-dashoffset: 0; stroke: #404040; stroke-opacity: 0.2; stroke-width: 0.5"/>
     </g>
     <g id="line2d_6">
      <g>
       <use xlink:href="#maf71febf1a" x="154.668283" y="175.864572" style="stroke: #000000; stroke-width: 0.5"/>
      </g>
     </g>
     <g id="text_3">
      <!-- 96 -->
      <g transform="translate(149.578283 186.943322) scale(0.08 -0.08)">
       <defs>
        <path id="DejaVuSans-39" d="M 703 97 
L 703 672 
Q 941 559 1184 500 
Q 1428 441 1663 441 
Q 2288 441 2617 861 
Q 2947 1281 2994 2138 
Q 2813 1869 2534 1725 
Q 2256 1581 1919 1581 
Q 1219 1581 811 2004 
Q 403 2428 403 3163 
Q 403 3881 828 4315 
Q 1253 4750 1959 4750 
Q 2769 4750 3195 4129 
Q 3622 3509 3622 2328 
Q 3622 1225 3098 567 
Q 2575 -91 1691 -91 
Q 1453 -91 1209 -44 
Q 966 3 703 97 
z
M 1959 2075 
Q 2384 2075 2632 2365 
Q 2881 2656 2881 3163 
Q 2881 3666 2632 3958 
Q 2384 4250 1959 4250 
Q 1534 4250 1286 3958 
Q 1038 3666 1038 3163 
Q 1038 2656 1286 2365 
Q 1534 2075 1959 2075 
z
" transform="scale(0.015625)"/>
        <path id="DejaVuSans-36" d="M 2113 2584 
Q 1688 2584 1439 2293 
Q 1191 2003 1191 1497 
Q 1191 994 1439 701 
Q 1688 409 2113 409 
Q 2538 409 2786 701 
Q 3034 994 3034 1497 
Q 3034 2003 2786 2293 
Q 2538 2584 2113 2584 
z
M 3366 4563 
L 3366 3988 
Q 3128 4100 2886 4159 
Q 2644 4219 2406 4219 
Q 1781 4219 1451 3797 
Q 1122 3375 1075 2522 
Q 1259 2794 1537 2939 
Q 1816 3084 2150 3084 
Q 2853 3084 3261 2657 
Q 3669 2231 3669 1497 
Q 3669 778 3244 343 
Q 2819 -91 2113 -91 
Q 1303 -91 875 529 
Q 447 1150 447 2328 
Q 447 3434 972 4092 
Q 1497 4750 2381 4750 
Q 2619 4750 2861 4703 
Q 3103 4656 3366 4563 
z
" transform="scale(0.015625)"/>
       </defs>
       <use xlink:href="#DejaVuSans-39"/>
       <use xlink:href="#DejaVuSans-36" x="63.623047"/>
      </g>
     </g>
    </g>
    <g id="xtick_4">
     <g id="line2d_7">
      <path d="M 216.632425 175.864572 
L 216.632425 10.239375 
" clip-path="url(#pc322f91361)" style="fill: none; stroke-dasharray: 0.5,0.825; stroke-dashoffset: 0; stroke: #404040; stroke-opacity: 0.2; stroke-width: 0.5"/>
     </g>
     <g id="line2d_8">
      <g>
       <use xlink:href="#maf71febf1a" x="216.632425" y="175.864572" style="stroke: #000000; stroke-width: 0.5"/>
      </g>
     </g>
     <g id="text_4">
      <!-- 108 -->
      <g transform="translate(208.997425 186.943322) scale(0.08 -0.08)">
       <defs>
        <path id="DejaVuSans-31" d="M 794 531 
L 1825 531 
L 1825 4091 
L 703 3866 
L 703 4441 
L 1819 4666 
L 2450 4666 
L 2450 531 
L 3481 531 
L 3481 0 
L 794 0 
L 794 531 
z
" transform="scale(0.015625)"/>
        <path id="DejaVuSans-30" d="M 2034 4250 
Q 1547 4250 1301 3770 
Q 1056 3291 1056 2328 
Q 1056 1369 1301 889 
Q 1547 409 2034 409 
Q 2525 409 2770 889 
Q 3016 1369 3016 2328 
Q 3016 3291 2770 3770 
Q 2525 4250 2034 4250 
z
M 2034 4750 
Q 2819 4750 3233 4129 
Q 3647 3509 3647 2328 
Q 3647 1150 3233 529 
Q 2819 -91 2034 -91 
Q 1250 -91 836 529 
Q 422 1150 422 2328 
Q 422 3509 836 4129 
Q 1250 4750 2034 4750 
z
" transform="scale(0.015625)"/>
       </defs>
       <use xlink:href="#DejaVuSans-31"/>
       <use xlink:href="#DejaVuSans-30" x="63.623047"/>
       <use xlink:href="#DejaVuSans-38" x="127.246094"/>
      </g>
     </g>
    </g>
    <g id="xtick_5">
     <g id="line2d_9">
      <path d="M 278.596567 175.864572 
L 278.596567 10.239375 
" clip-path="url(#pc322f91361)" style="fill: none; stroke-dasharray: 0.5,0.825; stroke-dashoffset: 0; stroke: #404040; stroke-opacity: 0.2; stroke-width: 0.5"/>
     </g>
     <g id="line2d_10">
      <g>
       <use xlink:href="#maf71febf1a" x="278.596567" y="175.864572" style="stroke: #000000; stroke-width: 0.5"/>
      </g>
     </g>
     <g id="text_5">
      <!-- 120 -->
      <g transform="translate(270.961567 186.943322) scale(0.08 -0.08)">
       <use xlink:href="#DejaVuSans-31"/>
       <use xlink:href="#DejaVuSans-32" x="63.623047"/>
       <use xlink:href="#DejaVuSans-30" x="127.246094"/>
      </g>
     </g>
    </g>
    <g id="xtick_6">
     <g id="line2d_11">
      <defs>
       <path id="m908ad3d226" d="M 0 0 
L 0 -2 
" style="stroke: #000000; stroke-width: 0.25"/>
      </defs>
      <g>
       <use xlink:href="#m908ad3d226" x="61.722071" y="175.864572" style="stroke: #000000; stroke-width: 0.25"/>
      </g>
     </g>
    </g>
    <g id="xtick_7">
     <g id="line2d_12">
      <g>
       <use xlink:href="#m908ad3d226" x="123.686213" y="175.864572" style="stroke: #000000; stroke-width: 0.25"/>
      </g>
     </g>
    </g>
    <g id="xtick_8">
     <g id="line2d_13">
      <g>
       <use xlink:href="#m908ad3d226" x="185.650354" y="175.864572" style="stroke: #000000; stroke-width: 0.25"/>
      </g>
     </g>
    </g>
    <g id="xtick_9">
     <g id="line2d_14">
      <g>
       <use xlink:href="#m908ad3d226" x="247.614496" y="175.864572" style="stroke: #000000; stroke-width: 0.25"/>
      </g>
     </g>
    </g>
    <g id="text_6">
     <!-- Hour [s] -->
     <g transform="translate(136.543127 199.445666) scale(0.09 -0.09)">
      <defs>
       <path id="DejaVuSans-48" d="M 628 4666 
L 1259 4666 
L 1259 2753 
L 3553 2753 
L 3553 4666 
L 4184 4666 
L 4184 0 
L 3553 0 
L 3553 2222 
L 1259 2222 
L 1259 0 
L 628 0 
L 628 4666 
z
" transform="scale(0.015625)"/>
       <path id="DejaVuSans-6f" d="M 1959 3097 
Q 1497 3097 1228 2736 
Q 959 2375 959 1747 
Q 959 1119 1226 758 
Q 1494 397 1959 397 
Q 2419 397 2687 759 
Q 2956 1122 2956 1747 
Q 2956 2369 2687 2733 
Q 2419 3097 1959 3097 
z
M 1959 3584 
Q 2709 3584 3137 3096 
Q 3566 2609 3566 1747 
Q 3566 888 3137 398 
Q 2709 -91 1959 -91 
Q 1206 -91 779 398 
Q 353 888 353 1747 
Q 353 2609 779 3096 
Q 1206 3584 1959 3584 
z
" transform="scale(0.015625)"/>
       <path id="DejaVuSans-75" d="M 544 1381 
L 544 3500 
L 1119 3500 
L 1119 1403 
Q 1119 906 1312 657 
Q 1506 409 1894 409 
Q 2359 409 2629 706 
Q 2900 1003 2900 1516 
L 2900 3500 
L 3475 3500 
L 3475 0 
L 2900 0 
L 2900 538 
Q 2691 219 2414 64 
Q 2138 -91 1772 -91 
Q 1169 -91 856 284 
Q 544 659 544 1381 
z
M 1991 3584 
L 1991 3584 
z
" transform="scale(0.015625)"/>
       <path id="DejaVuSans-72" d="M 2631 2963 
Q 2534 3019 2420 3045 
Q 2306 3072 2169 3072 
Q 1681 3072 1420 2755 
Q 1159 2438 1159 1844 
L 1159 0 
L 581 0 
L 581 3500 
L 1159 3500 
L 1159 2956 
Q 1341 3275 1631 3429 
Q 1922 3584 2338 3584 
Q 2397 3584 2469 3576 
Q 2541 3569 2628 3553 
L 2631 2963 
z
" transform="scale(0.015625)"/>
       <path id="DejaVuSans-20" transform="scale(0.015625)"/>
       <path id="DejaVuSans-5b" d="M 550 4863 
L 1875 4863 
L 1875 4416 
L 1125 4416 
L 1125 -397 
L 1875 -397 
L 1875 -844 
L 550 -844 
L 550 4863 
z
" transform="scale(0.015625)"/>
       <path id="DejaVuSans-73" d="M 2834 3397 
L 2834 2853 
Q 2591 2978 2328 3040 
Q 2066 3103 1784 3103 
Q 1356 3103 1142 2972 
Q 928 2841 928 2578 
Q 928 2378 1081 2264 
Q 1234 2150 1697 2047 
L 1894 2003 
Q 2506 1872 2764 1633 
Q 3022 1394 3022 966 
Q 3022 478 2636 193 
Q 2250 -91 1575 -91 
Q 1294 -91 989 -36 
Q 684 19 347 128 
L 347 722 
Q 666 556 975 473 
Q 1284 391 1588 391 
Q 1994 391 2212 530 
Q 2431 669 2431 922 
Q 2431 1156 2273 1281 
Q 2116 1406 1581 1522 
L 1381 1569 
Q 847 1681 609 1914 
Q 372 2147 372 2553 
Q 372 3047 722 3315 
Q 1072 3584 1716 3584 
Q 2034 3584 2315 3537 
Q 2597 3491 2834 3397 
z
" transform="scale(0.015625)"/>
       <path id="DejaVuSans-5d" d="M 1947 4863 
L 1947 -844 
L 622 -844 
L 622 -397 
L 1369 -397 
L 1369 4416 
L 622 4416 
L 622 4863 
L 1947 4863 
z
" transform="scale(0.015625)"/>
      </defs>
      <use xlink:href="#DejaVuSans-48"/>
      <use xlink:href="#DejaVuSans-6f" x="75.195312"/>
      <use xlink:href="#DejaVuSans-75" x="136.376953"/>
      <use xlink:href="#DejaVuSans-72" x="199.755859"/>
      <use xlink:href="#DejaVuSans-20" x="240.869141"/>
      <use xlink:href="#DejaVuSans-5b" x="272.65625"/>
      <use xlink:href="#DejaVuSans-73" x="311.669922"/>
      <use xlink:href="#DejaVuSans-5d" x="363.769531"/>
     </g>
    </g>
   </g>
   <g id="matplotlib.axis_2">
    <g id="ytick_1">
     <g id="line2d_15">
      <path d="M 30.74 175.864572 
L 278.596567 175.864572 
" clip-path="url(#pc322f91361)" style="fill: none; stroke-dasharray: 0.5,0.825; stroke-dashoffset: 0; stroke: #404040; stroke-opacity: 0.2; stroke-width: 0.5"/>
     </g>
     <g id="line2d_16">
      <defs>
       <path id="me7c31a47d7" d="M 0 0 
L 3.5 0 
" style="stroke: #000000; stroke-width: 0.5"/>
      </defs>
      <g>
       <use xlink:href="#me7c31a47d7" x="30.74" y="175.864572" style="stroke: #000000; stroke-width: 0.5"/>
      </g>
     </g>
     <g id="text_7">
      <!-- 0 -->
      <g transform="translate(20.65 178.903947) scale(0.08 -0.08)">
       <use xlink:href="#DejaVuSans-30"/>
      </g>
     </g>
    </g>
    <g id="ytick_2">
     <g id="line2d_17">
      <path d="M 30.74 134.458273 
L 278.596567 134.458273 
" clip-path="url(#pc322f91361)" style="fill: none; stroke-dasharray: 0.5,0.825; stroke-dashoffset: 0; stroke: #404040; stroke-opacity: 0.2; stroke-width: 0.5"/>
     </g>
     <g id="line2d_18">
      <g>
       <use xlink:href="#me7c31a47d7" x="30.74" y="134.458273" style="stroke: #000000; stroke-width: 0.5"/>
      </g>
     </g>
     <g id="text_8">
      <!-- 2 -->
      <g transform="translate(20.65 137.497648) scale(0.08 -0.08)">
       <use xlink:href="#DejaVuSans-32"/>
      </g>
     </g>
    </g>
    <g id="ytick_3">
     <g id="line2d_19">
      <path d="M 30.74 93.051973 
L 278.596567 93.051973 
" clip-path="url(#pc322f91361)" style="fill: none; stroke-dasharray: 0.5,0.825; stroke-dashoffset: 0; stroke: #404040; stroke-opacity: 0.2; stroke-width: 0.5"/>
     </g>
     <g id="line2d_20">
      <g>
       <use xlink:href="#me7c31a47d7" x="30.74" y="93.051973" style="stroke: #000000; stroke-width: 0.5"/>
      </g>
     </g>
     <g id="text_9">
      <!-- 4 -->
      <g transform="translate(20.65 96.091348) scale(0.08 -0.08)">
       <use xlink:href="#DejaVuSans-34"/>
      </g>
     </g>
    </g>
    <g id="ytick_4">
     <g id="line2d_21">
      <path d="M 30.74 51.645674 
L 278.596567 51.645674 
" clip-path="url(#pc322f91361)" style="fill: none; stroke-dasharray: 0.5,0.825; stroke-dashoffset: 0; stroke: #404040; stroke-opacity: 0.2; stroke-width: 0.5"/>
     </g>
     <g id="line2d_22">
      <g>
       <use xlink:href="#me7c31a47d7" x="30.74" y="51.645674" style="stroke: #000000; stroke-width: 0.5"/>
      </g>
     </g>
     <g id="text_10">
      <!-- 6 -->
      <g transform="translate(20.65 54.685049) scale(0.08 -0.08)">
       <use xlink:href="#DejaVuSans-36"/>
      </g>
     </g>
    </g>
    <g id="ytick_5">
     <g id="line2d_23">
      <path d="M 30.74 10.239375 
L 278.596567 10.239375 
" clip-path="url(#pc322f91361)" style="fill: none; stroke-dasharray: 0.5,0.825; stroke-dashoffset: 0; stroke: #404040; stroke-opacity: 0.2; stroke-width: 0.5"/>
     </g>
     <g id="line2d_24">
      <g>
       <use xlink:href="#me7c31a47d7" x="30.74" y="10.239375" style="stroke: #000000; stroke-width: 0.5"/>
      </g>
     </g>
     <g id="text_11">
      <!-- 8 -->
      <g transform="translate(20.65 13.27875) scale(0.08 -0.08)">
       <use xlink:href="#DejaVuSans-38"/>
      </g>
     </g>
    </g>
    <g id="ytick_6">
     <g id="line2d_25">
      <defs>
       <path id="mb65d3db8e1" d="M 0 0 
L 2 0 
" style="stroke: #000000; stroke-width: 0.25"/>
      </defs>
      <g>
       <use xlink:href="#mb65d3db8e1" x="30.74" y="167.583312" style="stroke: #000000; stroke-width: 0.25"/>
      </g>
     </g>
    </g>
    <g id="ytick_7">
     <g id="line2d_26">
      <g>
       <use xlink:href="#mb65d3db8e1" x="30.74" y="159.302052" style="stroke: #000000; stroke-width: 0.25"/>
      </g>
     </g>
    </g>
    <g id="ytick_8">
     <g id="line2d_27">
      <g>
       <use xlink:href="#mb65d3db8e1" x="30.74" y="151.020792" style="stroke: #000000; stroke-width: 0.25"/>
      </g>
     </g>
    </g>
    <g id="ytick_9">
     <g id="line2d_28">
      <g>
       <use xlink:href="#mb65d3db8e1" x="30.74" y="142.739532" style="stroke: #000000; stroke-width: 0.25"/>
      </g>
     </g>
    </g>
    <g id="ytick_10">
     <g id="line2d_29">
      <g>
       <use xlink:href="#mb65d3db8e1" x="30.74" y="126.177013" style="stroke: #000000; stroke-width: 0.25"/>
      </g>
     </g>
    </g>
    <g id="ytick_11">
     <g id="line2d_30">
      <g>
       <use xlink:href="#mb65d3db8e1" x="30.74" y="117.895753" style="stroke: #000000; stroke-width: 0.25"/>
      </g>
     </g>
    </g>
    <g id="ytick_12">
     <g id="line2d_31">
      <g>
       <use xlink:href="#mb65d3db8e1" x="30.74" y="109.614493" style="stroke: #000000; stroke-width: 0.25"/>
      </g>
     </g>
    </g>
    <g id="ytick_13">
     <g id="line2d_32">
      <g>
       <use xlink:href="#mb65d3db8e1" x="30.74" y="101.333233" style="stroke: #000000; stroke-width: 0.25"/>
      </g>
     </g>
    </g>
    <g id="ytick_14">
     <g id="line2d_33">
      <g>
       <use xlink:href="#mb65d3db8e1" x="30.74" y="84.770714" style="stroke: #000000; stroke-width: 0.25"/>
      </g>
     </g>
    </g>
    <g id="ytick_15">
     <g id="line2d_34">
      <g>
       <use xlink:href="#mb65d3db8e1" x="30.74" y="76.489454" style="stroke: #000000; stroke-width: 0.25"/>
      </g>
     </g>
    </g>
    <g id="ytick_16">
     <g id="line2d_35">
      <g>
       <use xlink:href="#mb65d3db8e1" x="30.74" y="68.208194" style="stroke: #000000; stroke-width: 0.25"/>
      </g>
     </g>
    </g>
    <g id="ytick_17">
     <g id="line2d_36">
      <g>
       <use xlink:href="#mb65d3db8e1" x="30.74" y="59.926934" style="stroke: #000000; stroke-width: 0.25"/>
      </g>
     </g>
    </g>
    <g id="ytick_18">
     <g id="line2d_37">
      <g>
       <use xlink:href="#mb65d3db8e1" x="30.74" y="43.364414" style="stroke: #000000; stroke-width: 0.25"/>
      </g>
     </g>
    </g>
    <g id="ytick_19">
     <g id="line2d_38">
      <g>
       <use xlink:href="#mb65d3db8e1" x="30.74" y="35.083155" style="stroke: #000000; stroke-width: 0.25"/>
      </g>
     </g>
    </g>
    <g id="ytick_20">
     <g id="line2d_39">
      <g>
       <use xlink:href="#mb65d3db8e1" x="30.74" y="26.801895" style="stroke: #000000; stroke-width: 0.25"/>
      </g>
     </g>
    </g>
    <g id="ytick_21">
     <g id="line2d_40">
      <g>
       <use xlink:href="#mb65d3db8e1" x="30.74" y="18.520635" style="stroke: #000000; stroke-width: 0.25"/>
      </g>
     </g>
    </g>
    <g id="text_12">
     <!-- Heat flux $\mathrm{[W/m^2]}$ -->
     <g transform="translate(14.778281 130.986973) rotate(-90) scale(0.09 -0.09)">
      <defs>
       <path id="DejaVuSans-65" d="M 3597 1894 
L 3597 1613 
L 953 1613 
Q 991 1019 1311 708 
Q 1631 397 2203 397 
Q 2534 397 2845 478 
Q 3156 559 3463 722 
L 3463 178 
Q 3153 47 2828 -22 
Q 2503 -91 2169 -91 
Q 1331 -91 842 396 
Q 353 884 353 1716 
Q 353 2575 817 3079 
Q 1281 3584 2069 3584 
Q 2775 3584 3186 3129 
Q 3597 2675 3597 1894 
z
M 3022 2063 
Q 3016 2534 2758 2815 
Q 2500 3097 2075 3097 
Q 1594 3097 1305 2825 
Q 1016 2553 972 2059 
L 3022 2063 
z
" transform="scale(0.015625)"/>
       <path id="DejaVuSans-61" d="M 2194 1759 
Q 1497 1759 1228 1600 
Q 959 1441 959 1056 
Q 959 750 1161 570 
Q 1363 391 1709 391 
Q 2188 391 2477 730 
Q 2766 1069 2766 1631 
L 2766 1759 
L 2194 1759 
z
M 3341 1997 
L 3341 0 
L 2766 0 
L 2766 531 
Q 2569 213 2275 61 
Q 1981 -91 1556 -91 
Q 1019 -91 701 211 
Q 384 513 384 1019 
Q 384 1609 779 1909 
Q 1175 2209 1959 2209 
L 2766 2209 
L 2766 2266 
Q 2766 2663 2505 2880 
Q 2244 3097 1772 3097 
Q 1472 3097 1187 3025 
Q 903 2953 641 2809 
L 641 3341 
Q 956 3463 1253 3523 
Q 1550 3584 1831 3584 
Q 2591 3584 2966 3190 
Q 3341 2797 3341 1997 
z
" transform="scale(0.015625)"/>
       <path id="DejaVuSans-74" d="M 1172 4494 
L 1172 3500 
L 2356 3500 
L 2356 3053 
L 1172 3053 
L 1172 1153 
Q 1172 725 1289 603 
Q 1406 481 1766 481 
L 2356 481 
L 2356 0 
L 1766 0 
Q 1100 0 847 248 
Q 594 497 594 1153 
L 594 3053 
L 172 3053 
L 172 3500 
L 594 3500 
L 594 4494 
L 1172 4494 
z
" transform="scale(0.015625)"/>
       <path id="DejaVuSans-66" d="M 2375 4863 
L 2375 4384 
L 1825 4384 
Q 1516 4384 1395 4259 
Q 1275 4134 1275 3809 
L 1275 3500 
L 2222 3500 
L 2222 3053 
L 1275 3053 
L 1275 0 
L 697 0 
L 697 3053 
L 147 3053 
L 147 3500 
L 697 3500 
L 697 3744 
Q 697 4328 969 4595 
Q 1241 4863 1831 4863 
L 2375 4863 
z
" transform="scale(0.015625)"/>
       <path id="DejaVuSans-6c" d="M 603 4863 
L 1178 4863 
L 1178 0 
L 603 0 
L 603 4863 
z
" transform="scale(0.015625)"/>
       <path id="DejaVuSans-78" d="M 3513 3500 
L 2247 1797 
L 3578 0 
L 2900 0 
L 1881 1375 
L 863 0 
L 184 0 
L 1544 1831 
L 300 3500 
L 978 3500 
L 1906 2253 
L 2834 3500 
L 3513 3500 
z
" transform="scale(0.015625)"/>
       <path id="DejaVuSans-57" d="M 213 4666 
L 850 4666 
L 1831 722 
L 2809 4666 
L 3519 4666 
L 4500 722 
L 5478 4666 
L 6119 4666 
L 4947 0 
L 4153 0 
L 3169 4050 
L 2175 0 
L 1381 0 
L 213 4666 
z
" transform="scale(0.015625)"/>
       <path id="DejaVuSans-2f" d="M 1625 4666 
L 2156 4666 
L 531 -594 
L 0 -594 
L 1625 4666 
z
" transform="scale(0.015625)"/>
       <path id="DejaVuSans-6d" d="M 3328 2828 
Q 3544 3216 3844 3400 
Q 4144 3584 4550 3584 
Q 5097 3584 5394 3201 
Q 5691 2819 5691 2113 
L 5691 0 
L 5113 0 
L 5113 2094 
Q 5113 2597 4934 2840 
Q 4756 3084 4391 3084 
Q 3944 3084 3684 2787 
Q 3425 2491 3425 1978 
L 3425 0 
L 2847 0 
L 2847 2094 
Q 2847 2600 2669 2842 
Q 2491 3084 2119 3084 
Q 1678 3084 1418 2786 
Q 1159 2488 1159 1978 
L 1159 0 
L 581 0 
L 581 3500 
L 1159 3500 
L 1159 2956 
Q 1356 3278 1631 3431 
Q 1906 3584 2284 3584 
Q 2666 3584 2933 3390 
Q 3200 3197 3328 2828 
z
" transform="scale(0.015625)"/>
      </defs>
      <use xlink:href="#DejaVuSans-48" transform="translate(0 0.765625)"/>
      <use xlink:href="#DejaVuSans-65" transform="translate(75.195312 0.765625)"/>
      <use xlink:href="#DejaVuSans-61" transform="translate(136.71875 0.765625)"/>
      <use xlink:href="#DejaVuSans-74" transform="translate(197.998047 0.765625)"/>
      <use xlink:href="#DejaVuSans-20" transform="translate(237.207031 0.765625)"/>
      <use xlink:href="#DejaVuSans-66" transform="translate(268.994141 0.765625)"/>
      <use xlink:href="#DejaVuSans-6c" transform="translate(304.199219 0.765625)"/>
      <use xlink:href="#DejaVuSans-75" transform="translate(331.982422 0.765625)"/>
      <use xlink:href="#DejaVuSans-78" transform="translate(395.361328 0.765625)"/>
      <use xlink:href="#DejaVuSans-20" transform="translate(454.541016 0.765625)"/>
      <use xlink:href="#DejaVuSans-5b" transform="translate(486.328125 0.765625)"/>
      <use xlink:href="#DejaVuSans-57" transform="translate(525.341797 0.765625)"/>
      <use xlink:href="#DejaVuSans-2f" transform="translate(624.21875 0.765625)"/>
      <use xlink:href="#DejaVuSans-6d" transform="translate(657.910156 0.765625)"/>
      <use xlink:href="#DejaVuSans-32" transform="translate(756.279297 39.046875) scale(0.7)"/>
      <use xlink:href="#DejaVuSans-5d" transform="translate(803.549805 0.765625)"/>
     </g>
    </g>
   </g>
   <g id="line2d_41">
    <path d="M 30.725656 81.217365 
L 35.889335 84.789757 
L 43.979098 90.667987 
L 57.246883 100.371202 
L 67.12959 107.424855 
L 72.063771 110.653162 
L 75.620972 112.730278 
L 78.446652 114.130828 
L 80.885055 115.096625 
L 83.022245 115.711355 
L 84.929937 116.033964 
L 86.63682 116.102295 
L 88.200267 115.946066 
L 89.648965 115.580751 
L 91.025946 115.004187 
L 92.359897 114.200679 
L 93.66516 113.151785 
L 94.984766 111.801259 
L 96.347404 110.078061 
L 97.753072 107.930841 
L 99.216114 105.27754 
L 100.750874 102.017108 
L 102.400382 97.968862 
L 104.308075 92.664776 
L 107.262846 83.683563 
L 110.54752 73.912193 
L 112.584304 68.543093 
L 114.362904 64.461024 
L 115.983726 61.281633 
L 117.489798 58.801704 
L 118.90981 56.877601 
L 120.272447 55.396114 
L 121.592054 54.284273 
L 122.882974 53.483031 
L 124.173893 52.94071 
L 125.4935 52.625474 
L 126.899168 52.52106 
L 128.419585 52.635113 
L 130.112124 52.989776 
L 132.034159 53.626469 
L 134.214379 54.589448 
L 136.68147 55.927726 
L 139.478463 57.705095 
L 142.748792 60.057495 
L 147.195293 63.553283 
L 169.858104 81.738568 
L 176.699978 86.760518 
L 186.23844 93.4544 
L 194.500325 98.987342 
L 198.731673 101.594532 
L 201.657758 103.144889 
L 204.139192 104.21437 
L 206.362442 104.936726 
L 208.341853 105.35263 
L 210.120453 105.503103 
L 211.726931 105.420037 
L 213.233004 105.122242 
L 214.696046 104.604429 
L 216.130401 103.857593 
L 217.536069 102.873057 
L 218.91305 101.63326 
L 220.247 100.127669 
L 221.552263 98.313112 
L 222.87187 96.087567 
L 224.248851 93.314879 
L 225.754924 89.760468 
L 227.519181 84.991381 
L 230.000615 77.567718 
L 234.203276 64.997703 
L 236.24006 59.64901 
L 238.01866 55.579954 
L 239.682512 52.314554 
L 241.274646 49.670317 
L 242.809406 47.540738 
L 244.315479 45.823614 
L 245.778521 44.4844 
L 247.22722 43.453667 
L 248.675919 42.691056 
L 250.153305 42.161321 
L 251.688065 41.846126 
L 253.308886 41.741968 
L 255.030112 41.85681 
L 256.88043 42.207413 
L 258.874184 42.816156 
L 261.054404 43.719875 
L 263.46412 44.964695 
L 266.203739 46.638188 
L 269.402351 48.863397 
L 273.389858 51.923979 
L 278.61091 56.189455 
L 278.61091 56.189455 
" clip-path="url(#pc322f91361)" style="fill: none; stroke: #f45050; stroke-width: 0.75; stroke-linecap: square"/>
   </g>
   <g id="line2d_42">
    <path d="M 0 0 
" clip-path="url(#pc322f91361)" style="fill: none; stroke: #ffa500; stroke-width: 0.75; stroke-linecap: square"/>
   </g>
   <g id="line2d_43">
    <path d="M 30.725656 97.002281 
L 35.932366 97.327725 
L 41.841909 97.926727 
L 48.110041 98.781594 
L 55.138381 99.978611 
L 62.668745 101.483786 
L 79.20686 104.895275 
L 83.036588 105.377775 
L 86.106108 105.547942 
L 88.702291 105.474196 
L 91.011603 105.189088 
L 93.148792 104.702741 
L 95.228607 104.00106 
L 97.322765 103.057545 
L 99.40258 101.875944 
L 101.468052 100.444214 
L 103.648271 98.652599 
L 106.38789 96.088936 
L 113.373199 89.430293 
L 116.055443 87.251057 
L 118.508191 85.539862 
L 120.874877 84.157624 
L 123.241563 83.031598 
L 125.722997 82.098645 
L 128.433928 81.320658 
L 131.460417 80.687384 
L 134.773778 80.22309 
L 138.345322 79.948983 
L 142.218081 79.878258 
L 146.592864 80.026554 
L 151.684825 80.427951 
L 157.637399 81.125721 
L 164.120684 82.110719 
L 171.564987 83.475603 
L 180.730516 85.389228 
L 191.688989 87.917685 
L 201.672101 90.201869 
L 205.716983 90.872844 
L 209.030343 91.205655 
L 211.827336 91.268763 
L 214.423518 91.105358 
L 216.962327 90.722777 
L 219.257295 90.15731 
L 221.236705 89.444528 
L 223.058336 88.552074 
L 224.894311 87.400571 
L 226.916751 85.858871 
L 229.45556 83.62298 
L 237.961286 75.90774 
L 240.715248 73.838459 
L 243.383148 72.1091 
L 246.022362 70.660396 
L 248.71895 69.43311 
L 251.544629 68.391811 
L 254.528088 67.530597 
L 257.626295 66.868271 
L 260.824907 66.412137 
L 264.209985 66.15675 
L 267.924965 66.10407 
L 272.199343 66.271411 
L 277.147868 66.693667 
L 278.61091 66.855481 
L 278.61091 66.855481 
" clip-path="url(#pc322f91361)" style="fill: none; stroke-dasharray: 0.75,0.75; stroke-dashoffset: 0; stroke: #f88254; stroke-width: 0.75"/>
   </g>
   <g id="line2d_44">
    <path d="M 0 0 
" clip-path="url(#pc322f91361)" style="fill: none; stroke-dasharray: 0.75,0.75; stroke-dashoffset: 0; stroke: #ffa500; stroke-width: 0.75"/>
   </g>
   <g id="line2d_45">
    <path d="M 30.725656 85.89537 
L 34.325888 86.295732 
L 38.241677 86.959 
L 42.444338 87.899191 
L 46.991244 89.148986 
L 52.111891 90.792429 
L 57.705876 92.822703 
L 63.873604 95.306021 
L 72.981759 99.244445 
L 80.29697 102.319765 
L 84.399226 103.806839 
L 87.56915 104.729167 
L 90.179677 105.265494 
L 92.417271 105.504921 
L 94.411024 105.498985 
L 96.246999 105.274076 
L 97.996912 104.835487 
L 99.675108 104.186049 
L 101.33896 103.301248 
L 103.017155 102.153552 
L 104.795756 100.662073 
L 106.818196 98.66296 
L 109.371348 95.804229 
L 119.899515 83.654806 
L 122.524385 81.15645 
L 124.977132 79.122527 
L 127.372505 77.421772 
L 129.767878 75.991993 
L 132.191939 74.80187 
L 134.673373 73.829889 
L 137.226525 73.069201 
L 139.837051 72.52317 
L 142.547983 72.183679 
L 145.416693 72.050954 
L 148.486213 72.134269 
L 151.813917 72.449622 
L 155.442835 73.020416 
L 159.415999 73.875336 
L 163.848156 75.061889 
L 168.811025 76.625354 
L 174.534102 78.668705 
L 181.103449 81.255292 
L 188.734218 84.508693 
L 207.509927 92.647972 
L 210.823287 93.716334 
L 213.548562 94.36854 
L 215.929591 94.713685 
L 218.06678 94.802299 
L 219.988816 94.66366 
L 221.738729 94.317044 
L 223.373894 93.767012 
L 224.966029 92.995425 
L 226.58685 91.958845 
L 228.32242 90.576422 
L 230.287486 88.71369 
L 232.740233 86.06161 
L 237.358857 80.656722 
L 241.504143 75.969785 
L 244.631037 72.765733 
L 247.442373 70.195398 
L 250.09593 68.06531 
L 252.692113 66.264104 
L 255.259609 64.750786 
L 257.841448 63.485838 
L 260.437631 62.459913 
L 263.076844 61.655072 
L 265.773432 61.064872 
L 268.556081 60.684785 
L 271.439135 60.516776 
L 274.479968 60.564478 
L 277.735954 60.841345 
L 278.61091 60.951376 
L 278.61091 60.951376 
" clip-path="url(#pc322f91361)" style="fill: none; stroke-dasharray: 3.75,0.75; stroke-dashoffset: 0; stroke: #fcb457; stroke-width: 0.75"/>
   </g>
   <g id="line2d_46">
    <path d="M 0 0 
" clip-path="url(#pc322f91361)" style="fill: none; stroke-dasharray: 3.75,0.75; stroke-dashoffset: 0; stroke: #ffa500; stroke-width: 0.75"/>
   </g>
   <g id="patch_3">
    <path d="M 30.74 175.864572 
L 30.74 10.239375 
" style="fill: none; stroke: #000000; stroke-width: 0.5; stroke-linejoin: miter; stroke-linecap: square"/>
   </g>
   <g id="patch_4">
    <path d="M 278.596567 175.864572 
L 278.596567 10.239375 
" style="fill: none; stroke: #000000; stroke-width: 0.5; stroke-linejoin: miter; stroke-linecap: square"/>
   </g>
   <g id="patch_5">
    <path d="M 30.74 175.864572 
L 278.596567 175.864572 
" style="fill: none; stroke: #000000; stroke-width: 0.5; stroke-linejoin: miter; stroke-linecap: square"/>
   </g>
   <g id="patch_6">
    <path d="M 30.74 10.239375 
L 278.596567 10.239375 
" style="fill: none; stroke: #000000; stroke-width: 0.5; stroke-linejoin: miter; stroke-linecap: square"/>
   </g>
   <g id="text_13">
    <!-- Conductance 0.4 - URE -->
    <g transform="translate(35.74 21.318125) scale(0.08 -0.08)">
     <defs>
      <path id="DejaVuSans-43" d="M 4122 4306 
L 4122 3641 
Q 3803 3938 3442 4084 
Q 3081 4231 2675 4231 
Q 1875 4231 1450 3742 
Q 1025 3253 1025 2328 
Q 1025 1406 1450 917 
Q 1875 428 2675 428 
Q 3081 428 3442 575 
Q 3803 722 4122 1019 
L 4122 359 
Q 3791 134 3420 21 
Q 3050 -91 2638 -91 
Q 1578 -91 968 557 
Q 359 1206 359 2328 
Q 359 3453 968 4101 
Q 1578 4750 2638 4750 
Q 3056 4750 3426 4639 
Q 3797 4528 4122 4306 
z
" transform="scale(0.015625)"/>
      <path id="DejaVuSans-6e" d="M 3513 2113 
L 3513 0 
L 2938 0 
L 2938 2094 
Q 2938 2591 2744 2837 
Q 2550 3084 2163 3084 
Q 1697 3084 1428 2787 
Q 1159 2491 1159 1978 
L 1159 0 
L 581 0 
L 581 3500 
L 1159 3500 
L 1159 2956 
Q 1366 3272 1645 3428 
Q 1925 3584 2291 3584 
Q 2894 3584 3203 3211 
Q 3513 2838 3513 2113 
z
" transform="scale(0.015625)"/>
      <path id="DejaVuSans-64" d="M 2906 2969 
L 2906 4863 
L 3481 4863 
L 3481 0 
L 2906 0 
L 2906 525 
Q 2725 213 2448 61 
Q 2172 -91 1784 -91 
Q 1150 -91 751 415 
Q 353 922 353 1747 
Q 353 2572 751 3078 
Q 1150 3584 1784 3584 
Q 2172 3584 2448 3432 
Q 2725 3281 2906 2969 
z
M 947 1747 
Q 947 1113 1208 752 
Q 1469 391 1925 391 
Q 2381 391 2643 752 
Q 2906 1113 2906 1747 
Q 2906 2381 2643 2742 
Q 2381 3103 1925 3103 
Q 1469 3103 1208 2742 
Q 947 2381 947 1747 
z
" transform="scale(0.015625)"/>
      <path id="DejaVuSans-63" d="M 3122 3366 
L 3122 2828 
Q 2878 2963 2633 3030 
Q 2388 3097 2138 3097 
Q 1578 3097 1268 2742 
Q 959 2388 959 1747 
Q 959 1106 1268 751 
Q 1578 397 2138 397 
Q 2388 397 2633 464 
Q 2878 531 3122 666 
L 3122 134 
Q 2881 22 2623 -34 
Q 2366 -91 2075 -91 
Q 1284 -91 818 406 
Q 353 903 353 1747 
Q 353 2603 823 3093 
Q 1294 3584 2113 3584 
Q 2378 3584 2631 3529 
Q 2884 3475 3122 3366 
z
" transform="scale(0.015625)"/>
      <path id="DejaVuSans-2e" d="M 684 794 
L 1344 794 
L 1344 0 
L 684 0 
L 684 794 
z
" transform="scale(0.015625)"/>
      <path id="DejaVuSans-2d" d="M 313 2009 
L 1997 2009 
L 1997 1497 
L 313 1497 
L 313 2009 
z
" transform="scale(0.015625)"/>
      <path id="DejaVuSans-55" d="M 556 4666 
L 1191 4666 
L 1191 1831 
Q 1191 1081 1462 751 
Q 1734 422 2344 422 
Q 2950 422 3222 751 
Q 3494 1081 3494 1831 
L 3494 4666 
L 4128 4666 
L 4128 1753 
Q 4128 841 3676 375 
Q 3225 -91 2344 -91 
Q 1459 -91 1007 375 
Q 556 841 556 1753 
L 556 4666 
z
" transform="scale(0.015625)"/>
      <path id="DejaVuSans-52" d="M 2841 2188 
Q 3044 2119 3236 1894 
Q 3428 1669 3622 1275 
L 4263 0 
L 3584 0 
L 2988 1197 
Q 2756 1666 2539 1819 
Q 2322 1972 1947 1972 
L 1259 1972 
L 1259 0 
L 628 0 
L 628 4666 
L 2053 4666 
Q 2853 4666 3247 4331 
Q 3641 3997 3641 3322 
Q 3641 2881 3436 2590 
Q 3231 2300 2841 2188 
z
M 1259 4147 
L 1259 2491 
L 2053 2491 
Q 2509 2491 2742 2702 
Q 2975 2913 2975 3322 
Q 2975 3731 2742 3939 
Q 2509 4147 2053 4147 
L 1259 4147 
z
" transform="scale(0.015625)"/>
      <path id="DejaVuSans-45" d="M 628 4666 
L 3578 4666 
L 3578 4134 
L 1259 4134 
L 1259 2753 
L 3481 2753 
L 3481 2222 
L 1259 2222 
L 1259 531 
L 3634 531 
L 3634 0 
L 628 0 
L 628 4666 
z
" transform="scale(0.015625)"/>
     </defs>
     <use xlink:href="#DejaVuSans-43"/>
     <use xlink:href="#DejaVuSans-6f" x="69.824219"/>
     <use xlink:href="#DejaVuSans-6e" x="131.005859"/>
     <use xlink:href="#DejaVuSans-64" x="194.384766"/>
     <use xlink:href="#DejaVuSans-75" x="257.861328"/>
     <use xlink:href="#DejaVuSans-63" x="321.240234"/>
     <use xlink:href="#DejaVuSans-74" x="376.220703"/>
     <use xlink:href="#DejaVuSans-61" x="415.429688"/>
     <use xlink:href="#DejaVuSans-6e" x="476.708984"/>
     <use xlink:href="#DejaVuSans-63" x="540.087891"/>
     <use xlink:href="#DejaVuSans-65" x="595.068359"/>
     <use xlink:href="#DejaVuSans-20" x="656.591797"/>
     <use xlink:href="#DejaVuSans-30" x="688.378906"/>
     <use xlink:href="#DejaVuSans-2e" x="752.001953"/>
     <use xlink:href="#DejaVuSans-34" x="783.789062"/>
     <use xlink:href="#DejaVuSans-20" x="847.412109"/>
     <use xlink:href="#DejaVuSans-2d" x="879.199219"/>
     <use xlink:href="#DejaVuSans-20" x="915.283203"/>
     <use xlink:href="#DejaVuSans-55" x="947.070312"/>
     <use xlink:href="#DejaVuSans-52" x="1020.263672"/>
     <use xlink:href="#DejaVuSans-45" x="1089.746094"/>
    </g>
   </g>
   <g id="legend_1">
    <g id="line2d_47">
     <path d="M 151.010317 167.116759 
L 157.010317 167.116759 
L 163.010317 167.116759 
" style="fill: none; stroke: #f45050; stroke-width: 0.75; stroke-linecap: square"/>
    </g>
    <g id="text_14">
     <!-- inside -->
     <g transform="translate(167.810317 169.216759) scale(0.06 -0.06)">
      <defs>
       <path id="DejaVuSans-69" d="M 603 3500 
L 1178 3500 
L 1178 0 
L 603 0 
L 603 3500 
z
M 603 4863 
L 1178 4863 
L 1178 4134 
L 603 4134 
L 603 4863 
z
" transform="scale(0.015625)"/>
      </defs>
      <use xlink:href="#DejaVuSans-69"/>
      <use xlink:href="#DejaVuSans-6e" x="27.783203"/>
      <use xlink:href="#DejaVuSans-73" x="91.162109"/>
      <use xlink:href="#DejaVuSans-69" x="143.261719"/>
      <use xlink:href="#DejaVuSans-64" x="171.044922"/>
      <use xlink:href="#DejaVuSans-65" x="234.521484"/>
     </g>
    </g>
    <g id="line2d_48">
     <path d="M 191.873129 167.116759 
L 197.873129 167.116759 
L 203.873129 167.116759 
" style="fill: none; stroke-dasharray: 0.75,0.75; stroke-dashoffset: 0; stroke: #f88254; stroke-width: 0.75"/>
    </g>
    <g id="text_15">
     <!-- center -->
     <g transform="translate(208.673129 169.216759) scale(0.06 -0.06)">
      <use xlink:href="#DejaVuSans-63"/>
      <use xlink:href="#DejaVuSans-65" x="54.980469"/>
      <use xlink:href="#DejaVuSans-6e" x="116.503906"/>
      <use xlink:href="#DejaVuSans-74" x="179.882812"/>
      <use xlink:href="#DejaVuSans-65" x="219.091797"/>
      <use xlink:href="#DejaVuSans-72" x="280.615234"/>
     </g>
    </g>
    <g id="line2d_49">
     <path d="M 234.277192 167.116759 
L 240.277192 167.116759 
L 246.277192 167.116759 
" style="fill: none; stroke-dasharray: 3.75,0.75; stroke-dashoffset: 0; stroke: #fcb457; stroke-width: 0.75"/>
    </g>
    <g id="text_16">
     <!-- outside -->
     <g transform="translate(251.077192 169.216759) scale(0.06 -0.06)">
      <use xlink:href="#DejaVuSans-6f"/>
      <use xlink:href="#DejaVuSans-75" x="61.181641"/>
      <use xlink:href="#DejaVuSans-74" x="124.560547"/>
      <use xlink:href="#DejaVuSans-73" x="163.769531"/>
      <use xlink:href="#DejaVuSans-69" x="215.869141"/>
      <use xlink:href="#DejaVuSans-64" x="243.652344"/>
      <use xlink:href="#DejaVuSans-65" x="307.128906"/>
     </g>
    </g>
   </g>
  </g>
 </g>
 <defs>
  <clipPath id="pc322f91361">
   <rect x="30.74" y="10.239375" width="247.856567" height="165.625197"/>
  </clipPath>
 </defs>
</svg>
