<?xml version="1.0" encoding="utf-8" standalone="no"?>
<!DOCTYPE svg PUBLIC "-//W3C//DTD SVG 1.1//EN"
  "http://www.w3.org/Graphics/SVG/1.1/DTD/svg11.dtd">
<svg xmlns:xlink="http://www.w3.org/1999/xlink" width="293.431567pt" height="208.517384pt" viewBox="0 0 293.431567 208.517384" xmlns="http://www.w3.org/2000/svg" version="1.1">
 <metadata>
  <rdf:RDF xmlns:dc="http://purl.org/dc/elements/1.1/" xmlns:cc="http://creativecommons.org/ns#" xmlns:rdf="http://www.w3.org/1999/02/22-rdf-syntax-ns#">
   <cc:Work>
    <dc:type rdf:resource="http://purl.org/dc/dcmitype/StillImage"/>
    <dc:date>2023-05-18T15:21:47.325700</dc:date>
    <dc:format>image/svg+xml</dc:format>
    <dc:creator>
     <cc:Agent>
      <dc:title>Matplotlib v3.7.0, https://matplotlib.org/</dc:title>
     </cc:Agent>
    </dc:creator>
   </cc:Work>
  </rdf:RDF>
 </metadata>
 <defs>
  <style type="text/css">*{stroke-linejoin: round; stroke-linecap: butt}</style>
 </defs>
 <g id="figure_1">
  <g id="patch_1">
   <path d="M 0 208.517384 
L 293.431567 208.517384 
L 293.431567 0 
L 0 0 
L 0 208.517384 
z
" style="fill: none"/>
  </g>
  <g id="axes_1">
   <g id="patch_2">
    <path d="M 30.74 175.864572 
L 278.596567 175.864572 
L 278.596567 10.239375 
L 30.74 10.239375 
L 30.74 175.864572 
z
" style="fill: none"/>
   </g>
   <g id="matplotlib.axis_1">
    <g id="xtick_1">
     <g id="line2d_1">
      <path d="M 30.74 175.864572 
L 30.74 10.239375 
" clip-path="url(#p6f46227ada)" style="fill: none; stroke-dasharray: 0.5,0.825; stroke-dashoffset: 0; stroke: #404040; stroke-opacity: 0.2; stroke-width: 0.5"/>
     </g>
     <g id="line2d_2">
      <defs>
       <path id="mb83d96d70f" d="M 0 0 
L 0 -3.5 
" style="stroke: #000000; stroke-width: 0.5"/>
      </defs>
      <g>
       <use xlink:href="#mb83d96d70f" x="30.74" y="175.864572" style="stroke: #000000; stroke-width: 0.5"/>
      </g>
     </g>
     <g id="text_1">
      <!-- 72 -->
      <g transform="translate(25.65 186.943322) scale(0.08 -0.08)">
       <defs>
        <path id="DejaVuSans-37" d="M 525 4666 
L 3525 4666 
L 3525 4397 
L 1831 0 
L 1172 0 
L 2766 4134 
L 525 4134 
L 525 4666 
z
" transform="scale(0.015625)"/>
        <path id="DejaVuSans-32" d="M 1228 531 
L 3431 531 
L 3431 0 
L 469 0 
L 469 531 
Q 828 903 1448 1529 
Q 2069 2156 2228 2338 
Q 2531 2678 2651 2914 
Q 2772 3150 2772 3378 
Q 2772 3750 2511 3984 
Q 2250 4219 1831 4219 
Q 1534 4219 1204 4116 
Q 875 4013 500 3803 
L 500 4441 
Q 881 4594 1212 4672 
Q 1544 4750 1819 4750 
Q 2544 4750 2975 4387 
Q 3406 4025 3406 3419 
Q 3406 3131 3298 2873 
Q 3191 2616 2906 2266 
Q 2828 2175 2409 1742 
Q 1991 1309 1228 531 
z
" transform="scale(0.015625)"/>
       </defs>
       <use xlink:href="#DejaVuSans-37"/>
       <use xlink:href="#DejaVuSans-32" x="63.623047"/>
      </g>
     </g>
    </g>
    <g id="xtick_2">
     <g id="line2d_3">
      <path d="M 92.704142 175.864572 
L 92.704142 10.239375 
" clip-path="url(#p6f46227ada)" style="fill: none; stroke-dasharray: 0.5,0.825; stroke-dashoffset: 0; stroke: #404040; stroke-opacity: 0.2; stroke-width: 0.5"/>
     </g>
     <g id="line2d_4">
      <g>
       <use xlink:href="#mb83d96d70f" x="92.704142" y="175.864572" style="stroke: #000000; stroke-width: 0.5"/>
      </g>
     </g>
     <g id="text_2">
      <!-- 84 -->
      <g transform="translate(87.614142 186.943322) scale(0.08 -0.08)">
       <defs>
        <path id="DejaVuSans-38" d="M 2034 2216 
Q 1584 2216 1326 1975 
Q 1069 1734 1069 1313 
Q 1069 891 1326 650 
Q 1584 409 2034 409 
Q 2484 409 2743 651 
Q 3003 894 3003 1313 
Q 3003 1734 2745 1975 
Q 2488 2216 2034 2216 
z
M 1403 2484 
Q 997 2584 770 2862 
Q 544 3141 544 3541 
Q 544 4100 942 4425 
Q 1341 4750 2034 4750 
Q 2731 4750 3128 4425 
Q 3525 4100 3525 3541 
Q 3525 3141 3298 2862 
Q 3072 2584 2669 2484 
Q 3125 2378 3379 2068 
Q 3634 1759 3634 1313 
Q 3634 634 3220 271 
Q 2806 -91 2034 -91 
Q 1263 -91 848 271 
Q 434 634 434 1313 
Q 434 1759 690 2068 
Q 947 2378 1403 2484 
z
M 1172 3481 
Q 1172 3119 1398 2916 
Q 1625 2713 2034 2713 
Q 2441 2713 2670 2916 
Q 2900 3119 2900 3481 
Q 2900 3844 2670 4047 
Q 2441 4250 2034 4250 
Q 1625 4250 1398 4047 
Q 1172 3844 1172 3481 
z
" transform="scale(0.015625)"/>
        <path id="DejaVuSans-34" d="M 2419 4116 
L 825 1625 
L 2419 1625 
L 2419 4116 
z
M 2253 4666 
L 3047 4666 
L 3047 1625 
L 3713 1625 
L 3713 1100 
L 3047 1100 
L 3047 0 
L 2419 0 
L 2419 1100 
L 313 1100 
L 313 1709 
L 2253 4666 
z
" transform="scale(0.015625)"/>
       </defs>
       <use xlink:href="#DejaVuSans-38"/>
       <use xlink:href="#DejaVuSans-34" x="63.623047"/>
      </g>
     </g>
    </g>
    <g id="xtick_3">
     <g id="line2d_5">
      <path d="M 154.668283 175.864572 
L 154.668283 10.239375 
" clip-path="url(#p6f46227ada)" style="fill: none; stroke-dasharray: 0.5,0.825; stroke-dashoffset: 0; stroke: #404040; stroke-opacity: 0.2; stroke-width: 0.5"/>
     </g>
     <g id="line2d_6">
      <g>
       <use xlink:href="#mb83d96d70f" x="154.668283" y="175.864572" style="stroke: #000000; stroke-width: 0.5"/>
      </g>
     </g>
     <g id="text_3">
      <!-- 96 -->
      <g transform="translate(149.578283 186.943322) scale(0.08 -0.08)">
       <defs>
        <path id="DejaVuSans-39" d="M 703 97 
L 703 672 
Q 941 559 1184 500 
Q 1428 441 1663 441 
Q 2288 441 2617 861 
Q 2947 1281 2994 2138 
Q 2813 1869 2534 1725 
Q 2256 1581 1919 1581 
Q 1219 1581 811 2004 
Q 403 2428 403 3163 
Q 403 3881 828 4315 
Q 1253 4750 1959 4750 
Q 2769 4750 3195 4129 
Q 3622 3509 3622 2328 
Q 3622 1225 3098 567 
Q 2575 -91 1691 -91 
Q 1453 -91 1209 -44 
Q 966 3 703 97 
z
M 1959 2075 
Q 2384 2075 2632 2365 
Q 2881 2656 2881 3163 
Q 2881 3666 2632 3958 
Q 2384 4250 1959 4250 
Q 1534 4250 1286 3958 
Q 1038 3666 1038 3163 
Q 1038 2656 1286 2365 
Q 1534 2075 1959 2075 
z
" transform="scale(0.015625)"/>
        <path id="DejaVuSans-36" d="M 2113 2584 
Q 1688 2584 1439 2293 
Q 1191 2003 1191 1497 
Q 1191 994 1439 701 
Q 1688 409 2113 409 
Q 2538 409 2786 701 
Q 3034 994 3034 1497 
Q 3034 2003 2786 2293 
Q 2538 2584 2113 2584 
z
M 3366 4563 
L 3366 3988 
Q 3128 4100 2886 4159 
Q 2644 4219 2406 4219 
Q 1781 4219 1451 3797 
Q 1122 3375 1075 2522 
Q 1259 2794 1537 2939 
Q 1816 3084 2150 3084 
Q 2853 3084 3261 2657 
Q 3669 2231 3669 1497 
Q 3669 778 3244 343 
Q 2819 -91 2113 -91 
Q 1303 -91 875 529 
Q 447 1150 447 2328 
Q 447 3434 972 4092 
Q 1497 4750 2381 4750 
Q 2619 4750 2861 4703 
Q 3103 4656 3366 4563 
z
" transform="scale(0.015625)"/>
       </defs>
       <use xlink:href="#DejaVuSans-39"/>
       <use xlink:href="#DejaVuSans-36" x="63.623047"/>
      </g>
     </g>
    </g>
    <g id="xtick_4">
     <g id="line2d_7">
      <path d="M 216.632425 175.864572 
L 216.632425 10.239375 
" clip-path="url(#p6f46227ada)" style="fill: none; stroke-dasharray: 0.5,0.825; stroke-dashoffset: 0; stroke: #404040; stroke-opacity: 0.2; stroke-width: 0.5"/>
     </g>
     <g id="line2d_8">
      <g>
       <use xlink:href="#mb83d96d70f" x="216.632425" y="175.864572" style="stroke: #000000; stroke-width: 0.5"/>
      </g>
     </g>
     <g id="text_4">
      <!-- 108 -->
      <g transform="translate(208.997425 186.943322) scale(0.08 -0.08)">
       <defs>
        <path id="DejaVuSans-31" d="M 794 531 
L 1825 531 
L 1825 4091 
L 703 3866 
L 703 4441 
L 1819 4666 
L 2450 4666 
L 2450 531 
L 3481 531 
L 3481 0 
L 794 0 
L 794 531 
z
" transform="scale(0.015625)"/>
        <path id="DejaVuSans-30" d="M 2034 4250 
Q 1547 4250 1301 3770 
Q 1056 3291 1056 2328 
Q 1056 1369 1301 889 
Q 1547 409 2034 409 
Q 2525 409 2770 889 
Q 3016 1369 3016 2328 
Q 3016 3291 2770 3770 
Q 2525 4250 2034 4250 
z
M 2034 4750 
Q 2819 4750 3233 4129 
Q 3647 3509 3647 2328 
Q 3647 1150 3233 529 
Q 2819 -91 2034 -91 
Q 1250 -91 836 529 
Q 422 1150 422 2328 
Q 422 3509 836 4129 
Q 1250 4750 2034 4750 
z
" transform="scale(0.015625)"/>
       </defs>
       <use xlink:href="#DejaVuSans-31"/>
       <use xlink:href="#DejaVuSans-30" x="63.623047"/>
       <use xlink:href="#DejaVuSans-38" x="127.246094"/>
      </g>
     </g>
    </g>
    <g id="xtick_5">
     <g id="line2d_9">
      <path d="M 278.596567 175.864572 
L 278.596567 10.239375 
" clip-path="url(#p6f46227ada)" style="fill: none; stroke-dasharray: 0.5,0.825; stroke-dashoffset: 0; stroke: #404040; stroke-opacity: 0.2; stroke-width: 0.5"/>
     </g>
     <g id="line2d_10">
      <g>
       <use xlink:href="#mb83d96d70f" x="278.596567" y="175.864572" style="stroke: #000000; stroke-width: 0.5"/>
      </g>
     </g>
     <g id="text_5">
      <!-- 120 -->
      <g transform="translate(270.961567 186.943322) scale(0.08 -0.08)">
       <use xlink:href="#DejaVuSans-31"/>
       <use xlink:href="#DejaVuSans-32" x="63.623047"/>
       <use xlink:href="#DejaVuSans-30" x="127.246094"/>
      </g>
     </g>
    </g>
    <g id="xtick_6">
     <g id="line2d_11">
      <defs>
       <path id="mc8a4361491" d="M 0 0 
L 0 -2 
" style="stroke: #000000; stroke-width: 0.25"/>
      </defs>
      <g>
       <use xlink:href="#mc8a4361491" x="61.722071" y="175.864572" style="stroke: #000000; stroke-width: 0.25"/>
      </g>
     </g>
    </g>
    <g id="xtick_7">
     <g id="line2d_12">
      <g>
       <use xlink:href="#mc8a4361491" x="123.686213" y="175.864572" style="stroke: #000000; stroke-width: 0.25"/>
      </g>
     </g>
    </g>
    <g id="xtick_8">
     <g id="line2d_13">
      <g>
       <use xlink:href="#mc8a4361491" x="185.650354" y="175.864572" style="stroke: #000000; stroke-width: 0.25"/>
      </g>
     </g>
    </g>
    <g id="xtick_9">
     <g id="line2d_14">
      <g>
       <use xlink:href="#mc8a4361491" x="247.614496" y="175.864572" style="stroke: #000000; stroke-width: 0.25"/>
      </g>
     </g>
    </g>
    <g id="text_6">
     <!-- Hour [s] -->
     <g transform="translate(136.543127 199.445666) scale(0.09 -0.09)">
      <defs>
       <path id="DejaVuSans-48" d="M 628 4666 
L 1259 4666 
L 1259 2753 
L 3553 2753 
L 3553 4666 
L 4184 4666 
L 4184 0 
L 3553 0 
L 3553 2222 
L 1259 2222 
L 1259 0 
L 628 0 
L 628 4666 
z
" transform="scale(0.015625)"/>
       <path id="DejaVuSans-6f" d="M 1959 3097 
Q 1497 3097 1228 2736 
Q 959 2375 959 1747 
Q 959 1119 1226 758 
Q 1494 397 1959 397 
Q 2419 397 2687 759 
Q 2956 1122 2956 1747 
Q 2956 2369 2687 2733 
Q 2419 3097 1959 3097 
z
M 1959 3584 
Q 2709 3584 3137 3096 
Q 3566 2609 3566 1747 
Q 3566 888 3137 398 
Q 2709 -91 1959 -91 
Q 1206 -91 779 398 
Q 353 888 353 1747 
Q 353 2609 779 3096 
Q 1206 3584 1959 3584 
z
" transform="scale(0.015625)"/>
       <path id="DejaVuSans-75" d="M 544 1381 
L 544 3500 
L 1119 3500 
L 1119 1403 
Q 1119 906 1312 657 
Q 1506 409 1894 409 
Q 2359 409 2629 706 
Q 2900 1003 2900 1516 
L 2900 3500 
L 3475 3500 
L 3475 0 
L 2900 0 
L 2900 538 
Q 2691 219 2414 64 
Q 2138 -91 1772 -91 
Q 1169 -91 856 284 
Q 544 659 544 1381 
z
M 1991 3584 
L 1991 3584 
z
" transform="scale(0.015625)"/>
       <path id="DejaVuSans-72" d="M 2631 2963 
Q 2534 3019 2420 3045 
Q 2306 3072 2169 3072 
Q 1681 3072 1420 2755 
Q 1159 2438 1159 1844 
L 1159 0 
L 581 0 
L 581 3500 
L 1159 3500 
L 1159 2956 
Q 1341 3275 1631 3429 
Q 1922 3584 2338 3584 
Q 2397 3584 2469 3576 
Q 2541 3569 2628 3553 
L 2631 2963 
z
" transform="scale(0.015625)"/>
       <path id="DejaVuSans-20" transform="scale(0.015625)"/>
       <path id="DejaVuSans-5b" d="M 550 4863 
L 1875 4863 
L 1875 4416 
L 1125 4416 
L 1125 -397 
L 1875 -397 
L 1875 -844 
L 550 -844 
L 550 4863 
z
" transform="scale(0.015625)"/>
       <path id="DejaVuSans-73" d="M 2834 3397 
L 2834 2853 
Q 2591 2978 2328 3040 
Q 2066 3103 1784 3103 
Q 1356 3103 1142 2972 
Q 928 2841 928 2578 
Q 928 2378 1081 2264 
Q 1234 2150 1697 2047 
L 1894 2003 
Q 2506 1872 2764 1633 
Q 3022 1394 3022 966 
Q 3022 478 2636 193 
Q 2250 -91 1575 -91 
Q 1294 -91 989 -36 
Q 684 19 347 128 
L 347 722 
Q 666 556 975 473 
Q 1284 391 1588 391 
Q 1994 391 2212 530 
Q 2431 669 2431 922 
Q 2431 1156 2273 1281 
Q 2116 1406 1581 1522 
L 1381 1569 
Q 847 1681 609 1914 
Q 372 2147 372 2553 
Q 372 3047 722 3315 
Q 1072 3584 1716 3584 
Q 2034 3584 2315 3537 
Q 2597 3491 2834 3397 
z
" transform="scale(0.015625)"/>
       <path id="DejaVuSans-5d" d="M 1947 4863 
L 1947 -844 
L 622 -844 
L 622 -397 
L 1369 -397 
L 1369 4416 
L 622 4416 
L 622 4863 
L 1947 4863 
z
" transform="scale(0.015625)"/>
      </defs>
      <use xlink:href="#DejaVuSans-48"/>
      <use xlink:href="#DejaVuSans-6f" x="75.195312"/>
      <use xlink:href="#DejaVuSans-75" x="136.376953"/>
      <use xlink:href="#DejaVuSans-72" x="199.755859"/>
      <use xlink:href="#DejaVuSans-20" x="240.869141"/>
      <use xlink:href="#DejaVuSans-5b" x="272.65625"/>
      <use xlink:href="#DejaVuSans-73" x="311.669922"/>
      <use xlink:href="#DejaVuSans-5d" x="363.769531"/>
     </g>
    </g>
   </g>
   <g id="matplotlib.axis_2">
    <g id="ytick_1">
     <g id="line2d_15">
      <path d="M 30.74 175.864572 
L 278.596567 175.864572 
" clip-path="url(#p6f46227ada)" style="fill: none; stroke-dasharray: 0.5,0.825; stroke-dashoffset: 0; stroke: #404040; stroke-opacity: 0.2; stroke-width: 0.5"/>
     </g>
     <g id="line2d_16">
      <defs>
       <path id="mcfb72eb25b" d="M 0 0 
L 3.5 0 
" style="stroke: #000000; stroke-width: 0.5"/>
      </defs>
      <g>
       <use xlink:href="#mcfb72eb25b" x="30.74" y="175.864572" style="stroke: #000000; stroke-width: 0.5"/>
      </g>
     </g>
     <g id="text_7">
      <!-- 0 -->
      <g transform="translate(20.65 178.903947) scale(0.08 -0.08)">
       <use xlink:href="#DejaVuSans-30"/>
      </g>
     </g>
    </g>
    <g id="ytick_2">
     <g id="line2d_17">
      <path d="M 30.74 134.458273 
L 278.596567 134.458273 
" clip-path="url(#p6f46227ada)" style="fill: none; stroke-dasharray: 0.5,0.825; stroke-dashoffset: 0; stroke: #404040; stroke-opacity: 0.2; stroke-width: 0.5"/>
     </g>
     <g id="line2d_18">
      <g>
       <use xlink:href="#mcfb72eb25b" x="30.74" y="134.458273" style="stroke: #000000; stroke-width: 0.5"/>
      </g>
     </g>
     <g id="text_8">
      <!-- 2 -->
      <g transform="translate(20.65 137.497648) scale(0.08 -0.08)">
       <use xlink:href="#DejaVuSans-32"/>
      </g>
     </g>
    </g>
    <g id="ytick_3">
     <g id="line2d_19">
      <path d="M 30.74 93.051973 
L 278.596567 93.051973 
" clip-path="url(#p6f46227ada)" style="fill: none; stroke-dasharray: 0.5,0.825; stroke-dashoffset: 0; stroke: #404040; stroke-opacity: 0.2; stroke-width: 0.5"/>
     </g>
     <g id="line2d_20">
      <g>
       <use xlink:href="#mcfb72eb25b" x="30.74" y="93.051973" style="stroke: #000000; stroke-width: 0.5"/>
      </g>
     </g>
     <g id="text_9">
      <!-- 4 -->
      <g transform="translate(20.65 96.091348) scale(0.08 -0.08)">
       <use xlink:href="#DejaVuSans-34"/>
      </g>
     </g>
    </g>
    <g id="ytick_4">
     <g id="line2d_21">
      <path d="M 30.74 51.645674 
L 278.596567 51.645674 
" clip-path="url(#p6f46227ada)" style="fill: none; stroke-dasharray: 0.5,0.825; stroke-dashoffset: 0; stroke: #404040; stroke-opacity: 0.2; stroke-width: 0.5"/>
     </g>
     <g id="line2d_22">
      <g>
       <use xlink:href="#mcfb72eb25b" x="30.74" y="51.645674" style="stroke: #000000; stroke-width: 0.5"/>
      </g>
     </g>
     <g id="text_10">
      <!-- 6 -->
      <g transform="translate(20.65 54.685049) scale(0.08 -0.08)">
       <use xlink:href="#DejaVuSans-36"/>
      </g>
     </g>
    </g>
    <g id="ytick_5">
     <g id="line2d_23">
      <path d="M 30.74 10.239375 
L 278.596567 10.239375 
" clip-path="url(#p6f46227ada)" style="fill: none; stroke-dasharray: 0.5,0.825; stroke-dashoffset: 0; stroke: #404040; stroke-opacity: 0.2; stroke-width: 0.5"/>
     </g>
     <g id="line2d_24">
      <g>
       <use xlink:href="#mcfb72eb25b" x="30.74" y="10.239375" style="stroke: #000000; stroke-width: 0.5"/>
      </g>
     </g>
     <g id="text_11">
      <!-- 8 -->
      <g transform="translate(20.65 13.27875) scale(0.08 -0.08)">
       <use xlink:href="#DejaVuSans-38"/>
      </g>
     </g>
    </g>
    <g id="ytick_6">
     <g id="line2d_25">
      <defs>
       <path id="m8605b64c11" d="M 0 0 
L 2 0 
" style="stroke: #000000; stroke-width: 0.25"/>
      </defs>
      <g>
       <use xlink:href="#m8605b64c11" x="30.74" y="167.583312" style="stroke: #000000; stroke-width: 0.25"/>
      </g>
     </g>
    </g>
    <g id="ytick_7">
     <g id="line2d_26">
      <g>
       <use xlink:href="#m8605b64c11" x="30.74" y="159.302052" style="stroke: #000000; stroke-width: 0.25"/>
      </g>
     </g>
    </g>
    <g id="ytick_8">
     <g id="line2d_27">
      <g>
       <use xlink:href="#m8605b64c11" x="30.74" y="151.020792" style="stroke: #000000; stroke-width: 0.25"/>
      </g>
     </g>
    </g>
    <g id="ytick_9">
     <g id="line2d_28">
      <g>
       <use xlink:href="#m8605b64c11" x="30.74" y="142.739532" style="stroke: #000000; stroke-width: 0.25"/>
      </g>
     </g>
    </g>
    <g id="ytick_10">
     <g id="line2d_29">
      <g>
       <use xlink:href="#m8605b64c11" x="30.74" y="126.177013" style="stroke: #000000; stroke-width: 0.25"/>
      </g>
     </g>
    </g>
    <g id="ytick_11">
     <g id="line2d_30">
      <g>
       <use xlink:href="#m8605b64c11" x="30.74" y="117.895753" style="stroke: #000000; stroke-width: 0.25"/>
      </g>
     </g>
    </g>
    <g id="ytick_12">
     <g id="line2d_31">
      <g>
       <use xlink:href="#m8605b64c11" x="30.74" y="109.614493" style="stroke: #000000; stroke-width: 0.25"/>
      </g>
     </g>
    </g>
    <g id="ytick_13">
     <g id="line2d_32">
      <g>
       <use xlink:href="#m8605b64c11" x="30.74" y="101.333233" style="stroke: #000000; stroke-width: 0.25"/>
      </g>
     </g>
    </g>
    <g id="ytick_14">
     <g id="line2d_33">
      <g>
       <use xlink:href="#m8605b64c11" x="30.74" y="84.770714" style="stroke: #000000; stroke-width: 0.25"/>
      </g>
     </g>
    </g>
    <g id="ytick_15">
     <g id="line2d_34">
      <g>
       <use xlink:href="#m8605b64c11" x="30.74" y="76.489454" style="stroke: #000000; stroke-width: 0.25"/>
      </g>
     </g>
    </g>
    <g id="ytick_16">
     <g id="line2d_35">
      <g>
       <use xlink:href="#m8605b64c11" x="30.74" y="68.208194" style="stroke: #000000; stroke-width: 0.25"/>
      </g>
     </g>
    </g>
    <g id="ytick_17">
     <g id="line2d_36">
      <g>
       <use xlink:href="#m8605b64c11" x="30.74" y="59.926934" style="stroke: #000000; stroke-width: 0.25"/>
      </g>
     </g>
    </g>
    <g id="ytick_18">
     <g id="line2d_37">
      <g>
       <use xlink:href="#m8605b64c11" x="30.74" y="43.364414" style="stroke: #000000; stroke-width: 0.25"/>
      </g>
     </g>
    </g>
    <g id="ytick_19">
     <g id="line2d_38">
      <g>
       <use xlink:href="#m8605b64c11" x="30.74" y="35.083155" style="stroke: #000000; stroke-width: 0.25"/>
      </g>
     </g>
    </g>
    <g id="ytick_20">
     <g id="line2d_39">
      <g>
       <use xlink:href="#m8605b64c11" x="30.74" y="26.801895" style="stroke: #000000; stroke-width: 0.25"/>
      </g>
     </g>
    </g>
    <g id="ytick_21">
     <g id="line2d_40">
      <g>
       <use xlink:href="#m8605b64c11" x="30.74" y="18.520635" style="stroke: #000000; stroke-width: 0.25"/>
      </g>
     </g>
    </g>
    <g id="text_12">
     <!-- Heat flux $\mathrm{[W/m^2]}$ -->
     <g transform="translate(14.778281 130.986973) rotate(-90) scale(0.09 -0.09)">
      <defs>
       <path id="DejaVuSans-65" d="M 3597 1894 
L 3597 1613 
L 953 1613 
Q 991 1019 1311 708 
Q 1631 397 2203 397 
Q 2534 397 2845 478 
Q 3156 559 3463 722 
L 3463 178 
Q 3153 47 2828 -22 
Q 2503 -91 2169 -91 
Q 1331 -91 842 396 
Q 353 884 353 1716 
Q 353 2575 817 3079 
Q 1281 3584 2069 3584 
Q 2775 3584 3186 3129 
Q 3597 2675 3597 1894 
z
M 3022 2063 
Q 3016 2534 2758 2815 
Q 2500 3097 2075 3097 
Q 1594 3097 1305 2825 
Q 1016 2553 972 2059 
L 3022 2063 
z
" transform="scale(0.015625)"/>
       <path id="DejaVuSans-61" d="M 2194 1759 
Q 1497 1759 1228 1600 
Q 959 1441 959 1056 
Q 959 750 1161 570 
Q 1363 391 1709 391 
Q 2188 391 2477 730 
Q 2766 1069 2766 1631 
L 2766 1759 
L 2194 1759 
z
M 3341 1997 
L 3341 0 
L 2766 0 
L 2766 531 
Q 2569 213 2275 61 
Q 1981 -91 1556 -91 
Q 1019 -91 701 211 
Q 384 513 384 1019 
Q 384 1609 779 1909 
Q 1175 2209 1959 2209 
L 2766 2209 
L 2766 2266 
Q 2766 2663 2505 2880 
Q 2244 3097 1772 3097 
Q 1472 3097 1187 3025 
Q 903 2953 641 2809 
L 641 3341 
Q 956 3463 1253 3523 
Q 1550 3584 1831 3584 
Q 2591 3584 2966 3190 
Q 3341 2797 3341 1997 
z
" transform="scale(0.015625)"/>
       <path id="DejaVuSans-74" d="M 1172 4494 
L 1172 3500 
L 2356 3500 
L 2356 3053 
L 1172 3053 
L 1172 1153 
Q 1172 725 1289 603 
Q 1406 481 1766 481 
L 2356 481 
L 2356 0 
L 1766 0 
Q 1100 0 847 248 
Q 594 497 594 1153 
L 594 3053 
L 172 3053 
L 172 3500 
L 594 3500 
L 594 4494 
L 1172 4494 
z
" transform="scale(0.015625)"/>
       <path id="DejaVuSans-66" d="M 2375 4863 
L 2375 4384 
L 1825 4384 
Q 1516 4384 1395 4259 
Q 1275 4134 1275 3809 
L 1275 3500 
L 2222 3500 
L 2222 3053 
L 1275 3053 
L 1275 0 
L 697 0 
L 697 3053 
L 147 3053 
L 147 3500 
L 697 3500 
L 697 3744 
Q 697 4328 969 4595 
Q 1241 4863 1831 4863 
L 2375 4863 
z
" transform="scale(0.015625)"/>
       <path id="DejaVuSans-6c" d="M 603 4863 
L 1178 4863 
L 1178 0 
L 603 0 
L 603 4863 
z
" transform="scale(0.015625)"/>
       <path id="DejaVuSans-78" d="M 3513 3500 
L 2247 1797 
L 3578 0 
L 2900 0 
L 1881 1375 
L 863 0 
L 184 0 
L 1544 1831 
L 300 3500 
L 978 3500 
L 1906 2253 
L 2834 3500 
L 3513 3500 
z
" transform="scale(0.015625)"/>
       <path id="DejaVuSans-57" d="M 213 4666 
L 850 4666 
L 1831 722 
L 2809 4666 
L 3519 4666 
L 4500 722 
L 5478 4666 
L 6119 4666 
L 4947 0 
L 4153 0 
L 3169 4050 
L 2175 0 
L 1381 0 
L 213 4666 
z
" transform="scale(0.015625)"/>
       <path id="DejaVuSans-2f" d="M 1625 4666 
L 2156 4666 
L 531 -594 
L 0 -594 
L 1625 4666 
z
" transform="scale(0.015625)"/>
       <path id="DejaVuSans-6d" d="M 3328 2828 
Q 3544 3216 3844 3400 
Q 4144 3584 4550 3584 
Q 5097 3584 5394 3201 
Q 5691 2819 5691 2113 
L 5691 0 
L 5113 0 
L 5113 2094 
Q 5113 2597 4934 2840 
Q 4756 3084 4391 3084 
Q 3944 3084 3684 2787 
Q 3425 2491 3425 1978 
L 3425 0 
L 2847 0 
L 2847 2094 
Q 2847 2600 2669 2842 
Q 2491 3084 2119 3084 
Q 1678 3084 1418 2786 
Q 1159 2488 1159 1978 
L 1159 0 
L 581 0 
L 581 3500 
L 1159 3500 
L 1159 2956 
Q 1356 3278 1631 3431 
Q 1906 3584 2284 3584 
Q 2666 3584 2933 3390 
Q 3200 3197 3328 2828 
z
" transform="scale(0.015625)"/>
      </defs>
      <use xlink:href="#DejaVuSans-48" transform="translate(0 0.765625)"/>
      <use xlink:href="#DejaVuSans-65" transform="translate(75.195312 0.765625)"/>
      <use xlink:href="#DejaVuSans-61" transform="translate(136.71875 0.765625)"/>
      <use xlink:href="#DejaVuSans-74" transform="translate(197.998047 0.765625)"/>
      <use xlink:href="#DejaVuSans-20" transform="translate(237.207031 0.765625)"/>
      <use xlink:href="#DejaVuSans-66" transform="translate(268.994141 0.765625)"/>
      <use xlink:href="#DejaVuSans-6c" transform="translate(304.199219 0.765625)"/>
      <use xlink:href="#DejaVuSans-75" transform="translate(331.982422 0.765625)"/>
      <use xlink:href="#DejaVuSans-78" transform="translate(395.361328 0.765625)"/>
      <use xlink:href="#DejaVuSans-20" transform="translate(454.541016 0.765625)"/>
      <use xlink:href="#DejaVuSans-5b" transform="translate(486.328125 0.765625)"/>
      <use xlink:href="#DejaVuSans-57" transform="translate(525.341797 0.765625)"/>
      <use xlink:href="#DejaVuSans-2f" transform="translate(624.21875 0.765625)"/>
      <use xlink:href="#DejaVuSans-6d" transform="translate(657.910156 0.765625)"/>
      <use xlink:href="#DejaVuSans-32" transform="translate(756.279297 39.046875) scale(0.7)"/>
      <use xlink:href="#DejaVuSans-5d" transform="translate(803.549805 0.765625)"/>
     </g>
    </g>
   </g>
   <g id="line2d_41">
    <path d="M 30.725656 101.678714 
L 35.961053 104.429908 
L 44.294656 109.078668 
L 62.697432 119.457588 
L 69.567993 123.150293 
L 74.40177 125.512267 
L 77.91594 126.993065 
L 80.798994 127.973923 
L 83.309116 128.599223 
L 85.503679 128.922762 
L 87.454402 128.990918 
L 89.218659 128.833953 
L 90.83948 128.469043 
L 92.359897 127.89942 
L 93.822939 127.111473 
L 95.257294 126.083128 
L 96.705993 124.764363 
L 98.183378 123.109942 
L 99.689451 121.08344 
L 101.267242 118.576598 
L 102.945437 115.479874 
L 104.881817 111.418031 
L 107.779214 104.746924 
L 111.393789 96.547763 
L 113.502291 92.319779 
L 115.323922 89.145419 
L 117.002118 86.655054 
L 118.565565 84.720296 
L 120.057294 83.216803 
L 121.505993 82.064753 
L 122.926004 81.212862 
L 124.36036 80.608876 
L 125.837745 80.228328 
L 127.401192 80.05757 
L 129.108075 80.099741 
L 131.015767 80.376004 
L 133.181644 80.921708 
L 135.648734 81.779112 
L 138.46007 82.997832 
L 141.68737 84.647187 
L 145.717907 86.972339 
L 152.430689 91.145043 
L 166.602118 99.958388 
L 174.290262 104.436442 
L 183.283668 109.39093 
L 192.865161 114.445512 
L 198.674299 117.305844 
L 202.088064 118.747042 
L 204.913744 119.703497 
L 207.395178 120.315088 
L 209.589741 120.632855 
L 211.540464 120.695083 
L 213.319065 120.532237 
L 214.99726 120.155941 
L 216.618082 119.562925 
L 218.181529 118.751671 
L 219.673258 117.724743 
L 221.09327 116.475256 
L 222.484594 114.948589 
L 223.875919 113.085278 
L 225.338961 110.744123 
L 226.959782 107.712599 
L 228.910505 103.563816 
L 232.367301 95.568025 
L 235.307729 89.027931 
L 237.3732 84.963654 
L 239.194831 81.852308 
L 240.916058 79.342141 
L 242.565566 77.319272 
L 244.186387 75.676145 
L 245.778521 74.372573 
L 247.370656 73.353893 
L 248.977133 72.589436 
L 250.626642 72.050986 
L 252.347868 71.723578 
L 254.169499 71.604033 
L 256.134566 71.701443 
L 258.243068 72.03165 
L 260.538036 72.619327 
L 263.076844 73.504014 
L 265.931211 74.740693 
L 269.230228 76.420404 
L 273.275109 78.74174 
L 278.61091 82.055006 
L 278.61091 82.055006 
" clip-path="url(#p6f46227ada)" style="fill: none; stroke: #f45050; stroke-width: 0.75; stroke-linecap: square"/>
   </g>
   <g id="line2d_42">
    <path d="M 0 0 
" clip-path="url(#p6f46227ada)" style="fill: none; stroke: #ffa500; stroke-width: 0.75; stroke-linecap: square"/>
   </g>
   <g id="line2d_43">
    <path d="M 30.725656 114.997719 
L 36.649543 115.231381 
L 43.46273 115.729825 
L 50.634506 116.473917 
L 58.982453 117.573615 
L 68.850816 119.115949 
L 78.475339 120.567101 
L 83.16568 121.043922 
L 86.751568 121.193656 
L 89.720683 121.10003 
L 92.331209 120.797568 
L 94.75527 120.293468 
L 97.136299 119.569894 
L 99.488642 118.622608 
L 101.797953 117.451998 
L 104.193326 115.982823 
L 107.234159 113.835493 
L 114.176438 108.85703 
L 117.116866 107.073103 
L 119.813454 105.693069 
L 122.467011 104.583785 
L 125.192285 103.686146 
L 128.161401 102.946134 
L 131.503448 102.346478 
L 135.261459 101.901714 
L 139.363714 101.64299 
L 143.896276 101.584912 
L 149.131673 101.746742 
L 155.385461 102.169456 
L 162.57158 102.880487 
L 170.632656 103.908429 
L 180.716173 105.428157 
L 192.879504 107.497195 
L 202.876959 109.164334 
L 207.352147 109.667242 
L 210.923692 109.853623 
L 214.007555 109.794708 
L 216.962327 109.515536 
L 219.644571 109.044602 
L 221.910852 108.427051 
L 223.990667 107.629311 
L 226.099169 106.576695 
L 228.480199 105.129171 
L 231.936994 102.73459 
L 237.401888 98.969654 
L 240.557469 97.084739 
L 243.555271 95.552285 
L 246.524386 94.283217 
L 249.579563 93.220078 
L 252.821205 92.329832 
L 256.263658 91.616878 
L 259.863889 91.099589 
L 263.650586 90.782385 
L 267.795873 90.663133 
L 272.600962 90.754157 
L 278.266665 91.090597 
L 278.61091 91.117309 
L 278.61091 91.117309 
" clip-path="url(#p6f46227ada)" style="fill: none; stroke-dasharray: 0.75,0.75; stroke-dashoffset: 0; stroke: #f88254; stroke-width: 0.75"/>
   </g>
   <g id="line2d_44">
    <path d="M 0 0 
" clip-path="url(#p6f46227ada)" style="fill: none; stroke-dasharray: 0.75,0.75; stroke-dashoffset: 0; stroke: #ffa500; stroke-width: 0.75"/>
   </g>
   <g id="line2d_45">
    <path d="M 30.725656 106.066098 
L 34.799225 106.343984 
L 39.231382 106.87272 
L 44.022129 107.670529 
L 49.286212 108.777723 
L 55.253129 110.264713 
L 61.67904 112.096874 
L 69.668398 114.622578 
L 82.434159 118.678627 
L 86.694194 119.768615 
L 89.978867 120.387918 
L 92.689798 120.679385 
L 95.042141 120.712926 
L 97.17933 120.522722 
L 99.173083 120.123265 
L 101.080776 119.514636 
L 102.959781 118.679779 
L 104.881817 117.579027 
L 106.990319 116.107378 
L 109.543471 114.038611 
L 113.703101 110.332537 
L 118.694657 105.966936 
L 121.835894 103.518799 
L 124.632887 101.615722 
L 127.315131 100.056669 
L 129.997375 98.754479 
L 132.72265 97.678067 
L 135.533986 96.806724 
L 138.445727 96.138068 
L 141.457873 95.675159 
L 144.627798 95.414651 
L 148.027219 95.361392 
L 151.727855 95.529213 
L 155.78708 95.939481 
L 160.262268 96.61982 
L 165.296855 97.615535 
L 171.005588 98.976763 
L 177.660996 100.799257 
L 185.277422 103.119856 
L 194.615074 106.209323 
L 206.075571 110.000137 
L 210.364293 111.163254 
L 213.691997 111.843265 
L 216.48899 112.193878 
L 218.956081 112.28463 
L 221.150644 112.146992 
L 223.11571 111.804574 
L 224.966029 111.256592 
L 226.78766 110.482297 
L 228.681008 109.429982 
L 230.775167 108.002398 
L 233.342662 105.965779 
L 237.688759 102.179069 
L 242.57991 98.01645 
L 245.979331 95.416738 
L 249.034508 93.354919 
L 251.960592 91.64647 
L 254.843646 90.219307 
L 257.741043 89.032294 
L 260.681471 88.067828 
L 263.679274 87.318172 
L 266.763137 86.776059 
L 269.961749 86.440346 
L 273.31814 86.313566 
L 276.889684 86.403416 
L 278.61091 86.520067 
L 278.61091 86.520067 
" clip-path="url(#p6f46227ada)" style="fill: none; stroke-dasharray: 3.75,0.75; stroke-dashoffset: 0; stroke: #fcb457; stroke-width: 0.75"/>
   </g>
   <g id="line2d_46">
    <path d="M 0 0 
" clip-path="url(#p6f46227ada)" style="fill: none; stroke-dasharray: 3.75,0.75; stroke-dashoffset: 0; stroke: #ffa500; stroke-width: 0.75"/>
   </g>
   <g id="patch_3">
    <path d="M 30.74 175.864572 
L 30.74 10.239375 
" style="fill: none; stroke: #000000; stroke-width: 0.5; stroke-linejoin: miter; stroke-linecap: square"/>
   </g>
   <g id="patch_4">
    <path d="M 278.596567 175.864572 
L 278.596567 10.239375 
" style="fill: none; stroke: #000000; stroke-width: 0.5; stroke-linejoin: miter; stroke-linecap: square"/>
   </g>
   <g id="patch_5">
    <path d="M 30.74 175.864572 
L 278.596567 175.864572 
" style="fill: none; stroke: #000000; stroke-width: 0.5; stroke-linejoin: miter; stroke-linecap: square"/>
   </g>
   <g id="patch_6">
    <path d="M 30.74 10.239375 
L 278.596567 10.239375 
" style="fill: none; stroke: #000000; stroke-width: 0.5; stroke-linejoin: miter; stroke-linecap: square"/>
   </g>
   <g id="text_13">
    <!-- Conductance 0.3 - XPS -->
    <g transform="translate(35.74 21.318125) scale(0.08 -0.08)">
     <defs>
      <path id="DejaVuSans-43" d="M 4122 4306 
L 4122 3641 
Q 3803 3938 3442 4084 
Q 3081 4231 2675 4231 
Q 1875 4231 1450 3742 
Q 1025 3253 1025 2328 
Q 1025 1406 1450 917 
Q 1875 428 2675 428 
Q 3081 428 3442 575 
Q 3803 722 4122 1019 
L 4122 359 
Q 3791 134 3420 21 
Q 3050 -91 2638 -91 
Q 1578 -91 968 557 
Q 359 1206 359 2328 
Q 359 3453 968 4101 
Q 1578 4750 2638 4750 
Q 3056 4750 3426 4639 
Q 3797 4528 4122 4306 
z
" transform="scale(0.015625)"/>
      <path id="DejaVuSans-6e" d="M 3513 2113 
L 3513 0 
L 2938 0 
L 2938 2094 
Q 2938 2591 2744 2837 
Q 2550 3084 2163 3084 
Q 1697 3084 1428 2787 
Q 1159 2491 1159 1978 
L 1159 0 
L 581 0 
L 581 3500 
L 1159 3500 
L 1159 2956 
Q 1366 3272 1645 3428 
Q 1925 3584 2291 3584 
Q 2894 3584 3203 3211 
Q 3513 2838 3513 2113 
z
" transform="scale(0.015625)"/>
      <path id="DejaVuSans-64" d="M 2906 2969 
L 2906 4863 
L 3481 4863 
L 3481 0 
L 2906 0 
L 2906 525 
Q 2725 213 2448 61 
Q 2172 -91 1784 -91 
Q 1150 -91 751 415 
Q 353 922 353 1747 
Q 353 2572 751 3078 
Q 1150 3584 1784 3584 
Q 2172 3584 2448 3432 
Q 2725 3281 2906 2969 
z
M 947 1747 
Q 947 1113 1208 752 
Q 1469 391 1925 391 
Q 2381 391 2643 752 
Q 2906 1113 2906 1747 
Q 2906 2381 2643 2742 
Q 2381 3103 1925 3103 
Q 1469 3103 1208 2742 
Q 947 2381 947 1747 
z
" transform="scale(0.015625)"/>
      <path id="DejaVuSans-63" d="M 3122 3366 
L 3122 2828 
Q 2878 2963 2633 3030 
Q 2388 3097 2138 3097 
Q 1578 3097 1268 2742 
Q 959 2388 959 1747 
Q 959 1106 1268 751 
Q 1578 397 2138 397 
Q 2388 397 2633 464 
Q 2878 531 3122 666 
L 3122 134 
Q 2881 22 2623 -34 
Q 2366 -91 2075 -91 
Q 1284 -91 818 406 
Q 353 903 353 1747 
Q 353 2603 823 3093 
Q 1294 3584 2113 3584 
Q 2378 3584 2631 3529 
Q 2884 3475 3122 3366 
z
" transform="scale(0.015625)"/>
      <path id="DejaVuSans-2e" d="M 684 794 
L 1344 794 
L 1344 0 
L 684 0 
L 684 794 
z
" transform="scale(0.015625)"/>
      <path id="DejaVuSans-33" d="M 2597 2516 
Q 3050 2419 3304 2112 
Q 3559 1806 3559 1356 
Q 3559 666 3084 287 
Q 2609 -91 1734 -91 
Q 1441 -91 1130 -33 
Q 819 25 488 141 
L 488 750 
Q 750 597 1062 519 
Q 1375 441 1716 441 
Q 2309 441 2620 675 
Q 2931 909 2931 1356 
Q 2931 1769 2642 2001 
Q 2353 2234 1838 2234 
L 1294 2234 
L 1294 2753 
L 1863 2753 
Q 2328 2753 2575 2939 
Q 2822 3125 2822 3475 
Q 2822 3834 2567 4026 
Q 2313 4219 1838 4219 
Q 1578 4219 1281 4162 
Q 984 4106 628 3988 
L 628 4550 
Q 988 4650 1302 4700 
Q 1616 4750 1894 4750 
Q 2613 4750 3031 4423 
Q 3450 4097 3450 3541 
Q 3450 3153 3228 2886 
Q 3006 2619 2597 2516 
z
" transform="scale(0.015625)"/>
      <path id="DejaVuSans-2d" d="M 313 2009 
L 1997 2009 
L 1997 1497 
L 313 1497 
L 313 2009 
z
" transform="scale(0.015625)"/>
      <path id="DejaVuSans-58" d="M 403 4666 
L 1081 4666 
L 2241 2931 
L 3406 4666 
L 4084 4666 
L 2584 2425 
L 4184 0 
L 3506 0 
L 2194 1984 
L 872 0 
L 191 0 
L 1856 2491 
L 403 4666 
z
" transform="scale(0.015625)"/>
      <path id="DejaVuSans-50" d="M 1259 4147 
L 1259 2394 
L 2053 2394 
Q 2494 2394 2734 2622 
Q 2975 2850 2975 3272 
Q 2975 3691 2734 3919 
Q 2494 4147 2053 4147 
L 1259 4147 
z
M 628 4666 
L 2053 4666 
Q 2838 4666 3239 4311 
Q 3641 3956 3641 3272 
Q 3641 2581 3239 2228 
Q 2838 1875 2053 1875 
L 1259 1875 
L 1259 0 
L 628 0 
L 628 4666 
z
" transform="scale(0.015625)"/>
      <path id="DejaVuSans-53" d="M 3425 4513 
L 3425 3897 
Q 3066 4069 2747 4153 
Q 2428 4238 2131 4238 
Q 1616 4238 1336 4038 
Q 1056 3838 1056 3469 
Q 1056 3159 1242 3001 
Q 1428 2844 1947 2747 
L 2328 2669 
Q 3034 2534 3370 2195 
Q 3706 1856 3706 1288 
Q 3706 609 3251 259 
Q 2797 -91 1919 -91 
Q 1588 -91 1214 -16 
Q 841 59 441 206 
L 441 856 
Q 825 641 1194 531 
Q 1563 422 1919 422 
Q 2459 422 2753 634 
Q 3047 847 3047 1241 
Q 3047 1584 2836 1778 
Q 2625 1972 2144 2069 
L 1759 2144 
Q 1053 2284 737 2584 
Q 422 2884 422 3419 
Q 422 4038 858 4394 
Q 1294 4750 2059 4750 
Q 2388 4750 2728 4690 
Q 3069 4631 3425 4513 
z
" transform="scale(0.015625)"/>
     </defs>
     <use xlink:href="#DejaVuSans-43"/>
     <use xlink:href="#DejaVuSans-6f" x="69.824219"/>
     <use xlink:href="#DejaVuSans-6e" x="131.005859"/>
     <use xlink:href="#DejaVuSans-64" x="194.384766"/>
     <use xlink:href="#DejaVuSans-75" x="257.861328"/>
     <use xlink:href="#DejaVuSans-63" x="321.240234"/>
     <use xlink:href="#DejaVuSans-74" x="376.220703"/>
     <use xlink:href="#DejaVuSans-61" x="415.429688"/>
     <use xlink:href="#DejaVuSans-6e" x="476.708984"/>
     <use xlink:href="#DejaVuSans-63" x="540.087891"/>
     <use xlink:href="#DejaVuSans-65" x="595.068359"/>
     <use xlink:href="#DejaVuSans-20" x="656.591797"/>
     <use xlink:href="#DejaVuSans-30" x="688.378906"/>
     <use xlink:href="#DejaVuSans-2e" x="752.001953"/>
     <use xlink:href="#DejaVuSans-33" x="783.789062"/>
     <use xlink:href="#DejaVuSans-20" x="847.412109"/>
     <use xlink:href="#DejaVuSans-2d" x="879.199219"/>
     <use xlink:href="#DejaVuSans-20" x="915.283203"/>
     <use xlink:href="#DejaVuSans-58" x="947.070312"/>
     <use xlink:href="#DejaVuSans-50" x="1015.576172"/>
     <use xlink:href="#DejaVuSans-53" x="1075.878906"/>
    </g>
   </g>
   <g id="legend_1">
    <g id="line2d_47">
     <path d="M 151.010317 167.116759 
L 157.010317 167.116759 
L 163.010317 167.116759 
" style="fill: none; stroke: #f45050; stroke-width: 0.75; stroke-linecap: square"/>
    </g>
    <g id="text_14">
     <!-- inside -->
     <g transform="translate(167.810317 169.216759) scale(0.06 -0.06)">
      <defs>
       <path id="DejaVuSans-69" d="M 603 3500 
L 1178 3500 
L 1178 0 
L 603 0 
L 603 3500 
z
M 603 4863 
L 1178 4863 
L 1178 4134 
L 603 4134 
L 603 4863 
z
" transform="scale(0.015625)"/>
      </defs>
      <use xlink:href="#DejaVuSans-69"/>
      <use xlink:href="#DejaVuSans-6e" x="27.783203"/>
      <use xlink:href="#DejaVuSans-73" x="91.162109"/>
      <use xlink:href="#DejaVuSans-69" x="143.261719"/>
      <use xlink:href="#DejaVuSans-64" x="171.044922"/>
      <use xlink:href="#DejaVuSans-65" x="234.521484"/>
     </g>
    </g>
    <g id="line2d_48">
     <path d="M 191.873129 167.116759 
L 197.873129 167.116759 
L 203.873129 167.116759 
" style="fill: none; stroke-dasharray: 0.75,0.75; stroke-dashoffset: 0; stroke: #f88254; stroke-width: 0.75"/>
    </g>
    <g id="text_15">
     <!-- center -->
     <g transform="translate(208.673129 169.216759) scale(0.06 -0.06)">
      <use xlink:href="#DejaVuSans-63"/>
      <use xlink:href="#DejaVuSans-65" x="54.980469"/>
      <use xlink:href="#DejaVuSans-6e" x="116.503906"/>
      <use xlink:href="#DejaVuSans-74" x="179.882812"/>
      <use xlink:href="#DejaVuSans-65" x="219.091797"/>
      <use xlink:href="#DejaVuSans-72" x="280.615234"/>
     </g>
    </g>
    <g id="line2d_49">
     <path d="M 234.277192 167.116759 
L 240.277192 167.116759 
L 246.277192 167.116759 
" style="fill: none; stroke-dasharray: 3.75,0.75; stroke-dashoffset: 0; stroke: #fcb457; stroke-width: 0.75"/>
    </g>
    <g id="text_16">
     <!-- outside -->
     <g transform="translate(251.077192 169.216759) scale(0.06 -0.06)">
      <use xlink:href="#DejaVuSans-6f"/>
      <use xlink:href="#DejaVuSans-75" x="61.181641"/>
      <use xlink:href="#DejaVuSans-74" x="124.560547"/>
      <use xlink:href="#DejaVuSans-73" x="163.769531"/>
      <use xlink:href="#DejaVuSans-69" x="215.869141"/>
      <use xlink:href="#DejaVuSans-64" x="243.652344"/>
      <use xlink:href="#DejaVuSans-65" x="307.128906"/>
     </g>
    </g>
   </g>
  </g>
 </g>
 <defs>
  <clipPath id="p6f46227ada">
   <rect x="30.74" y="10.239375" width="247.856567" height="165.625197"/>
  </clipPath>
 </defs>
</svg>
