<?xml version="1.0" encoding="utf-8" standalone="no"?>
<!DOCTYPE svg PUBLIC "-//W3C//DTD SVG 1.1//EN"
  "http://www.w3.org/Graphics/SVG/1.1/DTD/svg11.dtd">
<svg xmlns:xlink="http://www.w3.org/1999/xlink" width="293.461567pt" height="208.517384pt" viewBox="0 0 293.461567 208.517384" xmlns="http://www.w3.org/2000/svg" version="1.1">
 <metadata>
  <rdf:RDF xmlns:dc="http://purl.org/dc/elements/1.1/" xmlns:cc="http://creativecommons.org/ns#" xmlns:rdf="http://www.w3.org/1999/02/22-rdf-syntax-ns#">
   <cc:Work>
    <dc:type rdf:resource="http://purl.org/dc/dcmitype/StillImage"/>
    <dc:date>2023-05-16T15:44:58.635614</dc:date>
    <dc:format>image/svg+xml</dc:format>
    <dc:creator>
     <cc:Agent>
      <dc:title>Matplotlib v3.7.0, https://matplotlib.org/</dc:title>
     </cc:Agent>
    </dc:creator>
   </cc:Work>
  </rdf:RDF>
 </metadata>
 <defs>
  <style type="text/css">*{stroke-linejoin: round; stroke-linecap: butt}</style>
 </defs>
 <g id="figure_1">
  <g id="patch_1">
   <path d="M 0 208.517384 
L 293.461567 208.517384 
L 293.461567 0 
L 0 0 
L 0 208.517384 
z
" style="fill: none"/>
  </g>
  <g id="axes_1">
   <g id="patch_2">
    <path d="M 46.01 175.864572 
L 278.626567 175.864572 
L 278.626567 10.239375 
L 46.01 10.239375 
L 46.01 175.864572 
z
" style="fill: none"/>
   </g>
   <g id="matplotlib.axis_1">
    <g id="xtick_1">
     <g id="line2d_1">
      <path d="M 46.01 175.864572 
L 46.01 10.239375 
" clip-path="url(#pf94006f887)" style="fill: none; stroke-dasharray: 0.5,0.825; stroke-dashoffset: 0; stroke: #404040; stroke-opacity: 0.2; stroke-width: 0.5"/>
     </g>
     <g id="line2d_2">
      <defs>
       <path id="mdd43409a16" d="M 0 0 
L 0 -3.5 
" style="stroke: #000000; stroke-width: 0.5"/>
      </defs>
      <g>
       <use xlink:href="#mdd43409a16" x="46.01" y="175.864572" style="stroke: #000000; stroke-width: 0.5"/>
      </g>
     </g>
     <g id="text_1">
      <!-- 0 -->
      <g transform="translate(43.465 186.943322) scale(0.08 -0.08)">
       <defs>
        <path id="DejaVuSans-30" d="M 2034 4250 
Q 1547 4250 1301 3770 
Q 1056 3291 1056 2328 
Q 1056 1369 1301 889 
Q 1547 409 2034 409 
Q 2525 409 2770 889 
Q 3016 1369 3016 2328 
Q 3016 3291 2770 3770 
Q 2525 4250 2034 4250 
z
M 2034 4750 
Q 2819 4750 3233 4129 
Q 3647 3509 3647 2328 
Q 3647 1150 3233 529 
Q 2819 -91 2034 -91 
Q 1250 -91 836 529 
Q 422 1150 422 2328 
Q 422 3509 836 4129 
Q 1250 4750 2034 4750 
z
" transform="scale(0.015625)"/>
       </defs>
       <use xlink:href="#DejaVuSans-30"/>
      </g>
     </g>
    </g>
    <g id="xtick_2">
     <g id="line2d_3">
      <path d="M 92.533313 175.864572 
L 92.533313 10.239375 
" clip-path="url(#pf94006f887)" style="fill: none; stroke-dasharray: 0.5,0.825; stroke-dashoffset: 0; stroke: #404040; stroke-opacity: 0.2; stroke-width: 0.5"/>
     </g>
     <g id="line2d_4">
      <g>
       <use xlink:href="#mdd43409a16" x="92.533313" y="175.864572" style="stroke: #000000; stroke-width: 0.5"/>
      </g>
     </g>
     <g id="text_2">
      <!-- 24 -->
      <g transform="translate(87.443313 186.943322) scale(0.08 -0.08)">
       <defs>
        <path id="DejaVuSans-32" d="M 1228 531 
L 3431 531 
L 3431 0 
L 469 0 
L 469 531 
Q 828 903 1448 1529 
Q 2069 2156 2228 2338 
Q 2531 2678 2651 2914 
Q 2772 3150 2772 3378 
Q 2772 3750 2511 3984 
Q 2250 4219 1831 4219 
Q 1534 4219 1204 4116 
Q 875 4013 500 3803 
L 500 4441 
Q 881 4594 1212 4672 
Q 1544 4750 1819 4750 
Q 2544 4750 2975 4387 
Q 3406 4025 3406 3419 
Q 3406 3131 3298 2873 
Q 3191 2616 2906 2266 
Q 2828 2175 2409 1742 
Q 1991 1309 1228 531 
z
" transform="scale(0.015625)"/>
        <path id="DejaVuSans-34" d="M 2419 4116 
L 825 1625 
L 2419 1625 
L 2419 4116 
z
M 2253 4666 
L 3047 4666 
L 3047 1625 
L 3713 1625 
L 3713 1100 
L 3047 1100 
L 3047 0 
L 2419 0 
L 2419 1100 
L 313 1100 
L 313 1709 
L 2253 4666 
z
" transform="scale(0.015625)"/>
       </defs>
       <use xlink:href="#DejaVuSans-32"/>
       <use xlink:href="#DejaVuSans-34" x="63.623047"/>
      </g>
     </g>
    </g>
    <g id="xtick_3">
     <g id="line2d_5">
      <path d="M 139.056627 175.864572 
L 139.056627 10.239375 
" clip-path="url(#pf94006f887)" style="fill: none; stroke-dasharray: 0.5,0.825; stroke-dashoffset: 0; stroke: #404040; stroke-opacity: 0.2; stroke-width: 0.5"/>
     </g>
     <g id="line2d_6">
      <g>
       <use xlink:href="#mdd43409a16" x="139.056627" y="175.864572" style="stroke: #000000; stroke-width: 0.5"/>
      </g>
     </g>
     <g id="text_3">
      <!-- 48 -->
      <g transform="translate(133.966627 186.943322) scale(0.08 -0.08)">
       <defs>
        <path id="DejaVuSans-38" d="M 2034 2216 
Q 1584 2216 1326 1975 
Q 1069 1734 1069 1313 
Q 1069 891 1326 650 
Q 1584 409 2034 409 
Q 2484 409 2743 651 
Q 3003 894 3003 1313 
Q 3003 1734 2745 1975 
Q 2488 2216 2034 2216 
z
M 1403 2484 
Q 997 2584 770 2862 
Q 544 3141 544 3541 
Q 544 4100 942 4425 
Q 1341 4750 2034 4750 
Q 2731 4750 3128 4425 
Q 3525 4100 3525 3541 
Q 3525 3141 3298 2862 
Q 3072 2584 2669 2484 
Q 3125 2378 3379 2068 
Q 3634 1759 3634 1313 
Q 3634 634 3220 271 
Q 2806 -91 2034 -91 
Q 1263 -91 848 271 
Q 434 634 434 1313 
Q 434 1759 690 2068 
Q 947 2378 1403 2484 
z
M 1172 3481 
Q 1172 3119 1398 2916 
Q 1625 2713 2034 2713 
Q 2441 2713 2670 2916 
Q 2900 3119 2900 3481 
Q 2900 3844 2670 4047 
Q 2441 4250 2034 4250 
Q 1625 4250 1398 4047 
Q 1172 3844 1172 3481 
z
" transform="scale(0.015625)"/>
       </defs>
       <use xlink:href="#DejaVuSans-34"/>
       <use xlink:href="#DejaVuSans-38" x="63.623047"/>
      </g>
     </g>
    </g>
    <g id="xtick_4">
     <g id="line2d_7">
      <path d="M 185.57994 175.864572 
L 185.57994 10.239375 
" clip-path="url(#pf94006f887)" style="fill: none; stroke-dasharray: 0.5,0.825; stroke-dashoffset: 0; stroke: #404040; stroke-opacity: 0.2; stroke-width: 0.5"/>
     </g>
     <g id="line2d_8">
      <g>
       <use xlink:href="#mdd43409a16" x="185.57994" y="175.864572" style="stroke: #000000; stroke-width: 0.5"/>
      </g>
     </g>
     <g id="text_4">
      <!-- 72 -->
      <g transform="translate(180.48994 186.943322) scale(0.08 -0.08)">
       <defs>
        <path id="DejaVuSans-37" d="M 525 4666 
L 3525 4666 
L 3525 4397 
L 1831 0 
L 1172 0 
L 2766 4134 
L 525 4134 
L 525 4666 
z
" transform="scale(0.015625)"/>
       </defs>
       <use xlink:href="#DejaVuSans-37"/>
       <use xlink:href="#DejaVuSans-32" x="63.623047"/>
      </g>
     </g>
    </g>
    <g id="xtick_5">
     <g id="line2d_9">
      <path d="M 232.103254 175.864572 
L 232.103254 10.239375 
" clip-path="url(#pf94006f887)" style="fill: none; stroke-dasharray: 0.5,0.825; stroke-dashoffset: 0; stroke: #404040; stroke-opacity: 0.2; stroke-width: 0.5"/>
     </g>
     <g id="line2d_10">
      <g>
       <use xlink:href="#mdd43409a16" x="232.103254" y="175.864572" style="stroke: #000000; stroke-width: 0.5"/>
      </g>
     </g>
     <g id="text_5">
      <!-- 96 -->
      <g transform="translate(227.013254 186.943322) scale(0.08 -0.08)">
       <defs>
        <path id="DejaVuSans-39" d="M 703 97 
L 703 672 
Q 941 559 1184 500 
Q 1428 441 1663 441 
Q 2288 441 2617 861 
Q 2947 1281 2994 2138 
Q 2813 1869 2534 1725 
Q 2256 1581 1919 1581 
Q 1219 1581 811 2004 
Q 403 2428 403 3163 
Q 403 3881 828 4315 
Q 1253 4750 1959 4750 
Q 2769 4750 3195 4129 
Q 3622 3509 3622 2328 
Q 3622 1225 3098 567 
Q 2575 -91 1691 -91 
Q 1453 -91 1209 -44 
Q 966 3 703 97 
z
M 1959 2075 
Q 2384 2075 2632 2365 
Q 2881 2656 2881 3163 
Q 2881 3666 2632 3958 
Q 2384 4250 1959 4250 
Q 1534 4250 1286 3958 
Q 1038 3666 1038 3163 
Q 1038 2656 1286 2365 
Q 1534 2075 1959 2075 
z
" transform="scale(0.015625)"/>
        <path id="DejaVuSans-36" d="M 2113 2584 
Q 1688 2584 1439 2293 
Q 1191 2003 1191 1497 
Q 1191 994 1439 701 
Q 1688 409 2113 409 
Q 2538 409 2786 701 
Q 3034 994 3034 1497 
Q 3034 2003 2786 2293 
Q 2538 2584 2113 2584 
z
M 3366 4563 
L 3366 3988 
Q 3128 4100 2886 4159 
Q 2644 4219 2406 4219 
Q 1781 4219 1451 3797 
Q 1122 3375 1075 2522 
Q 1259 2794 1537 2939 
Q 1816 3084 2150 3084 
Q 2853 3084 3261 2657 
Q 3669 2231 3669 1497 
Q 3669 778 3244 343 
Q 2819 -91 2113 -91 
Q 1303 -91 875 529 
Q 447 1150 447 2328 
Q 447 3434 972 4092 
Q 1497 4750 2381 4750 
Q 2619 4750 2861 4703 
Q 3103 4656 3366 4563 
z
" transform="scale(0.015625)"/>
       </defs>
       <use xlink:href="#DejaVuSans-39"/>
       <use xlink:href="#DejaVuSans-36" x="63.623047"/>
      </g>
     </g>
    </g>
    <g id="xtick_6">
     <g id="line2d_11">
      <path d="M 278.626567 175.864572 
L 278.626567 10.239375 
" clip-path="url(#pf94006f887)" style="fill: none; stroke-dasharray: 0.5,0.825; stroke-dashoffset: 0; stroke: #404040; stroke-opacity: 0.2; stroke-width: 0.5"/>
     </g>
     <g id="line2d_12">
      <g>
       <use xlink:href="#mdd43409a16" x="278.626567" y="175.864572" style="stroke: #000000; stroke-width: 0.5"/>
      </g>
     </g>
     <g id="text_6">
      <!-- 120 -->
      <g transform="translate(270.991567 186.943322) scale(0.08 -0.08)">
       <defs>
        <path id="DejaVuSans-31" d="M 794 531 
L 1825 531 
L 1825 4091 
L 703 3866 
L 703 4441 
L 1819 4666 
L 2450 4666 
L 2450 531 
L 3481 531 
L 3481 0 
L 794 0 
L 794 531 
z
" transform="scale(0.015625)"/>
       </defs>
       <use xlink:href="#DejaVuSans-31"/>
       <use xlink:href="#DejaVuSans-32" x="63.623047"/>
       <use xlink:href="#DejaVuSans-30" x="127.246094"/>
      </g>
     </g>
    </g>
    <g id="xtick_7">
     <g id="line2d_13">
      <defs>
       <path id="mc58966e1c8" d="M 0 0 
L 0 -2 
" style="stroke: #000000; stroke-width: 0.25"/>
      </defs>
      <g>
       <use xlink:href="#mc58966e1c8" x="69.271657" y="175.864572" style="stroke: #000000; stroke-width: 0.25"/>
      </g>
     </g>
    </g>
    <g id="xtick_8">
     <g id="line2d_14">
      <g>
       <use xlink:href="#mc58966e1c8" x="115.79497" y="175.864572" style="stroke: #000000; stroke-width: 0.25"/>
      </g>
     </g>
    </g>
    <g id="xtick_9">
     <g id="line2d_15">
      <g>
       <use xlink:href="#mc58966e1c8" x="162.318283" y="175.864572" style="stroke: #000000; stroke-width: 0.25"/>
      </g>
     </g>
    </g>
    <g id="xtick_10">
     <g id="line2d_16">
      <g>
       <use xlink:href="#mc58966e1c8" x="208.841597" y="175.864572" style="stroke: #000000; stroke-width: 0.25"/>
      </g>
     </g>
    </g>
    <g id="xtick_11">
     <g id="line2d_17">
      <g>
       <use xlink:href="#mc58966e1c8" x="255.36491" y="175.864572" style="stroke: #000000; stroke-width: 0.25"/>
      </g>
     </g>
    </g>
    <g id="text_7">
     <!-- Hour [s] -->
     <g transform="translate(144.193127 199.445666) scale(0.09 -0.09)">
      <defs>
       <path id="DejaVuSans-48" d="M 628 4666 
L 1259 4666 
L 1259 2753 
L 3553 2753 
L 3553 4666 
L 4184 4666 
L 4184 0 
L 3553 0 
L 3553 2222 
L 1259 2222 
L 1259 0 
L 628 0 
L 628 4666 
z
" transform="scale(0.015625)"/>
       <path id="DejaVuSans-6f" d="M 1959 3097 
Q 1497 3097 1228 2736 
Q 959 2375 959 1747 
Q 959 1119 1226 758 
Q 1494 397 1959 397 
Q 2419 397 2687 759 
Q 2956 1122 2956 1747 
Q 2956 2369 2687 2733 
Q 2419 3097 1959 3097 
z
M 1959 3584 
Q 2709 3584 3137 3096 
Q 3566 2609 3566 1747 
Q 3566 888 3137 398 
Q 2709 -91 1959 -91 
Q 1206 -91 779 398 
Q 353 888 353 1747 
Q 353 2609 779 3096 
Q 1206 3584 1959 3584 
z
" transform="scale(0.015625)"/>
       <path id="DejaVuSans-75" d="M 544 1381 
L 544 3500 
L 1119 3500 
L 1119 1403 
Q 1119 906 1312 657 
Q 1506 409 1894 409 
Q 2359 409 2629 706 
Q 2900 1003 2900 1516 
L 2900 3500 
L 3475 3500 
L 3475 0 
L 2900 0 
L 2900 538 
Q 2691 219 2414 64 
Q 2138 -91 1772 -91 
Q 1169 -91 856 284 
Q 544 659 544 1381 
z
M 1991 3584 
L 1991 3584 
z
" transform="scale(0.015625)"/>
       <path id="DejaVuSans-72" d="M 2631 2963 
Q 2534 3019 2420 3045 
Q 2306 3072 2169 3072 
Q 1681 3072 1420 2755 
Q 1159 2438 1159 1844 
L 1159 0 
L 581 0 
L 581 3500 
L 1159 3500 
L 1159 2956 
Q 1341 3275 1631 3429 
Q 1922 3584 2338 3584 
Q 2397 3584 2469 3576 
Q 2541 3569 2628 3553 
L 2631 2963 
z
" transform="scale(0.015625)"/>
       <path id="DejaVuSans-20" transform="scale(0.015625)"/>
       <path id="DejaVuSans-5b" d="M 550 4863 
L 1875 4863 
L 1875 4416 
L 1125 4416 
L 1125 -397 
L 1875 -397 
L 1875 -844 
L 550 -844 
L 550 4863 
z
" transform="scale(0.015625)"/>
       <path id="DejaVuSans-73" d="M 2834 3397 
L 2834 2853 
Q 2591 2978 2328 3040 
Q 2066 3103 1784 3103 
Q 1356 3103 1142 2972 
Q 928 2841 928 2578 
Q 928 2378 1081 2264 
Q 1234 2150 1697 2047 
L 1894 2003 
Q 2506 1872 2764 1633 
Q 3022 1394 3022 966 
Q 3022 478 2636 193 
Q 2250 -91 1575 -91 
Q 1294 -91 989 -36 
Q 684 19 347 128 
L 347 722 
Q 666 556 975 473 
Q 1284 391 1588 391 
Q 1994 391 2212 530 
Q 2431 669 2431 922 
Q 2431 1156 2273 1281 
Q 2116 1406 1581 1522 
L 1381 1569 
Q 847 1681 609 1914 
Q 372 2147 372 2553 
Q 372 3047 722 3315 
Q 1072 3584 1716 3584 
Q 2034 3584 2315 3537 
Q 2597 3491 2834 3397 
z
" transform="scale(0.015625)"/>
       <path id="DejaVuSans-5d" d="M 1947 4863 
L 1947 -844 
L 622 -844 
L 622 -397 
L 1369 -397 
L 1369 4416 
L 622 4416 
L 622 4863 
L 1947 4863 
z
" transform="scale(0.015625)"/>
      </defs>
      <use xlink:href="#DejaVuSans-48"/>
      <use xlink:href="#DejaVuSans-6f" x="75.195312"/>
      <use xlink:href="#DejaVuSans-75" x="136.376953"/>
      <use xlink:href="#DejaVuSans-72" x="199.755859"/>
      <use xlink:href="#DejaVuSans-20" x="240.869141"/>
      <use xlink:href="#DejaVuSans-5b" x="272.65625"/>
      <use xlink:href="#DejaVuSans-73" x="311.669922"/>
      <use xlink:href="#DejaVuSans-5d" x="363.769531"/>
     </g>
    </g>
   </g>
   <g id="matplotlib.axis_2">
    <g id="ytick_1">
     <g id="line2d_18">
      <path d="M 46.01 175.864572 
L 278.626567 175.864572 
" clip-path="url(#pf94006f887)" style="fill: none; stroke-dasharray: 0.5,0.825; stroke-dashoffset: 0; stroke: #404040; stroke-opacity: 0.2; stroke-width: 0.5"/>
     </g>
     <g id="line2d_19">
      <defs>
       <path id="m064f021de3" d="M 0 0 
L 3.5 0 
" style="stroke: #000000; stroke-width: 0.5"/>
      </defs>
      <g>
       <use xlink:href="#m064f021de3" x="46.01" y="175.864572" style="stroke: #000000; stroke-width: 0.5"/>
      </g>
     </g>
     <g id="text_8">
      <!-- 0 -->
      <g transform="translate(35.92 178.903947) scale(0.08 -0.08)">
       <use xlink:href="#DejaVuSans-30"/>
      </g>
     </g>
    </g>
    <g id="ytick_2">
     <g id="line2d_20">
      <path d="M 46.01 120.656173 
L 278.626567 120.656173 
" clip-path="url(#pf94006f887)" style="fill: none; stroke-dasharray: 0.5,0.825; stroke-dashoffset: 0; stroke: #404040; stroke-opacity: 0.2; stroke-width: 0.5"/>
     </g>
     <g id="line2d_21">
      <g>
       <use xlink:href="#m064f021de3" x="46.01" y="120.656173" style="stroke: #000000; stroke-width: 0.5"/>
      </g>
     </g>
     <g id="text_9">
      <!-- 400 -->
      <g transform="translate(25.74 123.695548) scale(0.08 -0.08)">
       <use xlink:href="#DejaVuSans-34"/>
       <use xlink:href="#DejaVuSans-30" x="63.623047"/>
       <use xlink:href="#DejaVuSans-30" x="127.246094"/>
      </g>
     </g>
    </g>
    <g id="ytick_3">
     <g id="line2d_22">
      <path d="M 46.01 65.447774 
L 278.626567 65.447774 
" clip-path="url(#pf94006f887)" style="fill: none; stroke-dasharray: 0.5,0.825; stroke-dashoffset: 0; stroke: #404040; stroke-opacity: 0.2; stroke-width: 0.5"/>
     </g>
     <g id="line2d_23">
      <g>
       <use xlink:href="#m064f021de3" x="46.01" y="65.447774" style="stroke: #000000; stroke-width: 0.5"/>
      </g>
     </g>
     <g id="text_10">
      <!-- 800 -->
      <g transform="translate(25.74 68.487149) scale(0.08 -0.08)">
       <use xlink:href="#DejaVuSans-38"/>
       <use xlink:href="#DejaVuSans-30" x="63.623047"/>
       <use xlink:href="#DejaVuSans-30" x="127.246094"/>
      </g>
     </g>
    </g>
    <g id="ytick_4">
     <g id="line2d_24">
      <path d="M 46.01 10.239375 
L 278.626567 10.239375 
" clip-path="url(#pf94006f887)" style="fill: none; stroke-dasharray: 0.5,0.825; stroke-dashoffset: 0; stroke: #404040; stroke-opacity: 0.2; stroke-width: 0.5"/>
     </g>
     <g id="line2d_25">
      <g>
       <use xlink:href="#m064f021de3" x="46.01" y="10.239375" style="stroke: #000000; stroke-width: 0.5"/>
      </g>
     </g>
     <g id="text_11">
      <!-- 1200 -->
      <g transform="translate(20.65 13.27875) scale(0.08 -0.08)">
       <use xlink:href="#DejaVuSans-31"/>
       <use xlink:href="#DejaVuSans-32" x="63.623047"/>
       <use xlink:href="#DejaVuSans-30" x="127.246094"/>
       <use xlink:href="#DejaVuSans-30" x="190.869141"/>
      </g>
     </g>
    </g>
    <g id="ytick_5">
     <g id="line2d_26">
      <defs>
       <path id="mad7afc5432" d="M 0 0 
L 2 0 
" style="stroke: #000000; stroke-width: 0.25"/>
      </defs>
      <g>
       <use xlink:href="#mad7afc5432" x="46.01" y="164.822892" style="stroke: #000000; stroke-width: 0.25"/>
      </g>
     </g>
    </g>
    <g id="ytick_6">
     <g id="line2d_27">
      <g>
       <use xlink:href="#mad7afc5432" x="46.01" y="153.781212" style="stroke: #000000; stroke-width: 0.25"/>
      </g>
     </g>
    </g>
    <g id="ytick_7">
     <g id="line2d_28">
      <g>
       <use xlink:href="#mad7afc5432" x="46.01" y="142.739532" style="stroke: #000000; stroke-width: 0.25"/>
      </g>
     </g>
    </g>
    <g id="ytick_8">
     <g id="line2d_29">
      <g>
       <use xlink:href="#mad7afc5432" x="46.01" y="131.697853" style="stroke: #000000; stroke-width: 0.25"/>
      </g>
     </g>
    </g>
    <g id="ytick_9">
     <g id="line2d_30">
      <g>
       <use xlink:href="#mad7afc5432" x="46.01" y="109.614493" style="stroke: #000000; stroke-width: 0.25"/>
      </g>
     </g>
    </g>
    <g id="ytick_10">
     <g id="line2d_31">
      <g>
       <use xlink:href="#mad7afc5432" x="46.01" y="98.572813" style="stroke: #000000; stroke-width: 0.25"/>
      </g>
     </g>
    </g>
    <g id="ytick_11">
     <g id="line2d_32">
      <g>
       <use xlink:href="#mad7afc5432" x="46.01" y="87.531134" style="stroke: #000000; stroke-width: 0.25"/>
      </g>
     </g>
    </g>
    <g id="ytick_12">
     <g id="line2d_33">
      <g>
       <use xlink:href="#mad7afc5432" x="46.01" y="76.489454" style="stroke: #000000; stroke-width: 0.25"/>
      </g>
     </g>
    </g>
    <g id="ytick_13">
     <g id="line2d_34">
      <g>
       <use xlink:href="#mad7afc5432" x="46.01" y="54.406094" style="stroke: #000000; stroke-width: 0.25"/>
      </g>
     </g>
    </g>
    <g id="ytick_14">
     <g id="line2d_35">
      <g>
       <use xlink:href="#mad7afc5432" x="46.01" y="43.364414" style="stroke: #000000; stroke-width: 0.25"/>
      </g>
     </g>
    </g>
    <g id="ytick_15">
     <g id="line2d_36">
      <g>
       <use xlink:href="#mad7afc5432" x="46.01" y="32.322735" style="stroke: #000000; stroke-width: 0.25"/>
      </g>
     </g>
    </g>
    <g id="ytick_16">
     <g id="line2d_37">
      <g>
       <use xlink:href="#mad7afc5432" x="46.01" y="21.281055" style="stroke: #000000; stroke-width: 0.25"/>
      </g>
     </g>
    </g>
    <g id="text_12">
     <!-- Heat flux $\mathrm{[W/m^2]}$ -->
     <g transform="translate(14.778281 130.986973) rotate(-90) scale(0.09 -0.09)">
      <defs>
       <path id="DejaVuSans-65" d="M 3597 1894 
L 3597 1613 
L 953 1613 
Q 991 1019 1311 708 
Q 1631 397 2203 397 
Q 2534 397 2845 478 
Q 3156 559 3463 722 
L 3463 178 
Q 3153 47 2828 -22 
Q 2503 -91 2169 -91 
Q 1331 -91 842 396 
Q 353 884 353 1716 
Q 353 2575 817 3079 
Q 1281 3584 2069 3584 
Q 2775 3584 3186 3129 
Q 3597 2675 3597 1894 
z
M 3022 2063 
Q 3016 2534 2758 2815 
Q 2500 3097 2075 3097 
Q 1594 3097 1305 2825 
Q 1016 2553 972 2059 
L 3022 2063 
z
" transform="scale(0.015625)"/>
       <path id="DejaVuSans-61" d="M 2194 1759 
Q 1497 1759 1228 1600 
Q 959 1441 959 1056 
Q 959 750 1161 570 
Q 1363 391 1709 391 
Q 2188 391 2477 730 
Q 2766 1069 2766 1631 
L 2766 1759 
L 2194 1759 
z
M 3341 1997 
L 3341 0 
L 2766 0 
L 2766 531 
Q 2569 213 2275 61 
Q 1981 -91 1556 -91 
Q 1019 -91 701 211 
Q 384 513 384 1019 
Q 384 1609 779 1909 
Q 1175 2209 1959 2209 
L 2766 2209 
L 2766 2266 
Q 2766 2663 2505 2880 
Q 2244 3097 1772 3097 
Q 1472 3097 1187 3025 
Q 903 2953 641 2809 
L 641 3341 
Q 956 3463 1253 3523 
Q 1550 3584 1831 3584 
Q 2591 3584 2966 3190 
Q 3341 2797 3341 1997 
z
" transform="scale(0.015625)"/>
       <path id="DejaVuSans-74" d="M 1172 4494 
L 1172 3500 
L 2356 3500 
L 2356 3053 
L 1172 3053 
L 1172 1153 
Q 1172 725 1289 603 
Q 1406 481 1766 481 
L 2356 481 
L 2356 0 
L 1766 0 
Q 1100 0 847 248 
Q 594 497 594 1153 
L 594 3053 
L 172 3053 
L 172 3500 
L 594 3500 
L 594 4494 
L 1172 4494 
z
" transform="scale(0.015625)"/>
       <path id="DejaVuSans-66" d="M 2375 4863 
L 2375 4384 
L 1825 4384 
Q 1516 4384 1395 4259 
Q 1275 4134 1275 3809 
L 1275 3500 
L 2222 3500 
L 2222 3053 
L 1275 3053 
L 1275 0 
L 697 0 
L 697 3053 
L 147 3053 
L 147 3500 
L 697 3500 
L 697 3744 
Q 697 4328 969 4595 
Q 1241 4863 1831 4863 
L 2375 4863 
z
" transform="scale(0.015625)"/>
       <path id="DejaVuSans-6c" d="M 603 4863 
L 1178 4863 
L 1178 0 
L 603 0 
L 603 4863 
z
" transform="scale(0.015625)"/>
       <path id="DejaVuSans-78" d="M 3513 3500 
L 2247 1797 
L 3578 0 
L 2900 0 
L 1881 1375 
L 863 0 
L 184 0 
L 1544 1831 
L 300 3500 
L 978 3500 
L 1906 2253 
L 2834 3500 
L 3513 3500 
z
" transform="scale(0.015625)"/>
       <path id="DejaVuSans-57" d="M 213 4666 
L 850 4666 
L 1831 722 
L 2809 4666 
L 3519 4666 
L 4500 722 
L 5478 4666 
L 6119 4666 
L 4947 0 
L 4153 0 
L 3169 4050 
L 2175 0 
L 1381 0 
L 213 4666 
z
" transform="scale(0.015625)"/>
       <path id="DejaVuSans-2f" d="M 1625 4666 
L 2156 4666 
L 531 -594 
L 0 -594 
L 1625 4666 
z
" transform="scale(0.015625)"/>
       <path id="DejaVuSans-6d" d="M 3328 2828 
Q 3544 3216 3844 3400 
Q 4144 3584 4550 3584 
Q 5097 3584 5394 3201 
Q 5691 2819 5691 2113 
L 5691 0 
L 5113 0 
L 5113 2094 
Q 5113 2597 4934 2840 
Q 4756 3084 4391 3084 
Q 3944 3084 3684 2787 
Q 3425 2491 3425 1978 
L 3425 0 
L 2847 0 
L 2847 2094 
Q 2847 2600 2669 2842 
Q 2491 3084 2119 3084 
Q 1678 3084 1418 2786 
Q 1159 2488 1159 1978 
L 1159 0 
L 581 0 
L 581 3500 
L 1159 3500 
L 1159 2956 
Q 1356 3278 1631 3431 
Q 1906 3584 2284 3584 
Q 2666 3584 2933 3390 
Q 3200 3197 3328 2828 
z
" transform="scale(0.015625)"/>
      </defs>
      <use xlink:href="#DejaVuSans-48" transform="translate(0 0.765625)"/>
      <use xlink:href="#DejaVuSans-65" transform="translate(75.195312 0.765625)"/>
      <use xlink:href="#DejaVuSans-61" transform="translate(136.71875 0.765625)"/>
      <use xlink:href="#DejaVuSans-74" transform="translate(197.998047 0.765625)"/>
      <use xlink:href="#DejaVuSans-20" transform="translate(237.207031 0.765625)"/>
      <use xlink:href="#DejaVuSans-66" transform="translate(268.994141 0.765625)"/>
      <use xlink:href="#DejaVuSans-6c" transform="translate(304.199219 0.765625)"/>
      <use xlink:href="#DejaVuSans-75" transform="translate(331.982422 0.765625)"/>
      <use xlink:href="#DejaVuSans-78" transform="translate(395.361328 0.765625)"/>
      <use xlink:href="#DejaVuSans-20" transform="translate(454.541016 0.765625)"/>
      <use xlink:href="#DejaVuSans-5b" transform="translate(486.328125 0.765625)"/>
      <use xlink:href="#DejaVuSans-57" transform="translate(525.341797 0.765625)"/>
      <use xlink:href="#DejaVuSans-2f" transform="translate(624.21875 0.765625)"/>
      <use xlink:href="#DejaVuSans-6d" transform="translate(657.910156 0.765625)"/>
      <use xlink:href="#DejaVuSans-32" transform="translate(756.279297 39.046875) scale(0.7)"/>
      <use xlink:href="#DejaVuSans-5d" transform="translate(803.549805 0.765625)"/>
     </g>
    </g>
   </g>
   <g id="line2d_38">
    <path d="M 46.01 175.864572 
L 55.793896 175.755535 
L 56.779286 174.586497 
L 58.67468 172.336755 
L 59.584684 171.246389 
L 61.410078 165.108596 
L 61.717003 164.470939 
L 63.04701 162.628358 
L 63.467012 161.943774 
L 65.394714 140.591926 
L 65.44856 140.794817 
L 67.40857 147.891856 
L 69.29858 148.457742 
L 71.210128 162.44617 
L 71.32859 162.258462 
L 73.148599 159.379344 
L 73.256292 159.48562 
L 75.092456 161.290935 
L 75.130148 161.253669 
L 77.025542 159.379344 
L 77.047081 159.430412 
L 79.082476 164.400548 
L 81.020947 170.951024 
L 82.571724 171.870244 
L 83.368651 172.343656 
L 84.790197 173.195246 
L 86.114819 175.029545 
L 86.906362 175.864572 
L 102.317209 175.755535 
L 103.302599 174.586497 
L 104.535682 172.82949 
L 106.129536 169.325137 
L 108.041085 140.591926 
L 108.154162 140.838983 
L 109.979556 144.809847 
L 110.049556 144.477217 
L 111.993412 134.996555 
L 114.906504 110.960198 
L 115.79497 103.403548 
L 115.854201 103.625762 
L 117.733441 110.688296 
L 117.744211 110.453661 
L 119.671913 68.514601 
L 119.752683 68.993533 
L 121.691154 81.550684 
L 123.548856 116.82195 
L 123.63501 116.311272 
L 125.487327 105.32066 
L 125.541173 105.693317 
L 127.501183 120.006094 
L 129.606579 153.771551 
L 131.469665 171.309879 
L 133.365059 175.864572 
L 148.824369 175.759676 
L 150.579762 173.330506 
L 150.730532 172.908162 
L 154.946708 145.171462 
L 156.626716 129.057511 
L 158.500572 122.429743 
L 160.552121 105.022535 
L 162.318283 98.035912 
L 162.329053 98.146328 
L 164.256755 117.973045 
L 164.337524 117.621091 
L 166.265227 108.735299 
L 168.133698 87.300638 
L 168.187544 87.844441 
L 170.330632 110.38189 
L 172.145256 133.574938 
L 173.389109 136.034472 
L 173.976035 137.472651 
L 176.172969 162.606275 
L 177.998363 172.720454 
L 179.877603 175.864572 
L 195.347682 175.759676 
L 197.103076 173.330506 
L 197.248461 172.905402 
L 199.472318 155.545121 
L 201.324636 134.403064 
L 203.306184 103.701674 
L 207.123896 66.622333 
L 208.900828 60.320294 
L 210.780068 43.594909 
L 210.866223 43.645977 
L 212.417 44.565197 
L 212.734694 44.939234 
L 214.920859 72.619345 
L 217.957797 122.119195 
L 218.824725 133.768168 
L 220.655503 150.098812 
L 222.43782 156.903247 
L 224.510907 171.998604 
L 226.303993 175.864572 
L 241.870995 175.759676 
L 243.626389 173.330506 
L 243.782544 172.89298 
L 245.758708 160.60497 
L 248.165643 129.627538 
L 250.044883 104.238575 
L 251.487967 87.684337 
L 251.584891 87.742306 
L 253.135668 88.661525 
L 253.426439 88.834052 
L 255.521065 53.205311 
L 257.367997 44.744624 
L 259.258007 44.853661 
L 261.352633 59.551517 
L 265.197268 101.124822 
L 267.480356 134.266423 
L 269.128057 160.298564 
L 271.050375 172.382302 
L 272.870384 175.864572 
L 278.631952 175.864572 
L 278.631952 175.864572 
" clip-path="url(#pf94006f887)" style="fill: none; stroke-dasharray: 3.75,0.75; stroke-dashoffset: 0; stroke: #f45050; stroke-width: 0.75"/>
   </g>
   <g id="line2d_39">
    <path d="M 0 0 
" clip-path="url(#pf94006f887)" style="fill: none; stroke-dasharray: 3.75,0.75; stroke-dashoffset: 0; stroke: #ffa500; stroke-width: 0.75"/>
   </g>
   <g id="line2d_40">
    <path d="M 46.01 175.864572 
L 63.063164 175.77251 
L 63.203164 175.668034 
L 63.386242 175.553418 
L 63.531628 175.40749 
L 63.677013 175.241231 
L 63.827783 175.010129 
L 63.935476 174.842062 
L 64.086246 174.543522 
L 64.161631 174.400613 
L 64.312401 174.037412 
L 64.387786 173.864915 
L 64.538556 173.431339 
L 64.613941 173.226822 
L 64.764711 172.716771 
L 64.840096 172.477532 
L 64.985481 171.892112 
L 65.066251 171.607571 
L 65.211636 170.933351 
L 65.292406 170.606693 
L 65.427022 169.936643 
L 65.432406 169.940135 
L 65.453945 169.953868 
L 65.45933 169.85194 
L 65.486253 169.869471 
L 65.588561 169.511306 
L 65.6101 169.526283 
L 65.615484 169.530091 
L 65.620869 169.4257 
L 65.647792 169.444546 
L 65.7501 169.081526 
L 65.771639 169.097802 
L 65.777024 169.101664 
L 65.782408 168.995053 
L 65.809331 169.015521 
L 65.91164 168.647488 
L 65.933178 168.664823 
L 65.938563 168.669306 
L 65.943947 168.560187 
L 65.970871 168.582349 
L 66.073179 168.209387 
L 66.094717 168.228115 
L 66.100102 168.232959 
L 66.105487 168.121298 
L 66.13241 168.145229 
L 66.234718 167.767084 
L 66.256257 167.787616 
L 66.261641 167.792836 
L 66.267026 167.678246 
L 66.293949 167.704379 
L 66.396257 167.321486 
L 66.417796 167.343565 
L 66.423181 167.349178 
L 66.428565 167.231956 
L 66.455489 167.260047 
L 66.557797 166.872549 
L 66.579335 166.896245 
L 66.58472 166.901868 
L 66.590105 166.782389 
L 66.617028 166.812119 
L 66.719336 166.420613 
L 66.740875 166.445999 
L 66.746259 166.452023 
L 66.751644 166.329902 
L 66.778567 166.361741 
L 66.880875 165.966104 
L 66.902414 165.992796 
L 66.907799 165.999699 
L 66.913183 165.874938 
L 66.940106 165.908982 
L 67.042415 165.50956 
L 67.063953 165.538066 
L 67.069338 165.545438 
L 67.074722 165.418064 
L 67.101646 165.454411 
L 67.203954 165.051145 
L 67.225492 165.082071 
L 67.230877 165.089933 
L 67.236262 164.959473 
L 67.263185 164.998757 
L 67.397801 164.406717 
L 67.424724 164.408978 
L 67.55934 163.693201 
L 67.586264 163.695004 
L 67.72088 162.95011 
L 67.747803 162.952664 
L 67.882419 162.178052 
L 67.909342 162.180762 
L 68.043958 161.37763 
L 68.070881 161.380502 
L 68.205497 160.550203 
L 68.232421 160.553243 
L 68.367037 159.698122 
L 68.39396 159.701335 
L 68.528576 158.825856 
L 68.555499 158.828398 
L 68.690115 157.936967 
L 68.717038 157.940538 
L 68.851655 157.039406 
L 68.878578 157.04316 
L 69.013194 156.142597 
L 69.040117 156.146535 
L 69.174733 155.258531 
L 69.201656 155.262649 
L 69.271657 154.74043 
L 69.320118 154.839262 
L 69.336272 154.76052 
L 69.427811 154.954036 
L 69.433196 154.824044 
L 69.524735 155.051533 
L 69.535504 154.965681 
L 69.718582 155.386956 
L 69.723967 155.294526 
L 69.815506 155.628033 
L 69.82089 155.551048 
L 69.907045 155.888519 
L 69.917814 155.860108 
L 70.267816 157.452606 
L 70.2732 157.446476 
L 70.294739 157.589407 
L 71.403975 164.371469 
L 71.40936 164.363379 
L 71.430898 164.33564 
L 71.468591 164.434911 
L 71.495514 164.400687 
L 71.597822 164.588741 
L 71.619361 164.562124 
L 71.624746 164.55436 
L 71.662438 164.676834 
L 71.689361 164.642968 
L 71.79167 164.872549 
L 71.813208 164.846098 
L 71.818593 164.83975 
L 71.823977 164.925145 
L 71.850901 164.892619 
L 71.953209 165.148223 
L 71.974747 165.122887 
L 71.980132 165.116806 
L 71.985517 165.206852 
L 72.01244 165.175716 
L 72.114748 165.451035 
L 72.136287 165.426838 
L 72.141671 165.42103 
L 72.147056 165.514222 
L 72.173979 165.484501 
L 72.276287 165.774003 
L 72.297826 165.750953 
L 72.303211 165.74542 
L 72.308595 165.840473 
L 72.335518 165.812174 
L 72.437827 166.11029 
L 72.459365 166.089256 
L 72.46475 166.083998 
L 72.470134 166.178982 
L 72.497058 166.152095 
L 72.599366 166.456743 
L 72.620904 166.435957 
L 72.626289 166.430968 
L 72.631674 166.526775 
L 72.658597 166.501275 
L 72.760905 166.808429 
L 72.782444 166.788742 
L 72.787828 166.784017 
L 72.793213 166.879102 
L 72.820136 166.854958 
L 72.922444 167.16217 
L 72.943983 167.143552 
L 72.949368 167.139083 
L 72.954752 167.232937 
L 72.981676 167.210109 
L 73.083984 167.515498 
L 73.105522 167.497914 
L 73.110907 167.493694 
L 73.116292 167.58594 
L 73.143215 167.564387 
L 73.283216 168.096323 
L 73.337062 168.213322 
L 73.477063 168.720697 
L 73.530909 168.829979 
L 73.67091 169.307115 
L 73.724756 169.409551 
L 73.864757 169.856891 
L 73.918603 169.952766 
L 74.058604 170.371653 
L 74.112451 170.461289 
L 74.252451 170.852746 
L 74.306298 170.936929 
L 74.446298 171.302957 
L 74.500145 171.38154 
L 74.640146 171.723647 
L 74.693992 171.796961 
L 74.833993 172.116605 
L 74.920147 172.247035 
L 75.060148 172.542226 
L 75.146302 172.636585 
L 75.280918 172.855919 
L 75.372457 172.934384 
L 75.507073 173.145674 
L 75.598612 173.22183 
L 75.733228 173.425154 
L 75.824767 173.499283 
L 75.959383 173.69515 
L 76.050922 173.767053 
L 76.185538 173.95568 
L 76.277077 174.025392 
L 76.411693 174.206952 
L 76.503232 174.274494 
L 76.637848 174.449113 
L 76.761695 174.548051 
L 76.896311 174.714836 
L 77.020158 174.809719 
L 77.160158 174.992917 
L 77.27862 175.100657 
L 77.418621 175.261931 
L 77.569391 175.384506 
L 77.709392 175.52195 
L 77.860162 175.624826 
L 78.000163 175.740417 
L 78.18324 175.845196 
L 78.301703 175.864572 
L 109.457246 175.756144 
L 109.591862 175.52124 
L 109.683401 175.425885 
L 109.818017 175.179103 
L 109.909556 175.080025 
L 110.044172 174.806679 
L 110.114172 174.682619 
L 110.168018 174.615368 
L 110.308019 174.28588 
L 110.361866 174.210553 
L 110.501866 173.846618 
L 110.555713 173.762741 
L 110.695713 173.362167 
L 110.74956 173.269233 
L 110.889561 172.829911 
L 110.943407 172.727382 
L 111.083408 172.247111 
L 111.137254 172.134417 
L 111.277255 171.610426 
L 111.331101 171.48695 
L 111.471102 170.916653 
L 111.524948 170.781734 
L 111.664949 170.162408 
L 111.718796 170.015342 
L 111.858796 169.343445 
L 111.912643 169.183465 
L 112.058028 168.365997 
L 112.10649 168.165312 
L 112.251875 167.265274 
L 112.300337 167.045117 
L 112.445722 166.059881 
L 112.494184 165.818929 
L 112.639569 164.74246 
L 112.688031 164.479291 
L 112.833417 163.305109 
L 112.881878 163.018574 
L 113.027264 161.739383 
L 113.075725 161.427529 
L 113.221111 160.036314 
L 113.269573 159.697433 
L 113.414958 158.186933 
L 113.46342 157.818774 
L 113.608805 156.180558 
L 113.657267 155.781717 
L 113.802652 154.007682 
L 113.851114 153.576313 
L 113.996499 151.635118 
L 114.044961 151.160861 
L 114.190347 149.063528 
L 114.238808 148.552916 
L 114.384194 146.294065 
L 114.432655 145.744442 
L 114.578041 143.319496 
L 114.626503 142.731337 
L 114.771888 140.138921 
L 114.82035 139.510663 
L 114.965735 136.754787 
L 115.014197 136.08819 
L 115.159582 133.177051 
L 115.208044 132.475604 
L 115.353429 129.428748 
L 115.401891 128.695403 
L 115.547277 125.543053 
L 115.595738 124.787072 
L 115.741124 121.573712 
L 115.789585 120.803691 
L 115.891894 119.256691 
L 115.913432 119.320629 
L 115.918817 119.335801 
L 116.021125 117.939219 
L 116.042664 118.003972 
L 116.048048 118.020719 
L 116.150357 116.748567 
L 116.171895 116.815103 
L 116.17728 116.83231 
L 116.279588 115.708749 
L 116.301126 115.778095 
L 116.306511 115.795725 
L 116.311896 115.475795 
L 116.338819 115.563258 
L 116.441127 114.66233 
L 116.462666 114.733494 
L 116.46805 114.751587 
L 116.473435 114.49038 
L 116.500358 114.580043 
L 116.602666 113.938391 
L 116.61882 113.99256 
L 116.62959 114.028262 
L 116.634974 113.835861 
L 116.661898 113.926039 
L 116.764206 113.575352 
L 116.78036 113.63032 
L 116.791129 113.666548 
L 116.828821 113.537677 
L 116.888053 113.634251 
L 116.893437 113.563292 
L 116.984976 113.744924 
L 116.990361 113.721729 
L 117.308055 115.144455 
L 117.474979 116.607198 
L 117.53421 117.003159 
L 117.679595 118.65578 
L 117.728057 119.082586 
L 117.733441 119.37875 
L 117.819596 118.358434 
L 117.830365 118.47545 
L 117.98652 117.011499 
L 117.991904 117.294514 
L 118.083443 116.453472 
L 118.088828 116.772675 
L 118.244983 115.823115 
L 118.250367 116.196771 
L 118.341906 115.612722 
L 118.352675 115.925929 
L 118.379599 115.98098 
L 118.471138 115.513354 
L 118.573446 116.0233 
L 118.584215 115.855049 
L 118.600369 115.60366 
L 118.670369 116.192628 
L 118.697293 115.78449 
L 118.799601 116.555339 
L 118.81037 116.397868 
L 118.826524 116.162587 
L 118.864216 116.790862 
L 118.89114 116.404884 
L 118.993448 117.358238 
L 119.009602 117.13584 
L 119.020371 116.987575 
L 119.058064 117.686298 
L 119.084987 117.324083 
L 119.187295 118.423955 
L 119.203449 118.215122 
L 119.214218 118.076718 
L 119.251911 118.830204 
L 119.278834 118.489554 
L 119.381142 119.708291 
L 119.397296 119.512648 
L 119.408065 119.38222 
L 119.445758 120.177364 
L 119.472681 119.859207 
L 119.574989 121.170694 
L 119.591143 120.987784 
L 119.601913 120.866561 
L 119.639605 121.69189 
L 119.666528 121.394627 
L 119.806529 124.790812 
L 119.828068 124.852339 
L 119.968068 128.159969 
L 119.989607 128.217959 
L 120.129607 131.364421 
L 120.151146 131.418424 
L 120.291147 134.406746 
L 120.312685 134.458074 
L 120.452686 137.293124 
L 120.474225 137.340806 
L 120.614225 140.028323 
L 120.635764 140.073527 
L 120.775765 142.619646 
L 120.797303 142.661525 
L 120.937304 145.072656 
L 120.958842 145.112243 
L 121.098843 147.394369 
L 121.120382 147.431326 
L 121.254998 149.583067 
L 121.281921 149.626022 
L 121.416537 151.661848 
L 121.44346 151.701797 
L 121.578076 153.628278 
L 121.605 153.665028 
L 121.750385 155.892639 
L 121.798847 156.399556 
L 121.938847 158.425491 
L 121.992694 158.906783 
L 122.132695 160.749732 
L 122.186541 161.186283 
L 122.326542 162.858426 
L 122.380388 163.25352 
L 122.520389 164.766119 
L 122.574235 165.122126 
L 122.714236 166.485658 
L 122.768082 166.804845 
L 122.908083 168.029067 
L 122.96193 168.314054 
L 123.10193 169.408024 
L 123.155777 169.660774 
L 123.295777 170.632968 
L 123.349624 170.855379 
L 123.489625 171.713759 
L 123.543471 171.907946 
L 123.678087 172.471497 
L 123.70501 172.462414 
L 123.839626 173.00633 
L 123.898857 173.104999 
L 124.033473 173.635437 
L 124.092705 173.73337 
L 124.227321 174.249496 
L 124.286552 174.346452 
L 124.421168 174.847242 
L 124.480399 174.942928 
L 124.615015 175.427423 
L 124.674246 175.521477 
L 124.803477 175.864572 
L 155.883635 175.808137 
L 156.023636 175.506551 
L 156.077483 175.439067 
L 156.217483 175.089195 
L 156.27133 175.0093 
L 156.41133 174.607884 
L 156.465177 174.514765 
L 156.605178 174.084645 
L 156.659024 173.99311 
L 156.79364 173.535258 
L 156.852871 173.434478 
L 156.992872 172.937901 
L 157.046718 172.829315 
L 157.186719 172.293133 
L 157.240565 172.17535 
L 157.380566 171.597583 
L 157.434412 171.470131 
L 157.574413 170.848633 
L 157.595952 170.841294 
L 157.735952 170.181572 
L 157.757491 170.173501 
L 157.897492 169.473839 
L 157.91903 169.464687 
L 158.059031 168.72321 
L 158.08057 168.713281 
L 158.22057 167.927808 
L 158.242109 167.916889 
L 158.38211 167.08569 
L 158.403648 167.073507 
L 158.543649 166.091328 
L 158.597495 165.836769 
L 158.737496 164.727059 
L 158.791342 164.448997 
L 158.931343 163.240347 
L 158.98519 162.937234 
L 159.12519 161.62282 
L 159.179037 161.293 
L 159.319037 159.865507 
L 159.372884 159.507213 
L 159.512885 157.958844 
L 159.566731 157.570199 
L 159.706732 155.892704 
L 159.760578 155.471732 
L 159.900579 153.656477 
L 159.954425 153.20112 
L 160.094426 151.239209 
L 160.148272 150.747363 
L 160.288273 148.629848 
L 160.34212 148.099409 
L 160.48212 146.031169 
L 160.503659 145.995575 
L 160.64366 143.8972 
L 160.665198 143.859402 
L 160.805199 141.655086 
L 160.826737 141.614339 
L 160.966738 139.302264 
L 160.988277 139.259098 
L 161.128277 136.839702 
L 161.149816 136.794031 
L 161.289817 134.269985 
L 161.311355 134.221729 
L 161.451356 131.598652 
L 161.472895 131.547737 
L 161.612895 128.835053 
L 161.634434 128.78142 
L 161.774435 125.993326 
L 161.795973 125.936934 
L 161.935974 123.093451 
L 161.957512 123.034278 
L 162.097513 120.162286 
L 162.119052 120.100346 
L 162.259052 117.234469 
L 162.280591 117.16981 
L 162.382899 115.658089 
L 162.404438 115.830394 
L 162.409822 115.87347 
L 162.415207 115.454439 
L 162.44213 115.672565 
L 162.544438 114.739295 
L 162.560592 114.874499 
L 162.571362 114.963889 
L 162.609054 114.4448 
L 162.635977 114.671349 
L 162.738286 113.993218 
L 162.75444 114.132623 
L 162.765209 114.22556 
L 162.802901 113.841324 
L 162.829825 114.077533 
L 162.932133 113.699832 
L 162.942902 113.795811 
L 162.964441 113.699937 
L 163.05598 113.98725 
L 163.061364 113.787318 
L 163.152903 114.167882 
L 163.163672 114.060517 
L 163.379058 115.133587 
L 163.384443 115.084011 
L 163.443674 115.552014 
L 163.449058 115.531885 
L 163.475982 115.784723 
L 163.481366 115.77989 
L 163.992907 121.464652 
L 164.170601 124.231675 
L 164.676757 128.088743 
L 164.698296 128.014765 
L 164.70368 127.995994 
L 164.709065 128.327119 
L 164.735988 128.233951 
L 164.838296 129.335504 
L 164.859835 129.26323 
L 164.865219 129.245162 
L 164.870604 129.600993 
L 164.897527 129.511375 
L 164.999836 130.709323 
L 165.021374 130.63999 
L 165.026759 130.622657 
L 165.129067 131.877931 
L 165.150606 131.811007 
L 165.15599 131.794276 
L 165.258298 133.090961 
L 165.279837 133.026472 
L 165.285222 133.010349 
L 165.38753 134.337237 
L 165.409068 134.275186 
L 165.414453 134.259674 
L 165.516761 135.603582 
L 165.5383 135.543958 
L 165.543684 135.529052 
L 165.645993 136.882191 
L 165.667531 136.824968 
L 165.672916 136.810662 
L 165.775224 138.164149 
L 165.796763 138.10929 
L 165.802147 138.095575 
L 165.904456 139.442111 
L 165.925994 139.38957 
L 165.931379 139.376434 
L 166.033687 140.712346 
L 166.055226 140.662072 
L 166.06061 140.649503 
L 166.162918 141.969126 
L 166.184457 141.921062 
L 166.189842 141.909045 
L 166.29215 142.873003 
L 166.308304 142.782525 
L 166.319073 142.721756 
L 166.324458 143.072811 
L 166.351381 142.92397 
L 166.453689 143.886294 
L 166.475228 143.772277 
L 166.480612 143.74425 
L 166.485997 144.092927 
L 166.51292 143.951921 
L 166.615228 144.92846 
L 166.636767 144.82103 
L 166.642152 144.794023 
L 166.647536 145.139387 
L 166.674459 145.00656 
L 166.776768 145.992405 
L 166.798306 145.891304 
L 166.803691 145.865888 
L 166.809076 146.207777 
L 166.835999 146.082806 
L 166.938307 147.074461 
L 166.959846 146.979434 
L 166.96523 146.955544 
L 166.970615 147.292295 
L 166.997538 147.17486 
L 167.099846 148.169542 
L 167.121385 148.080338 
L 167.126769 148.057912 
L 167.132154 148.38969 
L 167.159077 148.279974 
L 167.261386 149.274906 
L 167.282924 149.191283 
L 167.288309 149.170728 
L 167.293693 149.497239 
L 167.320617 149.393955 
L 167.422925 150.388241 
L 167.444463 150.309965 
L 167.449848 150.290287 
L 167.455233 150.611336 
L 167.482156 150.514686 
L 167.584464 151.506334 
L 167.606003 151.43318 
L 167.611387 151.41479 
L 167.616772 151.730644 
L 167.643695 151.640349 
L 167.746003 152.628077 
L 167.767542 152.559829 
L 167.772927 152.542672 
L 167.778311 152.852434 
L 167.805234 152.768225 
L 167.907543 153.750999 
L 167.929081 153.687449 
L 167.934466 153.671472 
L 167.93985 153.975501 
L 167.966774 153.89747 
L 168.069082 154.874035 
L 168.09062 154.814985 
L 168.096005 154.80047 
L 168.10139 155.098733 
L 168.128313 155.025937 
L 168.268314 156.839848 
L 168.289852 156.887422 
L 168.429853 158.613842 
L 168.451392 158.657524 
L 168.591392 160.275205 
L 168.612931 160.315702 
L 168.752932 161.830297 
L 168.77447 161.867241 
L 168.914471 163.284104 
L 168.936009 163.318105 
L 169.07601 164.642221 
L 169.097549 164.67298 
L 169.237549 165.909064 
L 169.259088 165.937103 
L 169.399089 167.089543 
L 169.420627 167.114628 
L 169.560628 168.187722 
L 169.582167 168.210151 
L 169.722167 169.207484 
L 169.743706 169.227497 
L 169.883707 170.15287 
L 169.905245 170.170324 
L 170.045246 171.027201 
L 170.066784 171.042427 
L 170.206785 171.862579 
L 170.260632 172.038675 
L 170.400632 172.773489 
L 170.454479 172.928674 
L 170.594479 173.581899 
L 170.648326 173.717472 
L 170.782942 174.292199 
L 170.842173 174.411194 
L 170.976789 174.914807 
L 171.03602 175.015785 
L 171.170636 175.452734 
L 171.229867 175.536802 
L 171.359099 175.840385 
L 171.477561 175.864572 
L 202.342333 175.809851 
L 202.482334 175.377858 
L 202.53618 175.280443 
L 202.676181 174.774115 
L 202.730027 174.657465 
L 202.870028 174.0716 
L 202.923874 173.934386 
L 203.063875 173.272785 
L 203.085414 173.264889 
L 203.225414 172.564887 
L 203.246953 172.554995 
L 203.386954 171.794825 
L 203.408492 171.78297 
L 203.548493 170.959795 
L 203.570032 170.945813 
L 203.710032 170.05663 
L 203.731571 170.040315 
L 203.871572 169.081934 
L 203.89311 169.063393 
L 204.033111 168.032468 
L 204.054649 168.011353 
L 204.19465 166.904305 
L 204.216189 166.880778 
L 204.356189 165.693838 
L 204.377728 165.667649 
L 204.517729 164.396604 
L 204.539267 164.367635 
L 204.679268 163.008558 
L 204.700807 162.976688 
L 204.840807 161.524845 
L 204.862346 161.48972 
L 205.002347 159.937514 
L 205.023885 159.897973 
L 205.163886 158.234581 
L 205.185424 158.191346 
L 205.325425 156.417691 
L 205.346964 156.37115 
L 205.486964 154.480967 
L 205.508503 154.430696 
L 205.648504 152.418259 
L 205.670042 152.363758 
L 205.810043 150.222069 
L 205.831582 150.163481 
L 205.971582 147.885513 
L 205.993121 147.823051 
L 206.133122 145.40149 
L 206.15466 145.334188 
L 206.294661 142.761403 
L 206.316199 142.689456 
L 206.4562 139.957657 
L 206.477739 139.881341 
L 206.617739 136.982188 
L 206.639278 136.900849 
L 206.779279 133.827566 
L 206.800817 133.740449 
L 206.940818 130.59381 
L 206.962357 130.563899 
L 207.102357 127.558998 
L 207.123896 127.52663 
L 207.263897 124.383412 
L 207.285435 124.349735 
L 207.425436 121.067413 
L 207.446974 121.031057 
L 207.586975 117.610997 
L 207.608514 117.573262 
L 207.748514 114.01913 
L 207.770053 113.979265 
L 207.910054 110.300866 
L 207.931592 110.258001 
L 208.071593 106.467896 
L 208.093132 106.423595 
L 208.233132 102.541414 
L 208.254671 102.493936 
L 208.394672 98.546822 
L 208.41621 98.497937 
L 208.550826 94.534858 
L 208.577749 94.469893 
L 208.712365 90.524806 
L 208.739289 90.457989 
L 208.879289 86.412472 
L 208.933136 85.347665 
L 209.073136 81.001768 
L 209.126983 79.964858 
L 209.266984 75.862339 
L 209.32083 74.880276 
L 209.460831 71.158176 
L 209.514677 70.260293 
L 209.660063 67.017534 
L 209.740832 65.685858 
L 209.886218 63.218301 
L 210.451605 59.294643 
L 210.553913 59.798314 
L 210.570067 59.67041 
L 210.580836 59.584321 
L 210.618529 60.102702 
L 210.645452 59.891431 
L 210.74776 61.016733 
L 210.769299 60.849791 
L 210.774684 60.807755 
L 210.806991 61.319001 
L 210.946992 64.377401 
L 210.968531 64.389043 
L 211.103147 67.861854 
L 211.13007 67.874269 
L 211.264686 71.669135 
L 211.291609 71.682211 
L 211.426225 75.708209 
L 211.453149 75.720787 
L 211.587765 79.898952 
L 211.614688 79.910008 
L 211.749304 84.169084 
L 211.776227 84.180616 
L 211.910843 88.461988 
L 211.937766 88.472072 
L 212.072383 92.728568 
L 212.099306 92.739039 
L 212.233922 96.933798 
L 212.260845 96.942918 
L 212.395461 101.04827 
L 212.422384 101.057706 
L 212.557 105.053577 
L 212.583924 105.06177 
L 212.71854 108.934463 
L 212.745463 109.100027 
L 212.885464 113.608139 
L 212.907002 113.733263 
L 213.047003 118.010718 
L 213.068541 118.128776 
L 213.208542 122.179232 
L 213.230081 122.290488 
L 213.370081 126.119826 
L 213.39162 126.224546 
L 213.531621 129.840148 
L 213.553159 129.939117 
L 213.69316 133.348789 
L 213.714699 133.441706 
L 213.854699 136.654861 
L 213.876238 136.741974 
L 214.016239 139.767687 
L 214.037777 139.849238 
L 214.177778 142.696577 
L 214.199316 142.772798 
L 214.339317 145.45067 
L 214.360856 145.521782 
L 214.500856 148.038821 
L 214.522395 148.105039 
L 214.662396 150.476048 
L 214.716242 151.065983 
L 214.856243 153.402298 
L 214.910089 153.943789 
L 215.05009 156.089246 
L 215.103936 156.585263 
L 215.243937 158.551805 
L 215.297784 159.005371 
L 215.437784 160.804618 
L 215.491631 161.218058 
L 215.631631 162.860563 
L 215.685478 163.236298 
L 215.825479 164.731878 
L 215.879325 165.072171 
L 216.019326 166.429964 
L 216.073172 166.736932 
L 216.213173 167.965454 
L 216.267019 168.24095 
L 216.40702 169.34829 
L 216.460866 169.594329 
L 216.600867 170.587206 
L 216.654713 170.799695 
L 216.794714 171.674247 
L 216.848561 171.862419 
L 216.988561 172.642151 
L 217.042408 172.807364 
L 217.182408 173.498055 
L 217.236255 173.641646 
L 217.370871 174.246659 
L 217.430102 174.372183 
L 217.564718 174.899663 
L 217.623949 175.00541 
L 217.758565 175.460304 
L 217.817796 175.547551 
L 217.947028 175.861362 
L 218.167798 175.864572 
L 248.833339 175.758124 
L 248.973339 175.344815 
L 249.027186 175.251989 
L 249.167186 174.7716 
L 249.221033 174.661548 
L 249.361034 174.109556 
L 249.41488 173.981131 
L 249.554881 173.35335 
L 249.608727 173.211373 
L 249.748728 172.522262 
L 249.770266 172.51016 
L 249.910267 171.757574 
L 249.931806 171.743096 
L 250.071806 170.92373 
L 250.093345 170.906761 
L 250.233346 170.017473 
L 250.254884 169.997895 
L 250.394885 169.034986 
L 250.416424 169.01268 
L 250.556424 167.972556 
L 250.577963 167.947396 
L 250.717964 166.826315 
L 250.739502 166.798173 
L 250.879503 165.591706 
L 250.901041 165.56045 
L 251.041042 164.264548 
L 251.062581 164.230042 
L 251.202581 162.839686 
L 251.22412 162.801787 
L 251.364121 161.31221 
L 251.385659 161.270771 
L 251.520275 159.75942 
L 251.52566 159.759924 
L 251.547199 159.762446 
L 251.681815 158.403645 
L 251.708738 158.406929 
L 251.843354 156.992035 
L 251.870277 156.995292 
L 252.004893 155.521689 
L 252.031816 155.525523 
L 252.166432 153.990759 
L 252.193356 153.994543 
L 252.327972 152.396008 
L 252.354895 152.400441 
L 252.489511 150.735487 
L 252.516434 150.739843 
L 252.65105 149.005717 
L 252.677974 149.010801 
L 252.81259 147.204804 
L 252.839513 147.209783 
L 252.974129 145.329233 
L 253.001052 145.335026 
L 253.135668 143.376954 
L 253.162591 143.383125 
L 253.297207 141.346339 
L 253.324131 141.352355 
L 253.464131 138.941192 
L 253.517978 138.084637 
L 253.663363 134.605597 
L 253.711825 133.722992 
L 253.85721 129.958755 
L 253.905672 129.006717 
L 254.051057 124.947862 
L 254.099519 123.924408 
L 254.244905 119.56675 
L 254.293366 118.47103 
L 254.438752 113.814825 
L 254.487213 112.647626 
L 254.632599 107.704847 
L 254.681061 106.469273 
L 254.826446 101.264121 
L 254.874908 99.966369 
L 255.020293 94.539932 
L 255.068755 93.191131 
L 255.21414 87.605508 
L 255.29491 85.043852 
L 255.434911 80.186331 
L 255.456449 80.106395 
L 255.59645 76.105621 
L 255.617988 76.022797 
L 255.757989 72.265748 
L 255.779528 72.180268 
L 255.919528 68.754385 
L 255.941067 68.666552 
L 256.081068 65.666162 
L 256.134914 65.016937 
L 256.274915 62.640213 
L 256.328761 62.125422 
L 256.468762 60.480739 
L 256.813379 58.945243 
L 256.910303 59.055783 
L 257.012611 59.697837 
L 257.034149 59.606387 
L 257.039534 59.582906 
L 257.044919 59.895636 
L 257.071842 59.781036 
L 257.17415 60.937306 
L 257.195689 60.847363 
L 257.201073 60.825485 
L 257.206458 61.258528 
L 257.233381 61.147151 
L 257.367997 63.462557 
L 257.394921 63.462557 
L 257.529537 66.537071 
L 257.55646 66.537071 
L 257.691076 69.989223 
L 257.717999 69.989223 
L 257.852615 73.730274 
L 257.879538 73.730274 
L 258.014154 77.677151 
L 258.041078 77.677151 
L 258.175694 81.755553 
L 258.202617 81.755553 
L 258.337233 85.90158 
L 258.364156 85.90158 
L 258.498772 90.062159 
L 258.525696 90.062159 
L 258.660312 94.19462 
L 258.687235 94.19462 
L 258.821851 98.265738 
L 258.848774 98.265738 
L 258.98339 102.25051 
L 259.010313 102.25051 
L 259.144929 106.130853 
L 259.171853 106.130853 
L 259.306469 110.113091 
L 259.333392 110.204061 
L 259.473393 114.273211 
L 259.494931 114.342103 
L 259.634932 118.228506 
L 259.656471 118.29352 
L 259.796471 121.998654 
L 259.81801 122.059933 
L 259.958011 125.587285 
L 259.979549 125.644973 
L 260.11955 128.999431 
L 260.141088 129.05367 
L 260.281089 132.241054 
L 260.302628 132.291983 
L 260.437244 135.306857 
L 260.464167 135.366436 
L 260.598783 138.228067 
L 260.625706 138.283848 
L 260.760322 140.998991 
L 260.787245 141.051129 
L 260.921862 143.626492 
L 260.948785 143.675138 
L 261.083401 146.117278 
L 261.110324 146.162576 
L 261.250325 148.544334 
L 261.271863 148.596061 
L 261.411864 150.900176 
L 261.433403 150.947823 
L 261.573403 153.11904 
L 261.594942 153.16336 
L 261.734943 155.208247 
L 261.756481 155.249091 
L 261.896482 157.173865 
L 261.91802 157.211145 
L 262.058021 159.021893 
L 262.07956 159.055998 
L 262.21956 160.757773 
L 262.241099 160.78903 
L 262.3811 162.38721 
L 262.402638 162.415359 
L 262.542639 163.914969 
L 262.564178 163.940325 
L 262.704178 165.345583 
L 262.725717 165.368407 
L 262.860333 166.678716 
L 262.887256 166.703995 
L 263.021872 167.929015 
L 263.048795 167.951109 
L 263.183412 169.098156 
L 263.210335 169.118859 
L 263.344951 170.190023 
L 263.371874 170.20771 
L 263.50649 171.201901 
L 263.533413 171.216712 
L 263.668029 172.137344 
L 263.694953 172.149414 
L 263.829569 172.999681 
L 263.856492 173.009142 
L 263.991108 173.791941 
L 264.018031 173.798924 
L 264.152647 174.517165 
L 264.17957 174.521798 
L 264.314186 175.178214 
L 264.34111 175.180635 
L 264.475726 175.777833 
L 278.631952 175.864572 
L 278.631952 175.864572 
" clip-path="url(#pf94006f887)" style="fill: none; stroke: #f88254; stroke-width: 0.75; stroke-linecap: square"/>
   </g>
   <g id="line2d_41">
    <path d="M 0 0 
" clip-path="url(#pf94006f887)" style="fill: none; stroke: #ffa500; stroke-width: 0.75; stroke-linecap: square"/>
   </g>
   <g id="patch_3">
    <path d="M 46.01 175.864572 
L 46.01 10.239375 
" style="fill: none; stroke: #000000; stroke-width: 0.5; stroke-linejoin: miter; stroke-linecap: square"/>
   </g>
   <g id="patch_4">
    <path d="M 278.626567 175.864572 
L 278.626567 10.239375 
" style="fill: none; stroke: #000000; stroke-width: 0.5; stroke-linejoin: miter; stroke-linecap: square"/>
   </g>
   <g id="patch_5">
    <path d="M 46.01 175.864572 
L 278.626567 175.864572 
" style="fill: none; stroke: #000000; stroke-width: 0.5; stroke-linejoin: miter; stroke-linecap: square"/>
   </g>
   <g id="patch_6">
    <path d="M 46.01 10.239375 
L 278.626567 10.239375 
" style="fill: none; stroke: #000000; stroke-width: 0.5; stroke-linejoin: miter; stroke-linecap: square"/>
   </g>
   <g id="text_13">
    <!-- Summer -->
    <g transform="translate(51.01 21.318125) scale(0.08 -0.08)">
     <defs>
      <path id="DejaVuSans-53" d="M 3425 4513 
L 3425 3897 
Q 3066 4069 2747 4153 
Q 2428 4238 2131 4238 
Q 1616 4238 1336 4038 
Q 1056 3838 1056 3469 
Q 1056 3159 1242 3001 
Q 1428 2844 1947 2747 
L 2328 2669 
Q 3034 2534 3370 2195 
Q 3706 1856 3706 1288 
Q 3706 609 3251 259 
Q 2797 -91 1919 -91 
Q 1588 -91 1214 -16 
Q 841 59 441 206 
L 441 856 
Q 825 641 1194 531 
Q 1563 422 1919 422 
Q 2459 422 2753 634 
Q 3047 847 3047 1241 
Q 3047 1584 2836 1778 
Q 2625 1972 2144 2069 
L 1759 2144 
Q 1053 2284 737 2584 
Q 422 2884 422 3419 
Q 422 4038 858 4394 
Q 1294 4750 2059 4750 
Q 2388 4750 2728 4690 
Q 3069 4631 3425 4513 
z
" transform="scale(0.015625)"/>
     </defs>
     <use xlink:href="#DejaVuSans-53"/>
     <use xlink:href="#DejaVuSans-75" x="63.476562"/>
     <use xlink:href="#DejaVuSans-6d" x="126.855469"/>
     <use xlink:href="#DejaVuSans-6d" x="224.267578"/>
     <use xlink:href="#DejaVuSans-65" x="321.679688"/>
     <use xlink:href="#DejaVuSans-72" x="383.203125"/>
    </g>
   </g>
   <g id="legend_1">
    <g id="line2d_42">
     <path d="M 130.862504 18.098438 
L 136.862504 18.098438 
L 142.862504 18.098438 
" style="fill: none; stroke-dasharray: 3.75,0.75; stroke-dashoffset: 0; stroke: #f45050; stroke-width: 0.75"/>
    </g>
    <g id="text_14">
     <!-- Insolation -->
     <g transform="translate(147.662504 20.198438) scale(0.06 -0.06)">
      <defs>
       <path id="DejaVuSans-49" d="M 628 4666 
L 1259 4666 
L 1259 0 
L 628 0 
L 628 4666 
z
" transform="scale(0.015625)"/>
       <path id="DejaVuSans-6e" d="M 3513 2113 
L 3513 0 
L 2938 0 
L 2938 2094 
Q 2938 2591 2744 2837 
Q 2550 3084 2163 3084 
Q 1697 3084 1428 2787 
Q 1159 2491 1159 1978 
L 1159 0 
L 581 0 
L 581 3500 
L 1159 3500 
L 1159 2956 
Q 1366 3272 1645 3428 
Q 1925 3584 2291 3584 
Q 2894 3584 3203 3211 
Q 3513 2838 3513 2113 
z
" transform="scale(0.015625)"/>
       <path id="DejaVuSans-69" d="M 603 3500 
L 1178 3500 
L 1178 0 
L 603 0 
L 603 3500 
z
M 603 4863 
L 1178 4863 
L 1178 4134 
L 603 4134 
L 603 4863 
z
" transform="scale(0.015625)"/>
      </defs>
      <use xlink:href="#DejaVuSans-49"/>
      <use xlink:href="#DejaVuSans-6e" x="29.492188"/>
      <use xlink:href="#DejaVuSans-73" x="92.871094"/>
      <use xlink:href="#DejaVuSans-6f" x="144.970703"/>
      <use xlink:href="#DejaVuSans-6c" x="206.152344"/>
      <use xlink:href="#DejaVuSans-61" x="233.935547"/>
      <use xlink:href="#DejaVuSans-74" x="295.214844"/>
      <use xlink:href="#DejaVuSans-69" x="334.423828"/>
      <use xlink:href="#DejaVuSans-6f" x="362.207031"/>
      <use xlink:href="#DejaVuSans-6e" x="423.388672"/>
     </g>
    </g>
    <g id="line2d_43">
     <path d="M 183.168442 18.098438 
L 189.168442 18.098438 
L 195.168442 18.098438 
" style="fill: none; stroke: #f88254; stroke-width: 0.75; stroke-linecap: square"/>
    </g>
    <g id="text_15">
     <!-- Insolation to wall(W/m2) -->
     <g transform="translate(199.968442 20.198438) scale(0.06 -0.06)">
      <defs>
       <path id="DejaVuSans-77" d="M 269 3500 
L 844 3500 
L 1563 769 
L 2278 3500 
L 2956 3500 
L 3675 769 
L 4391 3500 
L 4966 3500 
L 4050 0 
L 3372 0 
L 2619 2869 
L 1863 0 
L 1184 0 
L 269 3500 
z
" transform="scale(0.015625)"/>
       <path id="DejaVuSans-28" d="M 1984 4856 
Q 1566 4138 1362 3434 
Q 1159 2731 1159 2009 
Q 1159 1288 1364 580 
Q 1569 -128 1984 -844 
L 1484 -844 
Q 1016 -109 783 600 
Q 550 1309 550 2009 
Q 550 2706 781 3412 
Q 1013 4119 1484 4856 
L 1984 4856 
z
" transform="scale(0.015625)"/>
       <path id="DejaVuSans-29" d="M 513 4856 
L 1013 4856 
Q 1481 4119 1714 3412 
Q 1947 2706 1947 2009 
Q 1947 1309 1714 600 
Q 1481 -109 1013 -844 
L 513 -844 
Q 928 -128 1133 580 
Q 1338 1288 1338 2009 
Q 1338 2731 1133 3434 
Q 928 4138 513 4856 
z
" transform="scale(0.015625)"/>
      </defs>
      <use xlink:href="#DejaVuSans-49"/>
      <use xlink:href="#DejaVuSans-6e" x="29.492188"/>
      <use xlink:href="#DejaVuSans-73" x="92.871094"/>
      <use xlink:href="#DejaVuSans-6f" x="144.970703"/>
      <use xlink:href="#DejaVuSans-6c" x="206.152344"/>
      <use xlink:href="#DejaVuSans-61" x="233.935547"/>
      <use xlink:href="#DejaVuSans-74" x="295.214844"/>
      <use xlink:href="#DejaVuSans-69" x="334.423828"/>
      <use xlink:href="#DejaVuSans-6f" x="362.207031"/>
      <use xlink:href="#DejaVuSans-6e" x="423.388672"/>
      <use xlink:href="#DejaVuSans-20" x="486.767578"/>
      <use xlink:href="#DejaVuSans-74" x="518.554688"/>
      <use xlink:href="#DejaVuSans-6f" x="557.763672"/>
      <use xlink:href="#DejaVuSans-20" x="618.945312"/>
      <use xlink:href="#DejaVuSans-77" x="650.732422"/>
      <use xlink:href="#DejaVuSans-61" x="732.519531"/>
      <use xlink:href="#DejaVuSans-6c" x="793.798828"/>
      <use xlink:href="#DejaVuSans-6c" x="821.582031"/>
      <use xlink:href="#DejaVuSans-28" x="849.365234"/>
      <use xlink:href="#DejaVuSans-57" x="888.378906"/>
      <use xlink:href="#DejaVuSans-2f" x="987.255859"/>
      <use xlink:href="#DejaVuSans-6d" x="1020.947266"/>
      <use xlink:href="#DejaVuSans-32" x="1118.359375"/>
      <use xlink:href="#DejaVuSans-29" x="1181.982422"/>
     </g>
    </g>
   </g>
  </g>
 </g>
 <defs>
  <clipPath id="pf94006f887">
   <rect x="46.01" y="10.239375" width="232.616567" height="165.625197"/>
  </clipPath>
 </defs>
</svg>
