<?xml version="1.0" encoding="utf-8" standalone="no"?>
<!DOCTYPE svg PUBLIC "-//W3C//DTD SVG 1.1//EN"
  "http://www.w3.org/Graphics/SVG/1.1/DTD/svg11.dtd">
<svg xmlns:xlink="http://www.w3.org/1999/xlink" width="293.357067pt" height="208.517384pt" viewBox="0 0 293.357067 208.517384" xmlns="http://www.w3.org/2000/svg" version="1.1">
 <metadata>
  <rdf:RDF xmlns:dc="http://purl.org/dc/elements/1.1/" xmlns:cc="http://creativecommons.org/ns#" xmlns:rdf="http://www.w3.org/1999/02/22-rdf-syntax-ns#">
   <cc:Work>
    <dc:type rdf:resource="http://purl.org/dc/dcmitype/StillImage"/>
    <dc:date>2023-05-16T15:24:50.104995</dc:date>
    <dc:format>image/svg+xml</dc:format>
    <dc:creator>
     <cc:Agent>
      <dc:title>Matplotlib v3.7.0, https://matplotlib.org/</dc:title>
     </cc:Agent>
    </dc:creator>
   </cc:Work>
  </rdf:RDF>
 </metadata>
 <defs>
  <style type="text/css">*{stroke-linejoin: round; stroke-linecap: butt}</style>
 </defs>
 <g id="figure_1">
  <g id="patch_1">
   <path d="M 0 208.517384 
L 293.357067 208.517384 
L 293.357067 0 
L 0 0 
L 0 208.517384 
z
" style="fill: none"/>
  </g>
  <g id="axes_1">
   <g id="patch_2">
    <path d="M 35.11 175.864572 
L 278.522067 175.864572 
L 278.522067 10.239375 
L 35.11 10.239375 
L 35.11 175.864572 
z
" style="fill: none"/>
   </g>
   <g id="matplotlib.axis_1">
    <g id="xtick_1">
     <g id="line2d_1">
      <path d="M 35.11 175.864572 
L 35.11 10.239375 
" clip-path="url(#p7f356c4a43)" style="fill: none; stroke-dasharray: 0.5,0.825; stroke-dashoffset: 0; stroke: #404040; stroke-opacity: 0.2; stroke-width: 0.5"/>
     </g>
     <g id="line2d_2">
      <defs>
       <path id="m9e7e7de49e" d="M 0 0 
L 0 -3.5 
" style="stroke: #000000; stroke-width: 0.5"/>
      </defs>
      <g>
       <use xlink:href="#m9e7e7de49e" x="35.11" y="175.864572" style="stroke: #000000; stroke-width: 0.5"/>
      </g>
     </g>
     <g id="text_1">
      <!-- 0 -->
      <g transform="translate(32.565 186.943322) scale(0.08 -0.08)">
       <defs>
        <path id="DejaVuSans-30" d="M 2034 4250 
Q 1547 4250 1301 3770 
Q 1056 3291 1056 2328 
Q 1056 1369 1301 889 
Q 1547 409 2034 409 
Q 2525 409 2770 889 
Q 3016 1369 3016 2328 
Q 3016 3291 2770 3770 
Q 2525 4250 2034 4250 
z
M 2034 4750 
Q 2819 4750 3233 4129 
Q 3647 3509 3647 2328 
Q 3647 1150 3233 529 
Q 2819 -91 2034 -91 
Q 1250 -91 836 529 
Q 422 1150 422 2328 
Q 422 3509 836 4129 
Q 1250 4750 2034 4750 
z
" transform="scale(0.015625)"/>
       </defs>
       <use xlink:href="#DejaVuSans-30"/>
      </g>
     </g>
    </g>
    <g id="xtick_2">
     <g id="line2d_3">
      <path d="M 83.792413 175.864572 
L 83.792413 10.239375 
" clip-path="url(#p7f356c4a43)" style="fill: none; stroke-dasharray: 0.5,0.825; stroke-dashoffset: 0; stroke: #404040; stroke-opacity: 0.2; stroke-width: 0.5"/>
     </g>
     <g id="line2d_4">
      <g>
       <use xlink:href="#m9e7e7de49e" x="83.792413" y="175.864572" style="stroke: #000000; stroke-width: 0.5"/>
      </g>
     </g>
     <g id="text_2">
      <!-- 24 -->
      <g transform="translate(78.702413 186.943322) scale(0.08 -0.08)">
       <defs>
        <path id="DejaVuSans-32" d="M 1228 531 
L 3431 531 
L 3431 0 
L 469 0 
L 469 531 
Q 828 903 1448 1529 
Q 2069 2156 2228 2338 
Q 2531 2678 2651 2914 
Q 2772 3150 2772 3378 
Q 2772 3750 2511 3984 
Q 2250 4219 1831 4219 
Q 1534 4219 1204 4116 
Q 875 4013 500 3803 
L 500 4441 
Q 881 4594 1212 4672 
Q 1544 4750 1819 4750 
Q 2544 4750 2975 4387 
Q 3406 4025 3406 3419 
Q 3406 3131 3298 2873 
Q 3191 2616 2906 2266 
Q 2828 2175 2409 1742 
Q 1991 1309 1228 531 
z
" transform="scale(0.015625)"/>
        <path id="DejaVuSans-34" d="M 2419 4116 
L 825 1625 
L 2419 1625 
L 2419 4116 
z
M 2253 4666 
L 3047 4666 
L 3047 1625 
L 3713 1625 
L 3713 1100 
L 3047 1100 
L 3047 0 
L 2419 0 
L 2419 1100 
L 313 1100 
L 313 1709 
L 2253 4666 
z
" transform="scale(0.015625)"/>
       </defs>
       <use xlink:href="#DejaVuSans-32"/>
       <use xlink:href="#DejaVuSans-34" x="63.623047"/>
      </g>
     </g>
    </g>
    <g id="xtick_3">
     <g id="line2d_5">
      <path d="M 132.474827 175.864572 
L 132.474827 10.239375 
" clip-path="url(#p7f356c4a43)" style="fill: none; stroke-dasharray: 0.5,0.825; stroke-dashoffset: 0; stroke: #404040; stroke-opacity: 0.2; stroke-width: 0.5"/>
     </g>
     <g id="line2d_6">
      <g>
       <use xlink:href="#m9e7e7de49e" x="132.474827" y="175.864572" style="stroke: #000000; stroke-width: 0.5"/>
      </g>
     </g>
     <g id="text_3">
      <!-- 48 -->
      <g transform="translate(127.384827 186.943322) scale(0.08 -0.08)">
       <defs>
        <path id="DejaVuSans-38" d="M 2034 2216 
Q 1584 2216 1326 1975 
Q 1069 1734 1069 1313 
Q 1069 891 1326 650 
Q 1584 409 2034 409 
Q 2484 409 2743 651 
Q 3003 894 3003 1313 
Q 3003 1734 2745 1975 
Q 2488 2216 2034 2216 
z
M 1403 2484 
Q 997 2584 770 2862 
Q 544 3141 544 3541 
Q 544 4100 942 4425 
Q 1341 4750 2034 4750 
Q 2731 4750 3128 4425 
Q 3525 4100 3525 3541 
Q 3525 3141 3298 2862 
Q 3072 2584 2669 2484 
Q 3125 2378 3379 2068 
Q 3634 1759 3634 1313 
Q 3634 634 3220 271 
Q 2806 -91 2034 -91 
Q 1263 -91 848 271 
Q 434 634 434 1313 
Q 434 1759 690 2068 
Q 947 2378 1403 2484 
z
M 1172 3481 
Q 1172 3119 1398 2916 
Q 1625 2713 2034 2713 
Q 2441 2713 2670 2916 
Q 2900 3119 2900 3481 
Q 2900 3844 2670 4047 
Q 2441 4250 2034 4250 
Q 1625 4250 1398 4047 
Q 1172 3844 1172 3481 
z
" transform="scale(0.015625)"/>
       </defs>
       <use xlink:href="#DejaVuSans-34"/>
       <use xlink:href="#DejaVuSans-38" x="63.623047"/>
      </g>
     </g>
    </g>
    <g id="xtick_4">
     <g id="line2d_7">
      <path d="M 181.15724 175.864572 
L 181.15724 10.239375 
" clip-path="url(#p7f356c4a43)" style="fill: none; stroke-dasharray: 0.5,0.825; stroke-dashoffset: 0; stroke: #404040; stroke-opacity: 0.2; stroke-width: 0.5"/>
     </g>
     <g id="line2d_8">
      <g>
       <use xlink:href="#m9e7e7de49e" x="181.15724" y="175.864572" style="stroke: #000000; stroke-width: 0.5"/>
      </g>
     </g>
     <g id="text_4">
      <!-- 72 -->
      <g transform="translate(176.06724 186.943322) scale(0.08 -0.08)">
       <defs>
        <path id="DejaVuSans-37" d="M 525 4666 
L 3525 4666 
L 3525 4397 
L 1831 0 
L 1172 0 
L 2766 4134 
L 525 4134 
L 525 4666 
z
" transform="scale(0.015625)"/>
       </defs>
       <use xlink:href="#DejaVuSans-37"/>
       <use xlink:href="#DejaVuSans-32" x="63.623047"/>
      </g>
     </g>
    </g>
    <g id="xtick_5">
     <g id="line2d_9">
      <path d="M 229.839654 175.864572 
L 229.839654 10.239375 
" clip-path="url(#p7f356c4a43)" style="fill: none; stroke-dasharray: 0.5,0.825; stroke-dashoffset: 0; stroke: #404040; stroke-opacity: 0.2; stroke-width: 0.5"/>
     </g>
     <g id="line2d_10">
      <g>
       <use xlink:href="#m9e7e7de49e" x="229.839654" y="175.864572" style="stroke: #000000; stroke-width: 0.5"/>
      </g>
     </g>
     <g id="text_5">
      <!-- 96 -->
      <g transform="translate(224.749654 186.943322) scale(0.08 -0.08)">
       <defs>
        <path id="DejaVuSans-39" d="M 703 97 
L 703 672 
Q 941 559 1184 500 
Q 1428 441 1663 441 
Q 2288 441 2617 861 
Q 2947 1281 2994 2138 
Q 2813 1869 2534 1725 
Q 2256 1581 1919 1581 
Q 1219 1581 811 2004 
Q 403 2428 403 3163 
Q 403 3881 828 4315 
Q 1253 4750 1959 4750 
Q 2769 4750 3195 4129 
Q 3622 3509 3622 2328 
Q 3622 1225 3098 567 
Q 2575 -91 1691 -91 
Q 1453 -91 1209 -44 
Q 966 3 703 97 
z
M 1959 2075 
Q 2384 2075 2632 2365 
Q 2881 2656 2881 3163 
Q 2881 3666 2632 3958 
Q 2384 4250 1959 4250 
Q 1534 4250 1286 3958 
Q 1038 3666 1038 3163 
Q 1038 2656 1286 2365 
Q 1534 2075 1959 2075 
z
" transform="scale(0.015625)"/>
        <path id="DejaVuSans-36" d="M 2113 2584 
Q 1688 2584 1439 2293 
Q 1191 2003 1191 1497 
Q 1191 994 1439 701 
Q 1688 409 2113 409 
Q 2538 409 2786 701 
Q 3034 994 3034 1497 
Q 3034 2003 2786 2293 
Q 2538 2584 2113 2584 
z
M 3366 4563 
L 3366 3988 
Q 3128 4100 2886 4159 
Q 2644 4219 2406 4219 
Q 1781 4219 1451 3797 
Q 1122 3375 1075 2522 
Q 1259 2794 1537 2939 
Q 1816 3084 2150 3084 
Q 2853 3084 3261 2657 
Q 3669 2231 3669 1497 
Q 3669 778 3244 343 
Q 2819 -91 2113 -91 
Q 1303 -91 875 529 
Q 447 1150 447 2328 
Q 447 3434 972 4092 
Q 1497 4750 2381 4750 
Q 2619 4750 2861 4703 
Q 3103 4656 3366 4563 
z
" transform="scale(0.015625)"/>
       </defs>
       <use xlink:href="#DejaVuSans-39"/>
       <use xlink:href="#DejaVuSans-36" x="63.623047"/>
      </g>
     </g>
    </g>
    <g id="xtick_6">
     <g id="line2d_11">
      <path d="M 278.522067 175.864572 
L 278.522067 10.239375 
" clip-path="url(#p7f356c4a43)" style="fill: none; stroke-dasharray: 0.5,0.825; stroke-dashoffset: 0; stroke: #404040; stroke-opacity: 0.2; stroke-width: 0.5"/>
     </g>
     <g id="line2d_12">
      <g>
       <use xlink:href="#m9e7e7de49e" x="278.522067" y="175.864572" style="stroke: #000000; stroke-width: 0.5"/>
      </g>
     </g>
     <g id="text_6">
      <!-- 120 -->
      <g transform="translate(270.887067 186.943322) scale(0.08 -0.08)">
       <defs>
        <path id="DejaVuSans-31" d="M 794 531 
L 1825 531 
L 1825 4091 
L 703 3866 
L 703 4441 
L 1819 4666 
L 2450 4666 
L 2450 531 
L 3481 531 
L 3481 0 
L 794 0 
L 794 531 
z
" transform="scale(0.015625)"/>
       </defs>
       <use xlink:href="#DejaVuSans-31"/>
       <use xlink:href="#DejaVuSans-32" x="63.623047"/>
       <use xlink:href="#DejaVuSans-30" x="127.246094"/>
      </g>
     </g>
    </g>
    <g id="xtick_7">
     <g id="line2d_13">
      <defs>
       <path id="m46dcd8e906" d="M 0 0 
L 0 -2 
" style="stroke: #000000; stroke-width: 0.25"/>
      </defs>
      <g>
       <use xlink:href="#m46dcd8e906" x="59.451207" y="175.864572" style="stroke: #000000; stroke-width: 0.25"/>
      </g>
     </g>
    </g>
    <g id="xtick_8">
     <g id="line2d_14">
      <g>
       <use xlink:href="#m46dcd8e906" x="108.13362" y="175.864572" style="stroke: #000000; stroke-width: 0.25"/>
      </g>
     </g>
    </g>
    <g id="xtick_9">
     <g id="line2d_15">
      <g>
       <use xlink:href="#m46dcd8e906" x="156.816033" y="175.864572" style="stroke: #000000; stroke-width: 0.25"/>
      </g>
     </g>
    </g>
    <g id="xtick_10">
     <g id="line2d_16">
      <g>
       <use xlink:href="#m46dcd8e906" x="205.498447" y="175.864572" style="stroke: #000000; stroke-width: 0.25"/>
      </g>
     </g>
    </g>
    <g id="xtick_11">
     <g id="line2d_17">
      <g>
       <use xlink:href="#m46dcd8e906" x="254.18086" y="175.864572" style="stroke: #000000; stroke-width: 0.25"/>
      </g>
     </g>
    </g>
    <g id="text_7">
     <!-- Hour [s] -->
     <g transform="translate(138.690877 199.445666) scale(0.09 -0.09)">
      <defs>
       <path id="DejaVuSans-48" d="M 628 4666 
L 1259 4666 
L 1259 2753 
L 3553 2753 
L 3553 4666 
L 4184 4666 
L 4184 0 
L 3553 0 
L 3553 2222 
L 1259 2222 
L 1259 0 
L 628 0 
L 628 4666 
z
" transform="scale(0.015625)"/>
       <path id="DejaVuSans-6f" d="M 1959 3097 
Q 1497 3097 1228 2736 
Q 959 2375 959 1747 
Q 959 1119 1226 758 
Q 1494 397 1959 397 
Q 2419 397 2687 759 
Q 2956 1122 2956 1747 
Q 2956 2369 2687 2733 
Q 2419 3097 1959 3097 
z
M 1959 3584 
Q 2709 3584 3137 3096 
Q 3566 2609 3566 1747 
Q 3566 888 3137 398 
Q 2709 -91 1959 -91 
Q 1206 -91 779 398 
Q 353 888 353 1747 
Q 353 2609 779 3096 
Q 1206 3584 1959 3584 
z
" transform="scale(0.015625)"/>
       <path id="DejaVuSans-75" d="M 544 1381 
L 544 3500 
L 1119 3500 
L 1119 1403 
Q 1119 906 1312 657 
Q 1506 409 1894 409 
Q 2359 409 2629 706 
Q 2900 1003 2900 1516 
L 2900 3500 
L 3475 3500 
L 3475 0 
L 2900 0 
L 2900 538 
Q 2691 219 2414 64 
Q 2138 -91 1772 -91 
Q 1169 -91 856 284 
Q 544 659 544 1381 
z
M 1991 3584 
L 1991 3584 
z
" transform="scale(0.015625)"/>
       <path id="DejaVuSans-72" d="M 2631 2963 
Q 2534 3019 2420 3045 
Q 2306 3072 2169 3072 
Q 1681 3072 1420 2755 
Q 1159 2438 1159 1844 
L 1159 0 
L 581 0 
L 581 3500 
L 1159 3500 
L 1159 2956 
Q 1341 3275 1631 3429 
Q 1922 3584 2338 3584 
Q 2397 3584 2469 3576 
Q 2541 3569 2628 3553 
L 2631 2963 
z
" transform="scale(0.015625)"/>
       <path id="DejaVuSans-20" transform="scale(0.015625)"/>
       <path id="DejaVuSans-5b" d="M 550 4863 
L 1875 4863 
L 1875 4416 
L 1125 4416 
L 1125 -397 
L 1875 -397 
L 1875 -844 
L 550 -844 
L 550 4863 
z
" transform="scale(0.015625)"/>
       <path id="DejaVuSans-73" d="M 2834 3397 
L 2834 2853 
Q 2591 2978 2328 3040 
Q 2066 3103 1784 3103 
Q 1356 3103 1142 2972 
Q 928 2841 928 2578 
Q 928 2378 1081 2264 
Q 1234 2150 1697 2047 
L 1894 2003 
Q 2506 1872 2764 1633 
Q 3022 1394 3022 966 
Q 3022 478 2636 193 
Q 2250 -91 1575 -91 
Q 1294 -91 989 -36 
Q 684 19 347 128 
L 347 722 
Q 666 556 975 473 
Q 1284 391 1588 391 
Q 1994 391 2212 530 
Q 2431 669 2431 922 
Q 2431 1156 2273 1281 
Q 2116 1406 1581 1522 
L 1381 1569 
Q 847 1681 609 1914 
Q 372 2147 372 2553 
Q 372 3047 722 3315 
Q 1072 3584 1716 3584 
Q 2034 3584 2315 3537 
Q 2597 3491 2834 3397 
z
" transform="scale(0.015625)"/>
       <path id="DejaVuSans-5d" d="M 1947 4863 
L 1947 -844 
L 622 -844 
L 622 -397 
L 1369 -397 
L 1369 4416 
L 622 4416 
L 622 4863 
L 1947 4863 
z
" transform="scale(0.015625)"/>
      </defs>
      <use xlink:href="#DejaVuSans-48"/>
      <use xlink:href="#DejaVuSans-6f" x="75.195312"/>
      <use xlink:href="#DejaVuSans-75" x="136.376953"/>
      <use xlink:href="#DejaVuSans-72" x="199.755859"/>
      <use xlink:href="#DejaVuSans-20" x="240.869141"/>
      <use xlink:href="#DejaVuSans-5b" x="272.65625"/>
      <use xlink:href="#DejaVuSans-73" x="311.669922"/>
      <use xlink:href="#DejaVuSans-5d" x="363.769531"/>
     </g>
    </g>
   </g>
   <g id="matplotlib.axis_2">
    <g id="ytick_1">
     <g id="line2d_18">
      <path d="M 35.11 175.864572 
L 278.522067 175.864572 
" clip-path="url(#p7f356c4a43)" style="fill: none; stroke-dasharray: 0.5,0.825; stroke-dashoffset: 0; stroke: #404040; stroke-opacity: 0.2; stroke-width: 0.5"/>
     </g>
     <g id="line2d_19">
      <defs>
       <path id="mdff0b05966" d="M 0 0 
L 3.5 0 
" style="stroke: #000000; stroke-width: 0.5"/>
      </defs>
      <g>
       <use xlink:href="#mdff0b05966" x="35.11" y="175.864572" style="stroke: #000000; stroke-width: 0.5"/>
      </g>
     </g>
     <g id="text_8">
      <!-- 20 -->
      <g transform="translate(19.93 178.903947) scale(0.08 -0.08)">
       <use xlink:href="#DejaVuSans-32"/>
       <use xlink:href="#DejaVuSans-30" x="63.623047"/>
      </g>
     </g>
    </g>
    <g id="ytick_2">
     <g id="line2d_20">
      <path d="M 35.11 120.656173 
L 278.522067 120.656173 
" clip-path="url(#p7f356c4a43)" style="fill: none; stroke-dasharray: 0.5,0.825; stroke-dashoffset: 0; stroke: #404040; stroke-opacity: 0.2; stroke-width: 0.5"/>
     </g>
     <g id="line2d_21">
      <g>
       <use xlink:href="#mdff0b05966" x="35.11" y="120.656173" style="stroke: #000000; stroke-width: 0.5"/>
      </g>
     </g>
     <g id="text_9">
      <!-- 25 -->
      <g transform="translate(19.93 123.695548) scale(0.08 -0.08)">
       <defs>
        <path id="DejaVuSans-35" d="M 691 4666 
L 3169 4666 
L 3169 4134 
L 1269 4134 
L 1269 2991 
Q 1406 3038 1543 3061 
Q 1681 3084 1819 3084 
Q 2600 3084 3056 2656 
Q 3513 2228 3513 1497 
Q 3513 744 3044 326 
Q 2575 -91 1722 -91 
Q 1428 -91 1123 -41 
Q 819 9 494 109 
L 494 744 
Q 775 591 1075 516 
Q 1375 441 1709 441 
Q 2250 441 2565 725 
Q 2881 1009 2881 1497 
Q 2881 1984 2565 2268 
Q 2250 2553 1709 2553 
Q 1456 2553 1204 2497 
Q 953 2441 691 2322 
L 691 4666 
z
" transform="scale(0.015625)"/>
       </defs>
       <use xlink:href="#DejaVuSans-32"/>
       <use xlink:href="#DejaVuSans-35" x="63.623047"/>
      </g>
     </g>
    </g>
    <g id="ytick_3">
     <g id="line2d_22">
      <path d="M 35.11 65.447774 
L 278.522067 65.447774 
" clip-path="url(#p7f356c4a43)" style="fill: none; stroke-dasharray: 0.5,0.825; stroke-dashoffset: 0; stroke: #404040; stroke-opacity: 0.2; stroke-width: 0.5"/>
     </g>
     <g id="line2d_23">
      <g>
       <use xlink:href="#mdff0b05966" x="35.11" y="65.447774" style="stroke: #000000; stroke-width: 0.5"/>
      </g>
     </g>
     <g id="text_10">
      <!-- 30 -->
      <g transform="translate(19.93 68.487149) scale(0.08 -0.08)">
       <defs>
        <path id="DejaVuSans-33" d="M 2597 2516 
Q 3050 2419 3304 2112 
Q 3559 1806 3559 1356 
Q 3559 666 3084 287 
Q 2609 -91 1734 -91 
Q 1441 -91 1130 -33 
Q 819 25 488 141 
L 488 750 
Q 750 597 1062 519 
Q 1375 441 1716 441 
Q 2309 441 2620 675 
Q 2931 909 2931 1356 
Q 2931 1769 2642 2001 
Q 2353 2234 1838 2234 
L 1294 2234 
L 1294 2753 
L 1863 2753 
Q 2328 2753 2575 2939 
Q 2822 3125 2822 3475 
Q 2822 3834 2567 4026 
Q 2313 4219 1838 4219 
Q 1578 4219 1281 4162 
Q 984 4106 628 3988 
L 628 4550 
Q 988 4650 1302 4700 
Q 1616 4750 1894 4750 
Q 2613 4750 3031 4423 
Q 3450 4097 3450 3541 
Q 3450 3153 3228 2886 
Q 3006 2619 2597 2516 
z
" transform="scale(0.015625)"/>
       </defs>
       <use xlink:href="#DejaVuSans-33"/>
       <use xlink:href="#DejaVuSans-30" x="63.623047"/>
      </g>
     </g>
    </g>
    <g id="ytick_4">
     <g id="line2d_24">
      <path d="M 35.11 10.239375 
L 278.522067 10.239375 
" clip-path="url(#p7f356c4a43)" style="fill: none; stroke-dasharray: 0.5,0.825; stroke-dashoffset: 0; stroke: #404040; stroke-opacity: 0.2; stroke-width: 0.5"/>
     </g>
     <g id="line2d_25">
      <g>
       <use xlink:href="#mdff0b05966" x="35.11" y="10.239375" style="stroke: #000000; stroke-width: 0.5"/>
      </g>
     </g>
     <g id="text_11">
      <!-- 35 -->
      <g transform="translate(19.93 13.27875) scale(0.08 -0.08)">
       <use xlink:href="#DejaVuSans-33"/>
       <use xlink:href="#DejaVuSans-35" x="63.623047"/>
      </g>
     </g>
    </g>
    <g id="ytick_5">
     <g id="line2d_26">
      <defs>
       <path id="mb94d39730e" d="M 0 0 
L 2 0 
" style="stroke: #000000; stroke-width: 0.25"/>
      </defs>
      <g>
       <use xlink:href="#mb94d39730e" x="35.11" y="164.822892" style="stroke: #000000; stroke-width: 0.25"/>
      </g>
     </g>
    </g>
    <g id="ytick_6">
     <g id="line2d_27">
      <g>
       <use xlink:href="#mb94d39730e" x="35.11" y="153.781212" style="stroke: #000000; stroke-width: 0.25"/>
      </g>
     </g>
    </g>
    <g id="ytick_7">
     <g id="line2d_28">
      <g>
       <use xlink:href="#mb94d39730e" x="35.11" y="142.739532" style="stroke: #000000; stroke-width: 0.25"/>
      </g>
     </g>
    </g>
    <g id="ytick_8">
     <g id="line2d_29">
      <g>
       <use xlink:href="#mb94d39730e" x="35.11" y="131.697853" style="stroke: #000000; stroke-width: 0.25"/>
      </g>
     </g>
    </g>
    <g id="ytick_9">
     <g id="line2d_30">
      <g>
       <use xlink:href="#mb94d39730e" x="35.11" y="109.614493" style="stroke: #000000; stroke-width: 0.25"/>
      </g>
     </g>
    </g>
    <g id="ytick_10">
     <g id="line2d_31">
      <g>
       <use xlink:href="#mb94d39730e" x="35.11" y="98.572813" style="stroke: #000000; stroke-width: 0.25"/>
      </g>
     </g>
    </g>
    <g id="ytick_11">
     <g id="line2d_32">
      <g>
       <use xlink:href="#mb94d39730e" x="35.11" y="87.531134" style="stroke: #000000; stroke-width: 0.25"/>
      </g>
     </g>
    </g>
    <g id="ytick_12">
     <g id="line2d_33">
      <g>
       <use xlink:href="#mb94d39730e" x="35.11" y="76.489454" style="stroke: #000000; stroke-width: 0.25"/>
      </g>
     </g>
    </g>
    <g id="ytick_13">
     <g id="line2d_34">
      <g>
       <use xlink:href="#mb94d39730e" x="35.11" y="54.406094" style="stroke: #000000; stroke-width: 0.25"/>
      </g>
     </g>
    </g>
    <g id="ytick_14">
     <g id="line2d_35">
      <g>
       <use xlink:href="#mb94d39730e" x="35.11" y="43.364414" style="stroke: #000000; stroke-width: 0.25"/>
      </g>
     </g>
    </g>
    <g id="ytick_15">
     <g id="line2d_36">
      <g>
       <use xlink:href="#mb94d39730e" x="35.11" y="32.322735" style="stroke: #000000; stroke-width: 0.25"/>
      </g>
     </g>
    </g>
    <g id="ytick_16">
     <g id="line2d_37">
      <g>
       <use xlink:href="#mb94d39730e" x="35.11" y="21.281055" style="stroke: #000000; stroke-width: 0.25"/>
      </g>
     </g>
    </g>
    <g id="text_12">
     <!-- Temperature $\mathrm{[\degree C]}$ -->
     <g transform="translate(14.04 132.786973) rotate(-90) scale(0.09 -0.09)">
      <defs>
       <path id="DejaVuSans-54" d="M -19 4666 
L 3928 4666 
L 3928 4134 
L 2272 4134 
L 2272 0 
L 1638 0 
L 1638 4134 
L -19 4134 
L -19 4666 
z
" transform="scale(0.015625)"/>
       <path id="DejaVuSans-65" d="M 3597 1894 
L 3597 1613 
L 953 1613 
Q 991 1019 1311 708 
Q 1631 397 2203 397 
Q 2534 397 2845 478 
Q 3156 559 3463 722 
L 3463 178 
Q 3153 47 2828 -22 
Q 2503 -91 2169 -91 
Q 1331 -91 842 396 
Q 353 884 353 1716 
Q 353 2575 817 3079 
Q 1281 3584 2069 3584 
Q 2775 3584 3186 3129 
Q 3597 2675 3597 1894 
z
M 3022 2063 
Q 3016 2534 2758 2815 
Q 2500 3097 2075 3097 
Q 1594 3097 1305 2825 
Q 1016 2553 972 2059 
L 3022 2063 
z
" transform="scale(0.015625)"/>
       <path id="DejaVuSans-6d" d="M 3328 2828 
Q 3544 3216 3844 3400 
Q 4144 3584 4550 3584 
Q 5097 3584 5394 3201 
Q 5691 2819 5691 2113 
L 5691 0 
L 5113 0 
L 5113 2094 
Q 5113 2597 4934 2840 
Q 4756 3084 4391 3084 
Q 3944 3084 3684 2787 
Q 3425 2491 3425 1978 
L 3425 0 
L 2847 0 
L 2847 2094 
Q 2847 2600 2669 2842 
Q 2491 3084 2119 3084 
Q 1678 3084 1418 2786 
Q 1159 2488 1159 1978 
L 1159 0 
L 581 0 
L 581 3500 
L 1159 3500 
L 1159 2956 
Q 1356 3278 1631 3431 
Q 1906 3584 2284 3584 
Q 2666 3584 2933 3390 
Q 3200 3197 3328 2828 
z
" transform="scale(0.015625)"/>
       <path id="DejaVuSans-70" d="M 1159 525 
L 1159 -1331 
L 581 -1331 
L 581 3500 
L 1159 3500 
L 1159 2969 
Q 1341 3281 1617 3432 
Q 1894 3584 2278 3584 
Q 2916 3584 3314 3078 
Q 3713 2572 3713 1747 
Q 3713 922 3314 415 
Q 2916 -91 2278 -91 
Q 1894 -91 1617 61 
Q 1341 213 1159 525 
z
M 3116 1747 
Q 3116 2381 2855 2742 
Q 2594 3103 2138 3103 
Q 1681 3103 1420 2742 
Q 1159 2381 1159 1747 
Q 1159 1113 1420 752 
Q 1681 391 2138 391 
Q 2594 391 2855 752 
Q 3116 1113 3116 1747 
z
" transform="scale(0.015625)"/>
       <path id="DejaVuSans-61" d="M 2194 1759 
Q 1497 1759 1228 1600 
Q 959 1441 959 1056 
Q 959 750 1161 570 
Q 1363 391 1709 391 
Q 2188 391 2477 730 
Q 2766 1069 2766 1631 
L 2766 1759 
L 2194 1759 
z
M 3341 1997 
L 3341 0 
L 2766 0 
L 2766 531 
Q 2569 213 2275 61 
Q 1981 -91 1556 -91 
Q 1019 -91 701 211 
Q 384 513 384 1019 
Q 384 1609 779 1909 
Q 1175 2209 1959 2209 
L 2766 2209 
L 2766 2266 
Q 2766 2663 2505 2880 
Q 2244 3097 1772 3097 
Q 1472 3097 1187 3025 
Q 903 2953 641 2809 
L 641 3341 
Q 956 3463 1253 3523 
Q 1550 3584 1831 3584 
Q 2591 3584 2966 3190 
Q 3341 2797 3341 1997 
z
" transform="scale(0.015625)"/>
       <path id="DejaVuSans-74" d="M 1172 4494 
L 1172 3500 
L 2356 3500 
L 2356 3053 
L 1172 3053 
L 1172 1153 
Q 1172 725 1289 603 
Q 1406 481 1766 481 
L 2356 481 
L 2356 0 
L 1766 0 
Q 1100 0 847 248 
Q 594 497 594 1153 
L 594 3053 
L 172 3053 
L 172 3500 
L 594 3500 
L 594 4494 
L 1172 4494 
z
" transform="scale(0.015625)"/>
       <path id="DejaVuSans-b0" d="M 1600 4347 
Q 1350 4347 1178 4173 
Q 1006 4000 1006 3750 
Q 1006 3503 1178 3333 
Q 1350 3163 1600 3163 
Q 1850 3163 2022 3333 
Q 2194 3503 2194 3750 
Q 2194 3997 2020 4172 
Q 1847 4347 1600 4347 
z
M 1600 4750 
Q 1800 4750 1984 4673 
Q 2169 4597 2303 4453 
Q 2447 4313 2519 4134 
Q 2591 3956 2591 3750 
Q 2591 3338 2302 3052 
Q 2013 2766 1594 2766 
Q 1172 2766 890 3047 
Q 609 3328 609 3750 
Q 609 4169 896 4459 
Q 1184 4750 1600 4750 
z
" transform="scale(0.015625)"/>
       <path id="DejaVuSans-43" d="M 4122 4306 
L 4122 3641 
Q 3803 3938 3442 4084 
Q 3081 4231 2675 4231 
Q 1875 4231 1450 3742 
Q 1025 3253 1025 2328 
Q 1025 1406 1450 917 
Q 1875 428 2675 428 
Q 3081 428 3442 575 
Q 3803 722 4122 1019 
L 4122 359 
Q 3791 134 3420 21 
Q 3050 -91 2638 -91 
Q 1578 -91 968 557 
Q 359 1206 359 2328 
Q 359 3453 968 4101 
Q 1578 4750 2638 4750 
Q 3056 4750 3426 4639 
Q 3797 4528 4122 4306 
z
" transform="scale(0.015625)"/>
      </defs>
      <use xlink:href="#DejaVuSans-54" transform="translate(0 0.015625)"/>
      <use xlink:href="#DejaVuSans-65" transform="translate(61.083984 0.015625)"/>
      <use xlink:href="#DejaVuSans-6d" transform="translate(122.607422 0.015625)"/>
      <use xlink:href="#DejaVuSans-70" transform="translate(220.019531 0.015625)"/>
      <use xlink:href="#DejaVuSans-65" transform="translate(283.496094 0.015625)"/>
      <use xlink:href="#DejaVuSans-72" transform="translate(345.019531 0.015625)"/>
      <use xlink:href="#DejaVuSans-61" transform="translate(386.132812 0.015625)"/>
      <use xlink:href="#DejaVuSans-74" transform="translate(447.412109 0.015625)"/>
      <use xlink:href="#DejaVuSans-75" transform="translate(486.621094 0.015625)"/>
      <use xlink:href="#DejaVuSans-72" transform="translate(550 0.015625)"/>
      <use xlink:href="#DejaVuSans-65" transform="translate(591.113281 0.015625)"/>
      <use xlink:href="#DejaVuSans-20" transform="translate(652.636719 0.015625)"/>
      <use xlink:href="#DejaVuSans-5b" transform="translate(684.423828 0.015625)"/>
      <use xlink:href="#DejaVuSans-b0" transform="translate(723.4375 0.015625)"/>
      <use xlink:href="#DejaVuSans-43" transform="translate(773.4375 0.015625)"/>
      <use xlink:href="#DejaVuSans-5d" transform="translate(843.261719 0.015625)"/>
     </g>
    </g>
   </g>
   <g id="line2d_38">
    <path d="M 35.11 133.906189 
L 35.183249 134.016605 
L 35.307209 134.347856 
L 35.386092 134.458273 
L 35.510052 134.789523 
L 35.588936 134.89994 
L 35.712896 135.23119 
L 35.791779 135.341607 
L 35.915739 135.672857 
L 35.994623 135.783274 
L 36.118582 136.114525 
L 36.197466 136.224941 
L 36.321426 136.556192 
L 36.400309 136.666609 
L 36.524269 136.997859 
L 36.603153 137.108276 
L 36.727113 137.439526 
L 36.805996 137.549943 
L 36.929956 137.881193 
L 37.00884 137.99161 
L 37.132799 138.322861 
L 37.194779 138.212444 
L 37.324374 137.770777 
L 37.397623 137.66036 
L 37.527217 137.218693 
L 37.600466 137.108276 
L 37.73006 136.666609 
L 37.803309 136.556192 
L 37.932904 136.114525 
L 38.006153 136.004108 
L 38.135747 135.562441 
L 38.208996 135.452024 
L 38.338591 135.010357 
L 38.41184 134.89994 
L 38.541434 134.458273 
L 38.614683 134.347856 
L 38.744277 133.906189 
L 38.817526 133.795772 
L 38.947121 133.354105 
L 39.02037 133.243688 
L 39.149964 132.802021 
L 39.471133 132.691604 
L 39.583824 132.581187 
L 39.87682 132.47077 
L 39.98951 132.360353 
L 40.282506 132.249937 
L 40.395197 132.13952 
L 40.682559 132.029103 
L 40.795249 131.918686 
L 41.088245 131.808269 
L 41.200936 131.697853 
L 41.3418 131.587436 
L 41.460125 131.366602 
L 41.651699 131.256185 
L 41.770025 131.035352 
L 41.955964 130.924935 
L 42.07429 130.704102 
L 42.254595 130.593685 
L 42.37292 130.372851 
L 42.564495 130.262434 
L 42.68282 130.041601 
L 42.86876 129.931184 
L 42.987085 129.71035 
L 43.16739 129.599934 
L 43.257543 129.489517 
L 43.274446 129.599934 
L 43.392772 129.71035 
L 43.511097 129.931184 
L 43.589981 130.041601 
L 43.708306 130.262434 
L 43.792824 130.372851 
L 43.911149 130.593685 
L 43.995667 130.704102 
L 44.113993 130.924935 
L 44.198511 131.035352 
L 44.316836 131.256185 
L 44.401354 131.366602 
L 44.519679 131.587436 
L 44.604198 131.697853 
L 44.722523 131.918686 
L 44.807041 132.029103 
L 44.925366 132.249937 
L 45.009884 132.360353 
L 45.12821 132.581187 
L 45.212728 132.691604 
L 45.336688 133.022854 
L 45.393033 133.133271 
L 45.522627 133.574938 
L 45.595876 133.685355 
L 45.725471 134.127022 
L 45.79872 134.237439 
L 45.928314 134.679106 
L 46.001563 134.789523 
L 46.131157 135.23119 
L 46.204406 135.341607 
L 46.334001 135.783274 
L 46.40725 135.893691 
L 46.536844 136.335358 
L 46.610093 136.445775 
L 46.739688 136.887442 
L 46.812937 136.997859 
L 46.942531 137.439526 
L 47.01578 137.549943 
L 47.145374 137.99161 
L 47.218623 138.102027 
L 47.336949 138.322861 
L 47.584868 138.212444 
L 47.697559 138.102027 
L 47.990555 137.99161 
L 48.103246 137.881193 
L 48.396242 137.770777 
L 48.508933 137.66036 
L 48.796294 137.549943 
L 48.908985 137.439526 
L 49.201981 137.329109 
L 49.314672 137.218693 
L 49.607668 137.329109 
L 49.720359 137.439526 
L 50.013355 137.549943 
L 50.126045 137.66036 
L 50.424676 137.770777 
L 50.537367 137.881193 
L 50.824728 137.99161 
L 50.937419 138.102027 
L 51.230415 138.212444 
L 51.343106 138.322861 
L 51.641736 138.212444 
L 51.754427 138.102027 
L 52.047423 137.99161 
L 52.160114 137.881193 
L 52.45311 137.770777 
L 52.565801 137.66036 
L 52.853162 137.549943 
L 52.965853 137.439526 
L 53.258849 137.329109 
L 53.37154 137.218693 
L 53.399712 137.108276 
L 53.540576 136.445775 
L 53.580017 136.335358 
L 53.720881 135.672857 
L 53.754688 135.562441 
L 53.895552 134.89994 
L 53.934993 134.789523 
L 54.075857 134.127022 
L 54.109664 134.016605 
L 54.250528 133.354105 
L 54.289969 133.243688 
L 54.430833 132.581187 
L 54.46464 132.47077 
L 54.605504 131.808269 
L 54.644945 131.697853 
L 54.785809 131.035352 
L 54.819616 130.924935 
L 54.960479 130.262434 
L 54.999921 130.152018 
L 55.140785 129.489517 
L 55.174592 129.3791 
L 55.315455 128.716599 
L 55.354897 128.606182 
L 55.428146 128.385349 
L 55.467588 128.495766 
L 55.563375 128.606182 
L 55.6817 128.827016 
L 55.766218 128.937433 
L 55.884544 129.158266 
L 55.963427 129.268683 
L 56.081753 129.489517 
L 56.166271 129.599934 
L 56.284596 129.820767 
L 56.374749 129.931184 
L 56.493074 130.152018 
L 56.571957 130.262434 
L 56.690283 130.483268 
L 56.774801 130.593685 
L 56.893126 130.814518 
L 56.983279 130.924935 
L 57.101604 131.145769 
L 57.186122 131.256185 
L 57.304447 131.477019 
L 57.383331 131.587436 
L 57.496022 131.697853 
L 59.749837 131.808269 
L 59.862528 131.918686 
L 60.155524 132.029103 
L 60.268215 132.13952 
L 60.566845 132.249937 
L 60.679536 132.360353 
L 60.966898 132.47077 
L 61.079588 132.581187 
L 61.372584 132.691604 
L 61.485275 132.802021 
L 61.631773 132.691604 
L 61.750098 132.47077 
L 61.930404 132.360353 
L 62.048729 132.13952 
L 62.234669 132.029103 
L 62.352994 131.808269 
L 62.544568 131.697853 
L 62.662894 131.477019 
L 62.843199 131.366602 
L 62.961524 131.145769 
L 63.147464 131.035352 
L 63.265789 130.814518 
L 63.451729 130.704102 
L 63.56442 130.593685 
L 65.683006 130.483268 
L 65.801332 130.262434 
L 65.992906 130.152018 
L 66.111231 129.931184 
L 66.291537 129.820767 
L 66.409862 129.599934 
L 66.595802 129.489517 
L 66.714127 129.268683 
L 66.905701 129.158266 
L 67.024027 128.937433 
L 67.204332 128.827016 
L 67.322657 128.606182 
L 67.508597 128.495766 
L 67.621288 128.385349 
L 67.863573 128.274932 
L 67.976264 128.164515 
L 68.26926 128.054098 
L 68.38195 127.943682 
L 68.674946 127.833265 
L 68.787637 127.722848 
L 69.080633 127.612431 
L 69.193324 127.502014 
L 69.491954 127.391598 
L 69.604645 127.281181 
L 69.666625 127.391598 
L 69.790585 127.722848 
L 69.869469 127.833265 
L 69.993428 128.164515 
L 70.072312 128.274932 
L 70.196272 128.606182 
L 70.275155 128.716599 
L 70.399115 129.04785 
L 70.477999 129.158266 
L 70.601959 129.489517 
L 70.680842 129.599934 
L 70.804802 129.931184 
L 70.883685 130.041601 
L 71.007645 130.372851 
L 71.086529 130.483268 
L 71.210489 130.814518 
L 71.289372 130.924935 
L 71.413332 131.256185 
L 71.492216 131.366602 
L 71.616176 131.697853 
L 71.768308 131.587436 
L 71.886633 131.366602 
L 72.078208 131.256185 
L 72.196533 131.035352 
L 72.382473 130.924935 
L 72.500798 130.704102 
L 72.681103 130.593685 
L 72.799429 130.372851 
L 72.991003 130.262434 
L 73.109328 130.041601 
L 73.295268 129.931184 
L 73.413593 129.71035 
L 73.593899 129.599934 
L 73.706589 129.489517 
L 73.948874 129.599934 
L 74.061565 129.71035 
L 74.354561 129.820767 
L 74.467252 129.931184 
L 74.760248 130.041601 
L 74.872939 130.152018 
L 75.165935 130.262434 
L 75.278626 130.372851 
L 75.577256 130.483268 
L 75.689947 130.593685 
L 75.982943 130.704102 
L 76.095634 130.814518 
L 76.38863 130.924935 
L 76.50132 131.035352 
L 76.794316 131.145769 
L 76.907007 131.256185 
L 77.194369 131.366602 
L 77.307059 131.477019 
L 77.600055 131.587436 
L 77.712746 131.697853 
L 79.882044 131.808269 
L 80.000369 132.029103 
L 80.191943 132.13952 
L 80.310269 132.360353 
L 80.496208 132.47077 
L 80.614534 132.691604 
L 80.794839 132.802021 
L 80.913164 133.022854 
L 81.104738 133.133271 
L 81.223064 133.354105 
L 81.409004 133.464521 
L 81.527329 133.685355 
L 81.707634 133.795772 
L 81.81469 133.906189 
L 81.933016 133.685355 
L 82.113321 133.574938 
L 82.231646 133.354105 
L 82.417586 133.243688 
L 82.535911 133.022854 
L 82.727486 132.912437 
L 82.845811 132.691604 
L 83.026116 132.581187 
L 83.144441 132.360353 
L 83.330381 132.249937 
L 83.448707 132.029103 
L 83.640281 131.918686 
L 83.758606 131.697853 
L 83.848759 131.808269 
L 83.978353 132.249937 
L 84.051602 132.360353 
L 84.181197 132.802021 
L 84.254446 132.912437 
L 84.38404 133.354105 
L 84.457289 133.464521 
L 84.586883 133.906189 
L 84.660132 134.016605 
L 84.789727 134.458273 
L 84.862976 134.568689 
L 84.99257 135.010357 
L 85.065819 135.120773 
L 85.195413 135.562441 
L 85.268662 135.672857 
L 85.398257 136.114525 
L 85.471506 136.224941 
L 85.6011 136.666609 
L 85.674349 136.777025 
L 85.803944 137.218693 
L 86.119478 137.108276 
L 86.232169 136.997859 
L 86.525165 136.887442 
L 86.637855 136.777025 
L 86.936486 136.666609 
L 87.049177 136.556192 
L 87.336538 136.445775 
L 87.449229 136.335358 
L 87.742225 136.224941 
L 87.854916 136.114525 
L 88.147912 136.004108 
L 88.260602 135.893691 
L 88.553598 135.783274 
L 88.666289 135.672857 
L 88.959285 135.562441 
L 89.071976 135.452024 
L 89.364972 135.341607 
L 89.477663 135.23119 
L 89.770659 135.120773 
L 89.88335 135.010357 
L 90.18198 134.89994 
L 90.294671 134.789523 
L 90.587667 134.679106 
L 90.700358 134.568689 
L 90.993354 134.458273 
L 91.106044 134.347856 
L 91.39904 134.237439 
L 91.511731 134.127022 
L 91.799093 134.016605 
L 91.911783 133.906189 
L 92.007571 134.016605 
L 92.125896 134.237439 
L 92.204779 134.347856 
L 92.323105 134.568689 
L 92.413257 134.679106 
L 92.531583 134.89994 
L 92.616101 135.010357 
L 92.734426 135.23119 
L 92.81331 135.341607 
L 92.931635 135.562441 
L 93.021788 135.672857 
L 93.140113 135.893691 
L 93.224631 136.004108 
L 93.342956 136.224941 
L 93.42184 136.335358 
L 93.540165 136.556192 
L 93.630318 136.666609 
L 93.748643 136.887442 
L 93.833161 136.997859 
L 93.951486 137.218693 
L 94.233213 137.108276 
L 94.345904 136.997859 
L 94.6389 136.887442 
L 94.751591 136.777025 
L 95.050221 136.666609 
L 95.162912 136.556192 
L 95.450274 136.445775 
L 95.562964 136.335358 
L 95.85596 136.224941 
L 95.968651 136.114525 
L 96.058804 136.004108 
L 96.177129 135.783274 
L 96.267282 135.672857 
L 96.385607 135.452024 
L 96.464491 135.341607 
L 96.582816 135.120773 
L 96.667334 135.010357 
L 96.785659 134.789523 
L 96.875812 134.679106 
L 96.994137 134.458273 
L 97.073021 134.347856 
L 97.191346 134.127022 
L 97.281499 134.016605 
L 97.399824 133.795772 
L 97.484342 133.685355 
L 97.602667 133.464521 
L 97.681551 133.354105 
L 97.799876 133.133271 
L 97.890029 133.022854 
L 98.019623 132.581187 
L 98.042161 132.47077 
L 98.222467 131.035352 
L 98.245005 130.924935 
L 98.42531 129.489517 
L 98.447848 129.3791 
L 98.628153 127.943682 
L 98.645057 127.833265 
L 98.825362 126.397846 
L 98.8479 126.28743 
L 99.028206 124.852011 
L 99.056378 124.741594 
L 99.236684 123.306176 
L 99.259222 123.195759 
L 99.439527 121.760341 
L 99.462065 121.649924 
L 99.64237 120.214506 
L 99.664909 120.104089 
L 99.845214 118.668671 
L 99.862117 118.558254 
L 100.031154 117.343669 
L 100.166383 117.233252 
L 100.284708 117.012419 
L 100.476282 116.902002 
L 100.594607 116.681168 
L 100.774913 116.570751 
L 100.893238 116.349918 
L 101.079178 116.239501 
L 101.197503 116.018667 
L 101.389077 115.908251 
L 101.507403 115.687417 
L 101.693342 115.577 
L 101.811668 115.356167 
L 101.991973 115.24575 
L 102.115933 114.914499 
L 102.189182 114.804083 
L 102.318776 114.362415 
L 102.392025 114.251999 
L 102.52162 113.810331 
L 102.594869 113.699915 
L 102.724463 113.258247 
L 102.797712 113.147831 
L 102.927306 112.706163 
L 103.000555 112.595747 
L 103.13015 112.154079 
L 103.203399 112.043663 
L 103.332993 111.601995 
L 103.406242 111.491579 
L 103.535837 111.049911 
L 103.609086 110.939495 
L 103.73868 110.497827 
L 103.811929 110.387411 
L 103.941523 109.945744 
L 104.014772 109.835327 
L 104.166905 108.951992 
L 104.189443 108.841576 
L 104.358479 107.626991 
L 104.375383 107.516574 
L 104.544419 106.301989 
L 104.566957 106.191572 
L 104.741628 104.866571 
L 104.769801 104.756154 
L 104.944471 103.431152 
L 104.972644 103.320736 
L 105.147315 101.995734 
L 105.175487 101.885317 
L 105.350158 100.560316 
L 105.378331 100.449899 
L 105.553001 99.124897 
L 105.581174 99.014481 
L 105.755845 97.689479 
L 105.784017 97.579062 
L 105.958688 96.254061 
L 105.986861 96.143644 
L 106.144628 95.149893 
L 106.189704 95.039476 
L 106.324933 94.487392 
L 106.386913 94.376975 
L 106.516508 93.935308 
L 106.561584 93.824891 
L 106.696813 93.272807 
L 106.758793 93.16239 
L 106.888387 92.720723 
L 106.933463 92.610306 
L 107.068692 92.058222 
L 107.130672 91.947805 
L 107.260267 91.506138 
L 107.299708 91.395721 
L 107.429303 90.954054 
L 107.474379 90.843637 
L 107.603973 90.40197 
L 107.643415 90.291553 
L 107.77301 89.849886 
L 107.812451 89.739469 
L 107.942046 89.297802 
L 107.975853 89.187385 
L 108.105447 88.745718 
L 108.144889 88.635302 
L 108.291387 87.862384 
L 108.325194 87.751967 
L 108.471692 86.97905 
L 108.5055 86.868633 
L 108.651998 86.095715 
L 108.685805 85.985298 
L 108.832303 85.212381 
L 108.86611 85.101964 
L 109.012608 84.329046 
L 109.046415 84.21863 
L 109.192913 83.445712 
L 109.226721 83.335295 
L 109.373219 82.562378 
L 109.407026 82.451961 
L 109.553524 81.679043 
L 109.581696 81.568626 
L 109.728194 80.795709 
L 109.767636 80.685292 
L 109.914134 79.912374 
L 109.942307 79.801958 
L 110.088805 79.02904 
L 110.122612 78.918623 
L 110.26911 78.145706 
L 110.302917 78.035289 
L 110.449415 77.262371 
L 110.483223 77.151955 
L 110.629721 76.379037 
L 110.669162 76.26862 
L 110.81566 75.495703 
L 110.843833 75.385286 
L 110.990331 74.612368 
L 111.029773 74.501951 
L 111.176271 73.729034 
L 111.204444 73.618617 
L 111.350942 72.845699 
L 111.390383 72.735283 
L 111.536881 71.962365 
L 111.565054 71.851948 
L 111.711552 71.079031 
L 111.750994 70.968614 
L 111.897492 70.195696 
L 111.925665 70.085279 
L 112.072163 69.312362 
L 112.111604 69.201945 
L 112.258102 68.429027 
L 112.303179 68.318611 
L 112.444042 67.65611 
L 112.477849 67.545693 
L 112.618713 66.883192 
L 112.658155 66.772776 
L 112.799018 66.110275 
L 112.832825 65.999858 
L 112.973689 65.337357 
L 113.01313 65.22694 
L 113.153994 64.56444 
L 113.187801 64.454023 
L 113.328665 63.791522 
L 113.368106 63.681105 
L 113.50897 63.018604 
L 113.542777 62.908188 
L 113.683641 62.245687 
L 113.723082 62.13527 
L 113.863946 61.472769 
L 113.897753 61.362352 
L 114.038617 60.699852 
L 114.078058 60.589435 
L 114.218922 59.926934 
L 114.263998 59.816517 
L 114.393592 59.37485 
L 114.433034 59.264433 
L 114.562629 58.822766 
L 114.60207 58.712349 
L 114.731665 58.270682 
L 114.776741 58.160265 
L 114.91197 57.608181 
L 114.97395 57.497765 
L 115.103544 57.056097 
L 115.142986 56.945681 
L 115.27258 56.504013 
L 115.317657 56.393597 
L 115.452886 55.841513 
L 115.514866 55.731096 
L 115.64446 55.289429 
L 115.683902 55.179012 
L 115.813496 54.737345 
L 115.858572 54.626928 
L 115.993801 54.074844 
L 116.055781 53.964427 
L 116.185376 53.52276 
L 116.224817 53.412343 
L 116.258625 53.301926 
L 116.309336 53.633177 
L 116.320605 53.633177 
L 116.343143 53.743593 
L 116.489641 54.516511 
L 116.529083 54.626928 
L 116.675581 55.399845 
L 116.703753 55.510262 
L 116.850251 56.28318 
L 116.889693 56.393597 
L 117.036191 57.166514 
L 117.064364 57.276931 
L 117.210862 58.049848 
L 117.250304 58.160265 
L 117.396802 58.933183 
L 117.424974 59.0436 
L 117.571472 59.816517 
L 117.610914 59.926934 
L 117.757412 60.699852 
L 117.785585 60.810268 
L 117.932083 61.583186 
L 117.971524 61.693603 
L 118.118022 62.46652 
L 118.146195 62.576937 
L 118.287059 63.239438 
L 118.427922 63.129021 
L 118.546247 62.908188 
L 118.732187 62.797771 
L 118.850512 62.576937 
L 119.036452 62.46652 
L 119.154778 62.245687 
L 119.340717 62.13527 
L 119.459043 61.914436 
L 119.644982 61.80402 
L 119.763308 61.583186 
L 119.949247 61.472769 
L 120.067573 61.251936 
L 120.253513 61.141519 
L 120.309858 61.031102 
L 120.343665 61.362352 
L 120.3493 61.362352 
L 120.371838 61.472769 
L 120.546509 62.797771 
L 120.574681 62.908188 
L 120.749352 64.233189 
L 120.777525 64.343606 
L 120.952195 65.668608 
L 120.980368 65.779024 
L 121.155039 67.104026 
L 121.183211 67.214443 
L 121.357882 68.539444 
L 121.386055 68.649861 
L 121.560726 69.974863 
L 121.588898 70.085279 
L 121.763569 71.410281 
L 121.791742 71.520698 
L 121.966412 72.845699 
L 121.994585 72.956116 
L 122.169256 74.281118 
L 122.197428 74.391535 
L 122.377734 75.826953 
L 122.400272 75.93737 
L 122.597481 77.704039 
L 122.614384 77.814455 
L 122.811593 79.581124 
L 122.828497 79.691541 
L 123.025706 81.45821 
L 123.048244 81.568626 
L 123.245453 83.335295 
L 123.262356 83.445712 
L 123.459565 85.212381 
L 123.476469 85.322798 
L 123.673677 87.089466 
L 123.690581 87.199883 
L 123.88779 88.966552 
L 123.910328 89.076969 
L 124.107537 90.843637 
L 124.124441 90.954054 
L 124.321649 92.720723 
L 124.338553 92.83114 
L 124.479417 93.493641 
L 124.518858 93.604057 
L 124.654087 94.156141 
L 124.693529 94.266558 
L 124.828758 94.818642 
L 124.862565 94.929059 
L 124.997794 95.481143 
L 125.037236 95.59156 
L 125.172465 96.143644 
L 125.211907 96.254061 
L 125.347135 96.806145 
L 125.386577 96.916561 
L 125.521806 97.468645 
L 125.561248 97.579062 
L 125.696477 98.131146 
L 125.735919 98.241563 
L 125.871148 98.793647 
L 125.910589 98.904064 
L 126.045818 99.456148 
L 126.08526 99.566565 
L 126.220489 100.118648 
L 126.254296 100.229065 
L 126.389525 100.781149 
L 126.412063 100.891566 
L 126.56983 101.885317 
L 126.598003 101.995734 
L 126.75577 102.989485 
L 126.783943 103.099902 
L 126.94171 104.093653 
L 126.969883 104.20407 
L 127.12765 105.197821 
L 127.150188 105.308238 
L 127.307955 106.301989 
L 127.336128 106.412406 
L 127.493895 107.406157 
L 127.522067 107.516574 
L 127.679834 108.510325 
L 127.708007 108.620742 
L 127.865774 109.614493 
L 127.888312 109.72491 
L 128.046079 110.718661 
L 128.074252 110.829078 
L 128.232019 111.822829 
L 128.260192 111.933246 
L 128.417959 112.926997 
L 128.491208 113.037414 
L 128.615168 113.368664 
L 128.694051 113.479081 
L 128.818011 113.810331 
L 128.896895 113.920748 
L 129.020855 114.251999 
L 129.099738 114.362415 
L 129.223698 114.693666 
L 129.302582 114.804083 
L 129.426541 115.135333 
L 129.505425 115.24575 
L 129.629385 115.577 
L 129.708268 115.687417 
L 129.832228 116.018667 
L 129.911112 116.129084 
L 130.035072 116.460335 
L 130.113955 116.570751 
L 130.237915 116.902002 
L 130.316798 117.012419 
L 130.440758 117.343669 
L 130.750658 117.454086 
L 130.863349 117.564503 
L 131.156345 117.674919 
L 131.269036 117.785336 
L 131.562032 117.895753 
L 131.674722 118.00617 
L 131.967718 118.116587 
L 132.080409 118.227003 
L 132.367771 118.33742 
L 132.480461 118.447837 
L 134.57651 118.558254 
L 134.70047 118.889504 
L 134.779353 118.999921 
L 134.903313 119.331171 
L 134.982196 119.441588 
L 135.106156 119.772839 
L 135.18504 119.883255 
L 135.309 120.214506 
L 135.387883 120.324923 
L 135.511843 120.656173 
L 135.590727 120.76659 
L 135.714686 121.09784 
L 135.79357 121.208257 
L 135.91753 121.539507 
L 135.996413 121.649924 
L 136.120373 121.981174 
L 136.199257 122.091591 
L 136.323217 122.422842 
L 136.4021 122.533258 
L 136.52606 122.864509 
L 136.58804 122.974926 
L 136.717634 123.416593 
L 136.790883 123.52701 
L 136.920478 123.968677 
L 136.993727 124.079094 
L 137.123321 124.520761 
L 137.19657 124.631178 
L 137.326164 125.072845 
L 137.399413 125.183262 
L 137.529008 125.624929 
L 137.602257 125.735346 
L 137.731851 126.177013 
L 137.8051 126.28743 
L 137.934695 126.729097 
L 138.007944 126.839514 
L 138.137538 127.281181 
L 138.210787 127.391598 
L 138.340381 127.833265 
L 138.41363 127.943682 
L 138.543225 128.385349 
L 140.689984 128.495766 
L 140.808309 128.716599 
L 140.887193 128.827016 
L 141.005518 129.04785 
L 141.095671 129.158266 
L 141.213996 129.3791 
L 141.298514 129.489517 
L 141.41684 129.71035 
L 141.495723 129.820767 
L 141.614048 130.041601 
L 141.704201 130.152018 
L 141.822526 130.372851 
L 141.907044 130.483268 
L 142.02537 130.704102 
L 142.104253 130.814518 
L 142.222579 131.035352 
L 142.312731 131.145769 
L 142.431056 131.366602 
L 142.515575 131.477019 
L 142.6339 131.697853 
L 144.718679 131.587436 
L 144.842639 131.256185 
L 144.921523 131.145769 
L 145.045482 130.814518 
L 145.124366 130.704102 
L 145.248326 130.372851 
L 145.327209 130.262434 
L 145.451169 129.931184 
L 145.530053 129.820767 
L 145.654013 129.489517 
L 145.732896 129.3791 
L 145.856856 129.04785 
L 145.935739 128.937433 
L 146.059699 128.606182 
L 146.138583 128.495766 
L 146.262543 128.164515 
L 146.341426 128.054098 
L 146.465386 127.722848 
L 146.54427 127.612431 
L 146.668229 127.281181 
L 146.702037 127.170764 
L 146.854169 126.28743 
L 146.882342 126.177013 
L 147.034474 125.293678 
L 147.068282 125.183262 
L 147.220414 124.299927 
L 147.248587 124.18951 
L 147.400719 123.306176 
L 147.434527 123.195759 
L 147.586659 122.312425 
L 147.614832 122.202008 
L 147.766964 121.318674 
L 147.795137 121.208257 
L 147.94727 120.324923 
L 147.981077 120.214506 
L 148.13321 119.331171 
L 148.161382 119.220755 
L 148.313515 118.33742 
L 148.347322 118.227003 
L 148.499455 117.343669 
L 148.527627 117.233252 
L 148.67976 116.349918 
L 148.707932 116.239501 
L 148.888238 114.804083 
L 148.910776 114.693666 
L 149.091081 113.258247 
L 149.113619 113.147831 
L 149.293924 111.712412 
L 149.316463 111.601995 
L 149.496768 110.166577 
L 149.519306 110.05616 
L 149.699611 108.620742 
L 149.722149 108.510325 
L 149.902455 107.074907 
L 149.924993 106.96449 
L 150.105298 105.529072 
L 150.127836 105.418655 
L 150.308141 103.983236 
L 150.33068 103.87282 
L 150.510985 102.437401 
L 150.533523 102.326984 
L 150.713828 100.891566 
L 150.742001 100.781149 
L 150.87723 100.229065 
L 150.916672 100.118648 
L 151.0519 99.566565 
L 151.091342 99.456148 
L 151.226571 98.904064 
L 151.266013 98.793647 
L 151.401242 98.241563 
L 151.435049 98.131146 
L 151.570278 97.579062 
L 151.60972 97.468645 
L 151.744949 96.916561 
L 151.784391 96.806145 
L 151.919619 96.254061 
L 151.959061 96.143644 
L 152.09429 95.59156 
L 152.133732 95.481143 
L 152.268961 94.929059 
L 152.308403 94.818642 
L 152.443632 94.266558 
L 152.483073 94.156141 
L 152.618302 93.604057 
L 152.657744 93.493641 
L 152.798607 92.83114 
L 152.82678 92.720723 
L 152.978913 91.837389 
L 153.01272 91.726972 
L 153.164852 90.843637 
L 153.193025 90.733221 
L 153.345158 89.849886 
L 153.37333 89.739469 
L 153.525463 88.856135 
L 153.55927 88.745718 
L 153.711403 87.862384 
L 153.739575 87.751967 
L 153.891708 86.868633 
L 153.925515 86.758216 
L 154.077648 85.874882 
L 154.10582 85.764465 
L 154.257953 84.88113 
L 154.286126 84.770714 
L 154.438258 83.887379 
L 154.472065 83.776962 
L 154.624198 82.893628 
L 154.652371 82.783211 
L 154.804503 81.899877 
L 154.832676 81.78946 
L 154.990443 80.795709 
L 155.012981 80.685292 
L 155.170748 79.691541 
L 155.198921 79.581124 
L 155.356688 78.587373 
L 155.384861 78.476956 
L 155.542628 77.483205 
L 155.5708 77.372788 
L 155.728568 76.379037 
L 155.751106 76.26862 
L 155.908873 75.274869 
L 155.937045 75.164452 
L 156.094813 74.170701 
L 156.122985 74.060284 
L 156.280752 73.066533 
L 156.30329 72.956116 
L 156.461058 71.962365 
L 156.48923 71.851948 
L 156.646997 70.858197 
L 156.67517 70.74778 
L 156.827303 69.864446 
L 156.889282 69.974863 
L 157.013242 70.306113 
L 157.092126 70.41653 
L 157.216086 70.74778 
L 157.294969 70.858197 
L 157.418929 71.189447 
L 157.497813 71.299864 
L 157.621772 71.631115 
L 157.700656 71.741531 
L 157.824616 72.072782 
L 157.903499 72.183199 
L 158.027459 72.514449 
L 158.106343 72.624866 
L 158.230303 72.956116 
L 158.309186 73.066533 
L 158.433146 73.397783 
L 158.51203 73.5082 
L 158.635989 73.839451 
L 158.714873 73.949867 
L 158.838833 74.281118 
L 158.867006 74.170701 
L 159.030407 73.066533 
L 159.052945 72.956116 
L 159.216347 71.851948 
L 159.238885 71.741531 
L 159.402287 70.637363 
L 159.424825 70.526947 
L 159.588226 69.422779 
L 159.610765 69.312362 
L 159.774166 68.208194 
L 159.796704 68.097777 
L 159.960106 66.993609 
L 159.982644 66.883192 
L 160.146046 65.779024 
L 160.168584 65.668608 
L 160.331986 64.56444 
L 160.354524 64.454023 
L 160.517925 63.349855 
L 160.540463 63.239438 
L 160.703865 62.13527 
L 160.726403 62.024853 
L 160.88417 61.031102 
L 160.929247 60.920685 
L 161.058841 60.479018 
L 161.13209 60.368601 
L 161.261684 59.926934 
L 161.334933 59.816517 
L 161.464528 59.37485 
L 161.537777 59.264433 
L 161.667371 58.822766 
L 161.74062 58.712349 
L 161.870215 58.270682 
L 161.943464 58.160265 
L 162.073058 57.718598 
L 162.146307 57.608181 
L 162.275901 57.166514 
L 162.34915 57.056097 
L 162.478745 56.61443 
L 162.551994 56.504013 
L 162.681588 56.062346 
L 162.754837 55.951929 
L 162.884432 55.510262 
L 163.002757 55.399845 
L 163.121082 55.179012 
L 163.199966 55.068595 
L 163.318291 54.847761 
L 163.408444 54.737345 
L 163.526769 54.516511 
L 163.611287 54.406094 
L 163.729612 54.185261 
L 163.808496 54.074844 
L 163.926821 53.85401 
L 164.016974 53.743593 
L 164.135299 53.52276 
L 164.219817 53.412343 
L 164.338142 53.191509 
L 164.422661 53.081093 
L 164.540986 52.860259 
L 164.625504 52.749842 
L 164.743829 52.529009 
L 164.828347 52.418592 
L 164.946673 52.197758 
L 165.234034 52.087341 
L 165.346725 51.976925 
L 165.639721 51.866508 
L 165.752412 51.756091 
L 166.045408 51.645674 
L 166.158098 51.535257 
L 166.451094 51.424841 
L 166.563785 51.314424 
L 166.851147 51.204007 
L 166.963837 51.09359 
L 167.155412 52.749842 
L 167.17795 52.860259 
L 167.36389 54.406094 
L 167.380793 54.516511 
L 167.566733 56.062346 
L 167.583637 56.172763 
L 167.769576 57.718598 
L 167.78648 57.829015 
L 167.97242 59.37485 
L 167.989323 59.485267 
L 168.175263 61.031102 
L 168.192167 61.141519 
L 168.378107 62.687354 
L 168.39501 62.797771 
L 168.58095 64.343606 
L 168.597854 64.454023 
L 168.783793 65.999858 
L 168.800697 66.110275 
L 168.986637 67.65611 
L 169.042982 67.766527 
L 169.172577 68.208194 
L 169.245826 68.318611 
L 169.37542 68.760278 
L 169.448669 68.870695 
L 169.578263 69.312362 
L 169.651512 69.422779 
L 169.781107 69.864446 
L 169.854356 69.974863 
L 169.98395 70.41653 
L 170.057199 70.526947 
L 170.186794 70.968614 
L 170.260043 71.079031 
L 170.389637 71.520698 
L 170.462886 71.631115 
L 170.59248 72.072782 
L 170.665729 72.183199 
L 170.795324 72.624866 
L 170.868573 72.735283 
L 170.998167 73.17695 
L 171.037609 73.287367 
L 171.20101 74.391535 
L 171.223549 74.501951 
L 171.38695 75.606119 
L 171.409488 75.716536 
L 171.57289 76.820704 
L 171.595428 76.931121 
L 171.75883 78.035289 
L 171.781368 78.145706 
L 171.94477 79.249874 
L 171.967308 79.36029 
L 172.130709 80.464458 
L 172.153247 80.574875 
L 172.316649 81.679043 
L 172.339187 81.78946 
L 172.502589 82.893628 
L 172.525127 83.004045 
L 172.688529 84.108213 
L 172.711067 84.21863 
L 172.874468 85.322798 
L 172.897007 85.433214 
L 173.060408 86.537382 
L 173.111119 86.647799 
L 173.246348 87.199883 
L 173.28579 87.3103 
L 173.421019 87.862384 
L 173.46046 87.972801 
L 173.595689 88.524885 
L 173.635131 88.635302 
L 173.77036 89.187385 
L 173.809802 89.297802 
L 173.945031 89.849886 
L 173.984473 89.960303 
L 174.119701 90.512387 
L 174.153509 90.622804 
L 174.288738 91.174888 
L 174.328179 91.285305 
L 174.463408 91.837389 
L 174.50285 91.947805 
L 174.638079 92.499889 
L 174.677521 92.610306 
L 174.81275 93.16239 
L 174.852191 93.272807 
L 174.98742 93.824891 
L 175.026862 93.935308 
L 175.178995 94.818642 
L 175.207167 94.929059 
L 175.364934 95.92281 
L 175.393107 96.033227 
L 175.550874 97.026978 
L 175.573412 97.137395 
L 175.731179 98.131146 
L 175.759352 98.241563 
L 175.917119 99.235314 
L 175.945292 99.345731 
L 176.103059 100.339482 
L 176.131232 100.449899 
L 176.288999 101.44365 
L 176.311537 101.554067 
L 176.469304 102.547818 
L 176.497477 102.658235 
L 176.655244 103.651986 
L 176.683417 103.762403 
L 176.841184 104.756154 
L 176.869356 104.866571 
L 177.027123 105.860322 
L 177.049662 105.970739 
L 177.18489 106.522823 
L 177.241236 106.63324 
L 177.37083 107.074907 
L 177.444079 107.185324 
L 177.573674 107.626991 
L 177.646923 107.737408 
L 177.776517 108.179075 
L 177.849766 108.289492 
L 177.97936 108.731159 
L 178.052609 108.841576 
L 178.182204 109.283243 
L 178.255453 109.39366 
L 178.385047 109.835327 
L 178.458296 109.945744 
L 178.587891 110.387411 
L 178.66114 110.497827 
L 178.790734 110.939495 
L 178.863983 111.049911 
L 178.993577 111.491579 
L 179.066826 111.601995 
L 179.196421 112.043663 
L 179.247132 112.154079 
L 179.376726 112.595747 
L 179.410533 112.706163 
L 179.540128 113.147831 
L 179.579569 113.258247 
L 179.709164 113.699915 
L 179.75424 113.810331 
L 179.889469 114.362415 
L 179.951449 114.472832 
L 180.081043 114.914499 
L 180.120485 115.024916 
L 180.250079 115.466583 
L 180.289521 115.577 
L 180.419116 116.018667 
L 180.464192 116.129084 
L 180.599421 116.681168 
L 180.661401 116.791585 
L 180.790995 117.233252 
L 180.830437 117.343669 
L 180.960031 117.785336 
L 181.005108 117.895753 
L 181.140337 118.447837 
L 181.253027 118.558254 
L 181.371353 118.779087 
L 181.455871 118.889504 
L 181.574196 119.110338 
L 181.658714 119.220755 
L 181.777039 119.441588 
L 181.861557 119.552005 
L 181.979883 119.772839 
L 182.064401 119.883255 
L 182.182726 120.104089 
L 182.272879 120.214506 
L 182.391204 120.435339 
L 182.470088 120.545756 
L 182.588413 120.76659 
L 182.672931 120.877006 
L 182.791256 121.09784 
L 182.881409 121.208257 
L 182.999734 121.42909 
L 183.078618 121.539507 
L 183.202578 121.870758 
L 183.242019 121.981174 
L 183.388517 122.754092 
L 183.41669 122.864509 
L 183.563188 123.637426 
L 183.596995 123.747843 
L 183.743493 124.520761 
L 183.777301 124.631178 
L 183.923799 125.404095 
L 183.957606 125.514512 
L 184.104104 126.28743 
L 184.137911 126.397846 
L 184.284409 127.170764 
L 184.318216 127.281181 
L 184.464714 128.054098 
L 184.498522 128.164515 
L 184.64502 128.937433 
L 184.678827 129.04785 
L 184.825325 129.820767 
L 184.864767 129.931184 
L 185.011265 130.704102 
L 185.039437 130.814518 
L 185.185935 131.587436 
L 187.253811 131.697853 
L 187.394674 132.360353 
L 187.428482 132.47077 
L 187.569345 133.133271 
L 187.608787 133.243688 
L 187.74965 133.906189 
L 187.783458 134.016605 
L 187.924321 134.679106 
L 187.963763 134.789523 
L 188.104626 135.452024 
L 188.138433 135.562441 
L 188.279297 136.224941 
L 188.318739 136.335358 
L 188.459602 136.997859 
L 188.493409 137.108276 
L 188.634273 137.770777 
L 188.673715 137.881193 
L 188.814578 138.543694 
L 188.848385 138.654111 
L 188.989249 139.316612 
L 189.028691 139.427029 
L 189.169554 140.089529 
L 189.203361 140.199946 
L 189.327321 140.531197 
L 189.569606 140.641613 
L 189.682297 140.75203 
L 189.975293 140.862447 
L 190.087984 140.972864 
L 190.38098 141.083281 
L 190.493671 141.193697 
L 190.786667 141.304114 
L 190.899357 141.414531 
L 191.197988 141.524948 
L 191.310679 141.635365 
L 191.59804 141.524948 
L 191.710731 141.414531 
L 192.003727 141.304114 
L 192.116418 141.193697 
L 192.409414 141.083281 
L 192.522104 140.972864 
L 192.8151 140.862447 
L 192.927791 140.75203 
L 193.220787 140.641613 
L 193.333478 140.531197 
L 193.384189 140.42078 
L 193.513783 139.979113 
L 193.587032 139.868696 
L 193.716627 139.427029 
L 193.789876 139.316612 
L 193.91947 138.874945 
L 193.992719 138.764528 
L 194.122313 138.322861 
L 194.195562 138.212444 
L 194.325157 137.770777 
L 194.398406 137.66036 
L 194.528 137.218693 
L 194.601249 137.108276 
L 194.730844 136.666609 
L 194.804093 136.556192 
L 194.933687 136.114525 
L 195.006936 136.004108 
L 195.13653 135.562441 
L 195.209779 135.452024 
L 195.339374 135.010357 
L 195.373181 134.89994 
L 195.57039 133.133271 
L 195.587293 133.022854 
L 195.784502 131.256185 
L 195.801406 131.145769 
L 195.998615 129.3791 
L 196.021153 129.268683 
L 196.218362 127.502014 
L 196.235265 127.391598 
L 196.432474 125.624929 
L 196.449378 125.514512 
L 196.646587 123.747843 
L 196.66349 123.637426 
L 196.860699 121.870758 
L 196.883237 121.760341 
L 197.080446 119.993672 
L 197.09735 119.883255 
L 197.294559 118.116587 
L 197.311462 118.00617 
L 197.514306 116.129084 
L 197.531209 116.018667 
L 197.739687 114.031165 
L 197.756591 113.920748 
L 197.965069 111.933246 
L 197.981972 111.822829 
L 198.19045 109.835327 
L 198.212988 109.72491 
L 198.421466 107.737408 
L 198.43837 107.626991 
L 198.646848 105.639488 
L 198.663752 105.529072 
L 198.872229 103.541569 
L 198.889133 103.431152 
L 199.097611 101.44365 
L 199.120149 101.333233 
L 199.328627 99.345731 
L 199.345531 99.235314 
L 199.514567 98.020729 
L 199.54274 97.910313 
L 199.694872 97.026978 
L 199.723045 96.916561 
L 199.875177 96.033227 
L 199.908985 95.92281 
L 200.061117 95.039476 
L 200.08929 94.929059 
L 200.241422 94.045725 
L 200.269595 93.935308 
L 200.421728 93.051973 
L 200.455535 92.941557 
L 200.607667 92.058222 
L 200.63584 91.947805 
L 200.787973 91.064471 
L 200.82178 90.954054 
L 200.973912 90.07072 
L 201.002085 89.960303 
L 201.154218 89.076969 
L 201.18239 88.966552 
L 201.334523 88.083218 
L 201.36833 87.972801 
L 201.537366 86.758216 
L 201.55427 86.647799 
L 201.745844 84.991547 
L 201.768382 84.88113 
L 201.954322 83.335295 
L 201.971226 83.224878 
L 202.157165 81.679043 
L 202.174069 81.568626 
L 202.360009 80.022791 
L 202.376912 79.912374 
L 202.562852 78.366539 
L 202.579756 78.256123 
L 202.765696 76.710287 
L 202.782599 76.599871 
L 202.968539 75.054035 
L 202.985443 74.943619 
L 203.171382 73.397783 
L 203.188286 73.287367 
L 203.374226 71.741531 
L 203.391129 71.631115 
L 203.548896 70.637363 
L 203.599607 70.526947 
L 203.734836 69.974863 
L 203.768644 69.864446 
L 203.903872 69.312362 
L 203.943314 69.201945 
L 204.078543 68.649861 
L 204.117985 68.539444 
L 204.253214 67.98736 
L 204.292656 67.876944 
L 204.427885 67.32486 
L 204.467326 67.214443 
L 204.602555 66.662359 
L 204.641997 66.551942 
L 204.777226 65.999858 
L 204.816668 65.889441 
L 204.951897 65.337357 
L 204.991338 65.22694 
L 205.126567 64.674856 
L 205.160375 64.56444 
L 205.295603 64.012356 
L 205.335045 63.901939 
L 205.470274 63.349855 
L 205.509716 63.239438 
L 205.656214 62.46652 
L 205.684387 62.356104 
L 205.830885 61.583186 
L 205.870326 61.472769 
L 206.016824 60.699852 
L 206.044997 60.589435 
L 206.191495 59.816517 
L 206.230937 59.7061 
L 206.377435 58.933183 
L 206.405608 58.822766 
L 206.552106 58.049848 
L 206.585913 57.939432 
L 206.732411 57.166514 
L 206.766218 57.056097 
L 206.912716 56.28318 
L 206.946523 56.172763 
L 207.093021 55.399845 
L 207.126829 55.289429 
L 207.273327 54.516511 
L 207.307134 54.406094 
L 207.453632 53.633177 
L 207.487439 53.52276 
L 207.611399 53.191509 
L 207.780435 53.081093 
L 207.89876 52.860259 
L 208.079066 52.749842 
L 208.197391 52.529009 
L 208.383331 52.418592 
L 208.501656 52.197758 
L 208.69323 52.087341 
L 208.811556 51.866508 
L 208.991861 51.756091 
L 209.110186 51.535257 
L 209.296126 51.424841 
L 209.414451 51.204007 
L 211.668267 51.314424 
L 211.803496 51.866508 
L 211.865475 51.976925 
L 211.99507 52.418592 
L 212.034512 52.529009 
L 212.164106 52.970676 
L 212.209182 53.081093 
L 212.344411 53.633177 
L 212.406391 53.743593 
L 212.535986 54.185261 
L 212.575427 54.295677 
L 212.705022 54.737345 
L 212.744463 54.847761 
L 212.874058 55.289429 
L 212.919134 55.399845 
L 213.054363 55.951929 
L 213.116343 56.062346 
L 213.245937 56.504013 
L 213.285379 56.61443 
L 213.414974 57.056097 
L 213.46005 57.166514 
L 213.595279 57.718598 
L 213.640355 57.829015 
L 213.792488 58.712349 
L 213.82066 58.822766 
L 213.972793 59.7061 
L 214.0066 59.816517 
L 214.158733 60.699852 
L 214.186905 60.810268 
L 214.339038 61.693603 
L 214.367211 61.80402 
L 214.519343 62.687354 
L 214.55315 62.797771 
L 214.705283 63.681105 
L 214.733456 63.791522 
L 214.885588 64.674856 
L 214.919395 64.785273 
L 215.071528 65.668608 
L 215.099701 65.779024 
L 215.251833 66.662359 
L 215.28564 66.772776 
L 215.437773 67.65611 
L 215.465946 67.766527 
L 215.618078 68.649861 
L 215.742038 68.760278 
L 215.854729 68.870695 
L 216.147725 68.981111 
L 216.260416 69.091528 
L 216.553412 69.201945 
L 216.666102 69.312362 
L 216.959098 69.422779 
L 217.071789 69.533195 
L 217.364785 69.643612 
L 217.477476 69.754029 
L 217.674685 69.864446 
L 217.832452 70.858197 
L 217.860625 70.968614 
L 218.018392 71.962365 
L 218.046564 72.072782 
L 218.204331 73.066533 
L 218.22687 73.17695 
L 218.384637 74.170701 
L 218.412809 74.281118 
L 218.570576 75.274869 
L 218.598749 75.385286 
L 218.756516 76.379037 
L 218.784689 76.489454 
L 218.942456 77.483205 
L 218.964994 77.593622 
L 219.122761 78.587373 
L 219.150934 78.69779 
L 219.308701 79.691541 
L 219.336874 79.801958 
L 219.494641 80.795709 
L 219.517179 80.906126 
L 219.674946 81.899877 
L 219.708753 82.010294 
L 219.855251 82.783211 
L 219.883424 82.893628 
L 220.029922 83.666546 
L 220.069364 83.776962 
L 220.215862 84.54988 
L 220.244034 84.660297 
L 220.390532 85.433214 
L 220.429974 85.543631 
L 220.576472 86.316549 
L 220.604645 86.426966 
L 220.751143 87.199883 
L 220.790585 87.3103 
L 220.937083 88.083218 
L 220.97089 88.193634 
L 221.117388 88.966552 
L 221.151195 89.076969 
L 221.297693 89.849886 
L 221.3315 89.960303 
L 221.477998 90.733221 
L 221.511806 90.843637 
L 221.658304 91.616555 
L 221.692111 91.726972 
L 221.821705 92.168639 
L 221.900589 92.279056 
L 222.024549 92.610306 
L 222.103432 92.720723 
L 222.227392 93.051973 
L 222.306275 93.16239 
L 222.430235 93.493641 
L 222.509119 93.604057 
L 222.633079 93.935308 
L 222.711962 94.045725 
L 222.835922 94.376975 
L 222.914806 94.487392 
L 223.038765 94.818642 
L 223.117649 94.929059 
L 223.241609 95.260309 
L 223.320492 95.370726 
L 223.444452 95.701977 
L 223.523336 95.812393 
L 223.647296 96.143644 
L 223.726179 96.254061 
L 223.850139 96.585311 
L 223.929023 96.695728 
L 224.052982 97.026978 
L 224.131866 97.137395 
L 224.255826 97.468645 
L 224.334709 97.579062 
L 224.458669 97.910313 
L 224.537553 98.020729 
L 224.661513 98.35198 
L 224.740396 98.462397 
L 224.864356 98.793647 
L 224.94324 98.904064 
L 225.067199 99.235314 
L 225.146083 99.345731 
L 225.270043 99.676981 
L 225.348926 99.787398 
L 225.472886 100.118648 
L 225.55177 100.229065 
L 225.67573 100.560316 
L 225.754613 100.670732 
L 225.878573 101.001983 
L 225.957456 101.1124 
L 226.081416 101.44365 
L 226.1603 101.554067 
L 226.28426 101.885317 
L 226.363143 101.995734 
L 226.487103 102.326984 
L 226.565987 102.437401 
L 226.689946 102.768652 
L 226.76883 102.879068 
L 226.89279 103.210319 
L 226.971673 103.320736 
L 227.095633 103.651986 
L 227.174517 103.762403 
L 227.298477 104.093653 
L 227.37736 104.20407 
L 227.50132 104.53532 
L 227.580204 104.645737 
L 227.704163 104.976988 
L 227.783047 105.087404 
L 227.912641 105.529072 
L 227.963352 105.639488 
L 228.098581 106.191572 
L 228.160561 106.301989 
L 228.290155 106.743656 
L 228.329597 106.854073 
L 228.459192 107.29574 
L 228.504268 107.406157 
L 228.633862 107.847824 
L 228.66767 107.958241 
L 228.797264 108.399908 
L 228.836706 108.510325 
L 228.9663 108.951992 
L 229.005742 109.062409 
L 229.135336 109.504076 
L 229.180413 109.614493 
L 229.310007 110.05616 
L 229.349449 110.166577 
L 229.479043 110.608244 
L 229.51285 110.718661 
L 229.642445 111.160328 
L 229.681886 111.270745 
L 229.811481 111.712412 
L 229.862192 111.822829 
L 229.986152 112.154079 
L 230.065035 112.264496 
L 230.188995 112.595747 
L 230.267878 112.706163 
L 230.391838 113.037414 
L 230.470722 113.147831 
L 230.594682 113.479081 
L 230.673565 113.589498 
L 230.797525 113.920748 
L 230.876409 114.031165 
L 231.000368 114.362415 
L 231.079252 114.472832 
L 231.203212 114.804083 
L 231.282095 114.914499 
L 231.406055 115.24575 
L 231.484939 115.356167 
L 231.608899 115.687417 
L 231.687782 115.797834 
L 231.811742 116.129084 
L 231.913164 116.239501 
L 232.031489 116.460335 
L 232.217429 116.570751 
L 232.335754 116.791585 
L 232.521694 116.902002 
L 232.640019 117.122835 
L 232.825959 117.233252 
L 232.944284 117.454086 
L 233.130224 117.564503 
L 233.248549 117.785336 
L 233.434489 117.895753 
L 233.552814 118.116587 
L 233.738754 118.227003 
L 233.85708 118.447837 
L 233.992308 118.558254 
L 234.110634 118.779087 
L 234.195152 118.889504 
L 234.313477 119.110338 
L 234.397995 119.220755 
L 234.516321 119.441588 
L 234.600839 119.552005 
L 234.719164 119.772839 
L 234.803682 119.883255 
L 234.922007 120.104089 
L 235.01216 120.214506 
L 235.130485 120.435339 
L 235.209369 120.545756 
L 235.327694 120.76659 
L 235.412212 120.877006 
L 235.530538 121.09784 
L 235.62069 121.208257 
L 235.739015 121.42909 
L 235.817899 121.539507 
L 235.936224 121.760341 
L 235.998204 121.870758 
L 236.122164 122.202008 
L 236.201048 122.312425 
L 236.325007 122.643675 
L 236.403891 122.754092 
L 236.527851 123.085342 
L 236.606734 123.195759 
L 236.730694 123.52701 
L 236.809578 123.637426 
L 236.933538 123.968677 
L 237.012421 124.079094 
L 237.136381 124.410344 
L 237.215265 124.520761 
L 237.339224 124.852011 
L 237.418108 124.962428 
L 237.542068 125.293678 
L 237.620951 125.404095 
L 237.744911 125.735346 
L 237.823795 125.845762 
L 237.947755 126.177013 
L 240.021265 126.28743 
L 240.156494 126.839514 
L 240.195935 126.94993 
L 240.331164 127.502014 
L 240.370606 127.612431 
L 240.505835 128.164515 
L 240.545277 128.274932 
L 240.680506 128.827016 
L 240.719948 128.937433 
L 240.855176 129.489517 
L 240.888984 129.599934 
L 241.024213 130.152018 
L 241.063654 130.262434 
L 241.198883 130.814518 
L 241.238325 130.924935 
L 241.373554 131.477019 
L 241.412996 131.587436 
L 241.548225 132.13952 
L 241.587666 132.249937 
L 241.722895 132.802021 
L 241.762337 132.912437 
L 241.897566 133.464521 
L 241.937008 133.574938 
L 242.021526 133.906189 
L 242.049699 133.685355 
L 242.094775 133.574938 
L 242.235638 132.912437 
L 242.27508 132.802021 
L 242.415944 132.13952 
L 242.449751 132.029103 
L 242.590614 131.366602 
L 242.630056 131.256185 
L 242.77092 130.593685 
L 242.804727 130.483268 
L 242.94559 129.820767 
L 242.985032 129.71035 
L 243.125896 129.04785 
L 243.159703 128.937433 
L 243.300566 128.274932 
L 243.340008 128.164515 
L 243.480871 127.502014 
L 243.514679 127.391598 
L 243.655542 126.729097 
L 243.694984 126.61868 
L 243.835847 125.956179 
L 243.869655 125.845762 
L 244.010518 125.183262 
L 244.038691 125.072845 
L 244.29788 122.091591 
L 244.309149 121.981174 
L 244.568337 118.999921 
L 244.579606 118.889504 
L 244.838795 115.908251 
L 244.850064 115.797834 
L 245.109253 112.81658 
L 245.120522 112.706163 
L 245.379711 109.72491 
L 245.39098 109.614493 
L 245.650169 106.63324 
L 245.661438 106.522823 
L 245.920627 103.541569 
L 245.931896 103.431152 
L 246.146008 101.333233 
L 246.174181 101.222816 
L 246.337583 100.118648 
L 246.360121 100.008232 
L 246.523522 98.904064 
L 246.54606 98.793647 
L 246.709462 97.689479 
L 246.732 97.579062 
L 246.895402 96.474894 
L 246.91794 96.364477 
L 247.081342 95.260309 
L 247.10388 95.149893 
L 247.267281 94.045725 
L 247.28982 93.935308 
L 247.453221 92.83114 
L 247.475759 92.720723 
L 247.639161 91.616555 
L 247.661699 91.506138 
L 247.825101 90.40197 
L 247.847639 90.291553 
L 248.01104 89.187385 
L 248.033579 89.076969 
L 248.202615 87.862384 
L 248.225153 87.751967 
L 248.394189 86.537382 
L 248.411093 86.426966 
L 248.580129 85.212381 
L 248.602667 85.101964 
L 248.777338 83.776962 
L 248.799876 83.666546 
L 248.968912 82.451961 
L 248.99145 82.341544 
L 249.166121 81.016542 
L 249.194294 80.906126 
L 249.368964 79.581124 
L 249.397137 79.470707 
L 249.571808 78.145706 
L 249.59998 78.035289 
L 249.774651 76.710287 
L 249.802824 76.599871 
L 249.977494 75.274869 
L 250.005667 75.164452 
L 250.180338 73.839451 
L 250.202876 73.729034 
L 250.383181 72.293615 
L 250.405719 72.183199 
L 250.586025 70.74778 
L 250.608563 70.637363 
L 250.788868 69.201945 
L 250.811406 69.091528 
L 250.991711 67.65611 
L 251.01425 67.545693 
L 251.194555 66.110275 
L 251.217093 65.999858 
L 251.397398 64.56444 
L 251.419936 64.454023 
L 251.600242 63.018604 
L 251.62278 62.908188 
L 251.803085 61.472769 
L 251.825623 61.362352 
L 252.005928 59.926934 
L 252.028466 59.816517 
L 252.203137 58.491516 
L 252.23131 58.381099 
L 252.389077 57.387348 
L 252.41725 57.276931 
L 252.575017 56.28318 
L 252.603189 56.172763 
L 252.760957 55.179012 
L 252.783495 55.068595 
L 252.941262 54.074844 
L 252.969434 53.964427 
L 253.127202 52.970676 
L 253.155374 52.860259 
L 253.313141 51.866508 
L 253.341314 51.756091 
L 253.499081 50.76234 
L 253.521619 50.651923 
L 253.679386 49.658172 
L 253.707559 49.547755 
L 253.865326 48.554004 
L 253.893499 48.443587 
L 254.051266 47.449836 
L 254.079439 47.339419 
L 254.225937 46.566502 
L 254.265378 46.456085 
L 254.400607 45.904001 
L 254.462587 45.793584 
L 254.592182 45.351917 
L 254.637258 45.2415 
L 254.772487 44.689416 
L 254.840101 44.578999 
L 254.969696 44.137332 
L 255.009137 44.026915 
L 255.138732 43.585248 
L 255.178174 43.474831 
L 255.307768 43.033164 
L 255.34721 42.922747 
L 255.482439 42.370663 
L 255.550053 42.260246 
L 255.679648 41.818579 
L 255.713455 41.708162 
L 255.843049 41.266495 
L 255.888125 41.156078 
L 256.01772 40.714411 
L 256.057162 40.603994 
L 256.186756 40.162327 
L 256.310716 40.05191 
L 256.423407 39.941494 
L 256.716403 39.831077 
L 256.829093 39.72066 
L 257.122089 39.610243 
L 257.23478 39.499826 
L 257.527776 39.38941 
L 257.640467 39.278993 
L 257.933463 39.168576 
L 258.046154 39.058159 
L 258.282804 38.947742 
L 258.40113 38.726909 
L 258.587069 38.616492 
L 258.705395 38.395658 
L 258.896969 38.285242 
L 259.015294 38.064408 
L 259.201234 37.953991 
L 259.319559 37.733158 
L 259.505499 37.622741 
L 259.623825 37.401907 
L 259.809764 37.29149 
L 259.92809 37.070657 
L 260.108395 36.96024 
L 260.22672 36.739406 
L 260.570427 36.849823 
L 260.683118 36.96024 
L 260.970479 37.070657 
L 261.08317 37.181074 
L 261.381801 37.29149 
L 261.494491 37.401907 
L 261.781853 37.512324 
L 261.894544 37.622741 
L 262.193174 37.733158 
L 262.305865 37.843574 
L 262.441094 37.953991 
L 262.559419 38.174825 
L 262.745359 38.285242 
L 262.863684 38.506075 
L 263.049624 38.616492 
L 263.167949 38.837326 
L 263.353889 38.947742 
L 263.472214 39.168576 
L 263.658154 39.278993 
L 263.776479 39.499826 
L 263.968054 39.610243 
L 264.086379 39.831077 
L 264.266684 39.941494 
L 264.401913 40.493578 
L 264.430086 40.603994 
L 264.582218 41.487329 
L 264.616026 41.597746 
L 264.768158 42.48108 
L 264.796331 42.591497 
L 264.948463 43.474831 
L 264.976636 43.585248 
L 265.128769 44.468582 
L 265.162576 44.578999 
L 265.314708 45.462334 
L 265.342881 45.57275 
L 265.495014 46.456085 
L 265.528821 46.566502 
L 265.680953 47.449836 
L 265.709126 47.560253 
L 265.861259 48.443587 
L 265.889431 48.554004 
L 266.041564 49.437338 
L 266.075371 49.547755 
L 266.227504 50.431089 
L 266.255676 50.541506 
L 266.413444 51.535257 
L 266.435982 51.645674 
L 266.610652 52.970676 
L 266.638825 53.081093 
L 266.813496 54.406094 
L 266.841668 54.516511 
L 267.016339 55.841513 
L 267.044512 55.951929 
L 267.219183 57.276931 
L 267.247355 57.387348 
L 267.422026 58.712349 
L 267.450199 58.822766 
L 267.624869 60.147768 
L 267.653042 60.258184 
L 267.827713 61.583186 
L 267.855885 61.693603 
L 268.030556 63.018604 
L 268.058729 63.129021 
L 268.233399 64.454023 
L 268.261572 64.56444 
L 268.430608 65.779024 
L 268.458781 65.889441 
L 268.616548 66.883192 
L 268.644721 66.993609 
L 268.802488 67.98736 
L 268.830661 68.097777 
L 268.988428 69.091528 
L 269.010966 69.201945 
L 269.168733 70.195696 
L 269.196906 70.306113 
L 269.354673 71.299864 
L 269.382845 71.410281 
L 269.540612 72.404032 
L 269.568785 72.514449 
L 269.726552 73.5082 
L 269.74909 73.618617 
L 269.906857 74.612368 
L 269.93503 74.722785 
L 270.092797 75.716536 
L 270.12097 75.826953 
L 270.278737 76.820704 
L 270.301275 76.931121 
L 270.447773 77.704039 
L 270.577368 77.814455 
L 270.695693 78.035289 
L 270.774576 78.145706 
L 270.892902 78.366539 
L 270.97742 78.476956 
L 271.095745 78.69779 
L 271.185898 78.808206 
L 271.304223 79.02904 
L 271.383107 79.139457 
L 271.501432 79.36029 
L 271.591584 79.470707 
L 271.70991 79.691541 
L 271.794428 79.801958 
L 271.912753 80.022791 
L 271.991637 80.133208 
L 272.109962 80.354042 
L 272.200115 80.464458 
L 272.31844 80.685292 
L 272.402958 80.795709 
L 272.532552 81.237376 
L 272.583263 81.347793 
L 272.712858 81.78946 
L 272.757934 81.899877 
L 272.893163 82.451961 
L 272.960777 82.562378 
L 273.090372 83.004045 
L 273.124179 83.114462 
L 273.253773 83.556129 
L 273.29885 83.666546 
L 273.434079 84.21863 
L 273.501693 84.329046 
L 273.631287 84.770714 
L 273.665095 84.88113 
L 273.794689 85.322798 
L 273.834131 85.433214 
L 273.963725 85.874882 
L 274.008802 85.985298 
L 274.14403 86.537382 
L 274.20601 86.647799 
L 274.335605 87.089466 
L 274.375047 87.199883 
L 274.504641 87.64155 
L 274.634235 87.751967 
L 274.752561 87.972801 
L 274.837079 88.083218 
L 274.955404 88.304051 
L 275.034288 88.414468 
L 275.152613 88.635302 
L 275.237131 88.745718 
L 275.355456 88.966552 
L 275.445609 89.076969 
L 275.563934 89.297802 
L 275.642818 89.408219 
L 275.761143 89.629053 
L 275.845661 89.739469 
L 275.963986 89.960303 
L 276.054139 90.07072 
L 276.172464 90.291553 
L 276.251348 90.40197 
L 276.369673 90.622804 
L 276.454191 90.733221 
L 276.572517 90.954054 
L 276.662669 91.064471 
L 276.780995 91.285305 
L 276.859878 91.395721 
L 276.978203 91.616555 
L 277.062721 91.726972 
L 277.181047 91.947805 
L 277.265565 92.058222 
L 277.38389 92.279056 
L 277.468408 92.389473 
L 277.586734 92.610306 
L 277.671252 92.720723 
L 277.789577 92.941557 
L 277.874095 93.051973 
L 277.99242 93.272807 
L 278.076938 93.383224 
L 278.195264 93.604057 
L 278.279782 93.714474 
L 278.398107 93.935308 
L 278.482625 94.045725 
L 278.527701 94.156141 
L 278.527701 94.156141 
" clip-path="url(#p7f356c4a43)" style="fill: none; stroke: #472183; stroke-width: 0.75; stroke-linecap: square"/>
   </g>
   <g id="line2d_39">
    <path d="M 0 0 
" clip-path="url(#p7f356c4a43)" style="fill: none; stroke: #ffa500; stroke-width: 0.75; stroke-linecap: square"/>
   </g>
   <g id="patch_3">
    <path d="M 35.11 175.864572 
L 35.11 10.239375 
" style="fill: none; stroke: #000000; stroke-width: 0.5; stroke-linejoin: miter; stroke-linecap: square"/>
   </g>
   <g id="patch_4">
    <path d="M 278.522067 175.864572 
L 278.522067 10.239375 
" style="fill: none; stroke: #000000; stroke-width: 0.5; stroke-linejoin: miter; stroke-linecap: square"/>
   </g>
   <g id="patch_5">
    <path d="M 35.11 175.864572 
L 278.522067 175.864572 
" style="fill: none; stroke: #000000; stroke-width: 0.5; stroke-linejoin: miter; stroke-linecap: square"/>
   </g>
   <g id="patch_6">
    <path d="M 35.11 10.239375 
L 278.522067 10.239375 
" style="fill: none; stroke: #000000; stroke-width: 0.5; stroke-linejoin: miter; stroke-linecap: square"/>
   </g>
   <g id="text_13">
    <!-- Summer -->
    <g transform="translate(40.11 21.318125) scale(0.08 -0.08)">
     <defs>
      <path id="DejaVuSans-53" d="M 3425 4513 
L 3425 3897 
Q 3066 4069 2747 4153 
Q 2428 4238 2131 4238 
Q 1616 4238 1336 4038 
Q 1056 3838 1056 3469 
Q 1056 3159 1242 3001 
Q 1428 2844 1947 2747 
L 2328 2669 
Q 3034 2534 3370 2195 
Q 3706 1856 3706 1288 
Q 3706 609 3251 259 
Q 2797 -91 1919 -91 
Q 1588 -91 1214 -16 
Q 841 59 441 206 
L 441 856 
Q 825 641 1194 531 
Q 1563 422 1919 422 
Q 2459 422 2753 634 
Q 3047 847 3047 1241 
Q 3047 1584 2836 1778 
Q 2625 1972 2144 2069 
L 1759 2144 
Q 1053 2284 737 2584 
Q 422 2884 422 3419 
Q 422 4038 858 4394 
Q 1294 4750 2059 4750 
Q 2388 4750 2728 4690 
Q 3069 4631 3425 4513 
z
" transform="scale(0.015625)"/>
     </defs>
     <use xlink:href="#DejaVuSans-53"/>
     <use xlink:href="#DejaVuSans-75" x="63.476562"/>
     <use xlink:href="#DejaVuSans-6d" x="126.855469"/>
     <use xlink:href="#DejaVuSans-6d" x="224.267578"/>
     <use xlink:href="#DejaVuSans-65" x="321.679688"/>
     <use xlink:href="#DejaVuSans-72" x="383.203125"/>
    </g>
   </g>
   <g id="legend_1">
    <g id="line2d_40">
     <path d="M 221.681442 167.116759 
L 227.681442 167.116759 
L 233.681442 167.116759 
" style="fill: none; stroke: #472183; stroke-width: 0.75; stroke-linecap: square"/>
    </g>
    <g id="text_14">
     <!-- Outdoor Air -->
     <g transform="translate(238.481442 169.216759) scale(0.06 -0.06)">
      <defs>
       <path id="DejaVuSans-4f" d="M 2522 4238 
Q 1834 4238 1429 3725 
Q 1025 3213 1025 2328 
Q 1025 1447 1429 934 
Q 1834 422 2522 422 
Q 3209 422 3611 934 
Q 4013 1447 4013 2328 
Q 4013 3213 3611 3725 
Q 3209 4238 2522 4238 
z
M 2522 4750 
Q 3503 4750 4090 4092 
Q 4678 3434 4678 2328 
Q 4678 1225 4090 567 
Q 3503 -91 2522 -91 
Q 1538 -91 948 565 
Q 359 1222 359 2328 
Q 359 3434 948 4092 
Q 1538 4750 2522 4750 
z
" transform="scale(0.015625)"/>
       <path id="DejaVuSans-64" d="M 2906 2969 
L 2906 4863 
L 3481 4863 
L 3481 0 
L 2906 0 
L 2906 525 
Q 2725 213 2448 61 
Q 2172 -91 1784 -91 
Q 1150 -91 751 415 
Q 353 922 353 1747 
Q 353 2572 751 3078 
Q 1150 3584 1784 3584 
Q 2172 3584 2448 3432 
Q 2725 3281 2906 2969 
z
M 947 1747 
Q 947 1113 1208 752 
Q 1469 391 1925 391 
Q 2381 391 2643 752 
Q 2906 1113 2906 1747 
Q 2906 2381 2643 2742 
Q 2381 3103 1925 3103 
Q 1469 3103 1208 2742 
Q 947 2381 947 1747 
z
" transform="scale(0.015625)"/>
       <path id="DejaVuSans-41" d="M 2188 4044 
L 1331 1722 
L 3047 1722 
L 2188 4044 
z
M 1831 4666 
L 2547 4666 
L 4325 0 
L 3669 0 
L 3244 1197 
L 1141 1197 
L 716 0 
L 50 0 
L 1831 4666 
z
" transform="scale(0.015625)"/>
       <path id="DejaVuSans-69" d="M 603 3500 
L 1178 3500 
L 1178 0 
L 603 0 
L 603 3500 
z
M 603 4863 
L 1178 4863 
L 1178 4134 
L 603 4134 
L 603 4863 
z
" transform="scale(0.015625)"/>
      </defs>
      <use xlink:href="#DejaVuSans-4f"/>
      <use xlink:href="#DejaVuSans-75" x="78.710938"/>
      <use xlink:href="#DejaVuSans-74" x="142.089844"/>
      <use xlink:href="#DejaVuSans-64" x="181.298828"/>
      <use xlink:href="#DejaVuSans-6f" x="244.775391"/>
      <use xlink:href="#DejaVuSans-6f" x="305.957031"/>
      <use xlink:href="#DejaVuSans-72" x="367.138672"/>
      <use xlink:href="#DejaVuSans-20" x="408.251953"/>
      <use xlink:href="#DejaVuSans-41" x="440.039062"/>
      <use xlink:href="#DejaVuSans-69" x="508.447266"/>
      <use xlink:href="#DejaVuSans-72" x="536.230469"/>
     </g>
    </g>
   </g>
  </g>
 </g>
 <defs>
  <clipPath id="p7f356c4a43">
   <rect x="35.11" y="10.239375" width="243.412067" height="165.625197"/>
  </clipPath>
 </defs>
</svg>
